%TF.GenerationSoftware,KiCad,Pcbnew,(6.0.8)*%
%TF.CreationDate,2022-12-23T18:43:03+01:00*%
%TF.ProjectId,Neopixel_LED_Star,4e656f70-6978-4656-9c5f-4c45445f5374,rev?*%
%TF.SameCoordinates,Original*%
%TF.FileFunction,Copper,L1,Top*%
%TF.FilePolarity,Positive*%
%FSLAX46Y46*%
G04 Gerber Fmt 4.6, Leading zero omitted, Abs format (unit mm)*
G04 Created by KiCad (PCBNEW (6.0.8)) date 2022-12-23 18:43:03*
%MOMM*%
%LPD*%
G01*
G04 APERTURE LIST*
G04 Aperture macros list*
%AMRoundRect*
0 Rectangle with rounded corners*
0 $1 Rounding radius*
0 $2 $3 $4 $5 $6 $7 $8 $9 X,Y pos of 4 corners*
0 Add a 4 corners polygon primitive as box body*
4,1,4,$2,$3,$4,$5,$6,$7,$8,$9,$2,$3,0*
0 Add four circle primitives for the rounded corners*
1,1,$1+$1,$2,$3*
1,1,$1+$1,$4,$5*
1,1,$1+$1,$6,$7*
1,1,$1+$1,$8,$9*
0 Add four rect primitives between the rounded corners*
20,1,$1+$1,$2,$3,$4,$5,0*
20,1,$1+$1,$4,$5,$6,$7,0*
20,1,$1+$1,$6,$7,$8,$9,0*
20,1,$1+$1,$8,$9,$2,$3,0*%
%AMFreePoly0*
4,1,9,3.862500,-0.866500,0.737500,-0.866500,0.737500,-0.450000,-0.737500,-0.450000,-0.737500,0.450000,0.737500,0.450000,0.737500,0.866500,3.862500,0.866500,3.862500,-0.866500,3.862500,-0.866500,$1*%
G04 Aperture macros list end*
%TA.AperFunction,SMDPad,CuDef*%
%ADD10RoundRect,0.250000X-0.650000X0.325000X-0.650000X-0.325000X0.650000X-0.325000X0.650000X0.325000X0*%
%TD*%
%TA.AperFunction,ComponentPad*%
%ADD11C,6.400000*%
%TD*%
%TA.AperFunction,SMDPad,CuDef*%
%ADD12RoundRect,0.150000X-0.512500X-0.150000X0.512500X-0.150000X0.512500X0.150000X-0.512500X0.150000X0*%
%TD*%
%TA.AperFunction,ComponentPad*%
%ADD13C,2.000000*%
%TD*%
%TA.AperFunction,ComponentPad*%
%ADD14R,1.700000X1.700000*%
%TD*%
%TA.AperFunction,ComponentPad*%
%ADD15O,1.700000X1.700000*%
%TD*%
%TA.AperFunction,SMDPad,CuDef*%
%ADD16RoundRect,0.150000X0.150000X-0.825000X0.150000X0.825000X-0.150000X0.825000X-0.150000X-0.825000X0*%
%TD*%
%TA.AperFunction,SMDPad,CuDef*%
%ADD17RoundRect,0.250000X-0.312500X-0.625000X0.312500X-0.625000X0.312500X0.625000X-0.312500X0.625000X0*%
%TD*%
%TA.AperFunction,SMDPad,CuDef*%
%ADD18R,0.900000X1.300000*%
%TD*%
%TA.AperFunction,SMDPad,CuDef*%
%ADD19FreePoly0,90.000000*%
%TD*%
%TA.AperFunction,ComponentPad*%
%ADD20R,1.600000X1.600000*%
%TD*%
%TA.AperFunction,ComponentPad*%
%ADD21RoundRect,0.400000X-0.400000X-0.400000X0.400000X-0.400000X0.400000X0.400000X-0.400000X0.400000X0*%
%TD*%
%TA.AperFunction,SMDPad,CuDef*%
%ADD22RoundRect,0.250000X0.650000X-0.325000X0.650000X0.325000X-0.650000X0.325000X-0.650000X-0.325000X0*%
%TD*%
%TA.AperFunction,ComponentPad*%
%ADD23R,2.000000X2.000000*%
%TD*%
%TA.AperFunction,ViaPad*%
%ADD24C,0.800000*%
%TD*%
%TA.AperFunction,Conductor*%
%ADD25C,0.250000*%
%TD*%
%TA.AperFunction,Conductor*%
%ADD26C,1.500000*%
%TD*%
%TA.AperFunction,Conductor*%
%ADD27C,1.100000*%
%TD*%
G04 APERTURE END LIST*
D10*
%TO.P,C5,1*%
%TO.N,+3V3*%
X149860000Y-89965000D03*
%TO.P,C5,2*%
%TO.N,GNDD*%
X149860000Y-92915000D03*
%TD*%
D11*
%TO.P,REF\u002A\u002A,1*%
%TO.N,N/C*%
X127000000Y-101600000D03*
%TD*%
D12*
%TO.P,U3,1*%
%TO.N,GNDD*%
X156342500Y-82870000D03*
%TO.P,U3,2*%
%TO.N,Net-(U2-Pad6)*%
X156342500Y-83820000D03*
%TO.P,U3,3,GNDD*%
%TO.N,GNDD*%
X156342500Y-84770000D03*
%TO.P,U3,4*%
%TO.N,Net-(R1-Pad1)*%
X158617500Y-84770000D03*
%TO.P,U3,5,+5V*%
%TO.N,+5V*%
X158617500Y-82870000D03*
%TD*%
D13*
%TO.P,SW1,1,1*%
%TO.N,Net-(C6-Pad1)*%
X141680000Y-99350000D03*
X135180000Y-99350000D03*
%TO.P,SW1,2,2*%
%TO.N,GNDD*%
X141680000Y-103850000D03*
X135180000Y-103850000D03*
%TD*%
D11*
%TO.P,REF\u002A\u002A,1*%
%TO.N,N/C*%
X165100000Y-101600000D03*
%TD*%
%TO.P,REF\u002A\u002A,1*%
%TO.N,N/C*%
X165100000Y-73660000D03*
%TD*%
D14*
%TO.P,J2,1,Pin_1*%
%TO.N,+5V*%
X163265000Y-85170000D03*
D15*
%TO.P,J2,2,Pin_2*%
%TO.N,Net-(J2-Pad2)*%
X163265000Y-87710000D03*
%TO.P,J2,3,Pin_3*%
%TO.N,GNDD*%
X163265000Y-90250000D03*
%TD*%
D16*
%TO.P,U2,1,PB7/PB8/PB9/PC14-OSC32_IN*%
%TO.N,unconnected-(U2-Pad1)*%
X147955000Y-86295000D03*
%TO.P,U2,2,VDD/VDDA*%
%TO.N,+3V3*%
X149225000Y-86295000D03*
%TO.P,U2,3,VSS/VSSA*%
%TO.N,GNDD*%
X150495000Y-86295000D03*
%TO.P,U2,4,PA0/PA1/PA2/PF2-NRS*%
%TO.N,unconnected-(U2-Pad4)*%
X151765000Y-86295000D03*
%TO.P,U2,5,PA8/PA11[PA9]/PB0/PB1*%
%TO.N,Net-(C6-Pad1)*%
X151765000Y-81345000D03*
%TO.P,U2,6,PA12[PA10]*%
%TO.N,Net-(U2-Pad6)*%
X150495000Y-81345000D03*
%TO.P,U2,7,PA13*%
%TO.N,SWDIO*%
X149225000Y-81345000D03*
%TO.P,U2,8,PB5/PB6/PA14-BOOT0/PA15*%
%TO.N,SWCLK*%
X147955000Y-81345000D03*
%TD*%
D10*
%TO.P,C6,1*%
%TO.N,Net-(C6-Pad1)*%
X144780000Y-100125000D03*
%TO.P,C6,2*%
%TO.N,GNDD*%
X144780000Y-103075000D03*
%TD*%
D17*
%TO.P,R1,1*%
%TO.N,Net-(R1-Pad1)*%
X156017500Y-91440000D03*
%TO.P,R1,2*%
%TO.N,Net-(J2-Pad2)*%
X158942500Y-91440000D03*
%TD*%
D10*
%TO.P,C3,1*%
%TO.N,+3V3*%
X139700000Y-89965000D03*
%TO.P,C3,2*%
%TO.N,GNDD*%
X139700000Y-92915000D03*
%TD*%
D18*
%TO.P,U1,1,GND*%
%TO.N,GNDD*%
X140740000Y-85470000D03*
D19*
%TO.P,U1,2,VIN*%
%TO.N,+5V*%
X142240000Y-85382500D03*
D18*
%TO.P,U1,3,VOUT*%
%TO.N,+3V3*%
X143740000Y-85470000D03*
%TD*%
D20*
%TO.P,J1,1,Pin_1*%
%TO.N,+5V*%
X132797000Y-92710000D03*
D21*
%TO.P,J1,2,Pin_2*%
%TO.N,GNDD*%
X127797000Y-92710000D03*
%TO.P,J1,3*%
%TO.N,N/C*%
X130197000Y-95410000D03*
%TD*%
D10*
%TO.P,C4,1*%
%TO.N,+3V3*%
X144780000Y-89965000D03*
%TO.P,C4,2*%
%TO.N,GNDD*%
X144780000Y-92915000D03*
%TD*%
D14*
%TO.P,J3,1,Pin_1*%
%TO.N,SWCLK*%
X147320000Y-76200000D03*
D15*
%TO.P,J3,2,Pin_2*%
%TO.N,SWDIO*%
X149860000Y-76200000D03*
%TO.P,J3,3,Pin_3*%
%TO.N,GNDD*%
X152400000Y-76200000D03*
%TO.P,J3,4,Pin_4*%
%TO.N,+3V3*%
X154940000Y-76200000D03*
%TD*%
D22*
%TO.P,C2,1*%
%TO.N,+5V*%
X142240000Y-78945000D03*
%TO.P,C2,2*%
%TO.N,GNDD*%
X142240000Y-75995000D03*
%TD*%
D11*
%TO.P,REF\u002A\u002A,1*%
%TO.N,N/C*%
X127000000Y-73660000D03*
%TD*%
D23*
%TO.P,C1,1*%
%TO.N,+5V*%
X134620000Y-82550000D03*
D13*
%TO.P,C1,2*%
%TO.N,GNDD*%
X129620000Y-82550000D03*
%TD*%
D24*
%TO.N,GNDD*%
X168910000Y-105410000D03*
X146050000Y-105410000D03*
X123190000Y-105410000D03*
X145415000Y-83185000D03*
X149860000Y-95250000D03*
X139700000Y-76200000D03*
X160655000Y-84455000D03*
X123190000Y-87630000D03*
X151130000Y-83820000D03*
X168910000Y-69850000D03*
X144780000Y-95250000D03*
X156718000Y-98298000D03*
X139700000Y-95250000D03*
X168910000Y-87630000D03*
X146050000Y-69850000D03*
X155956000Y-87376000D03*
X123190000Y-69850000D03*
X155956000Y-80264000D03*
X138430000Y-83820000D03*
%TD*%
D25*
%TO.N,GNDD*%
X138430000Y-83820000D02*
X138760000Y-83820000D01*
X139700000Y-76200000D02*
X139802500Y-76097500D01*
X139700000Y-95250000D02*
X139700000Y-92915000D01*
X139323345Y-84053345D02*
X140740000Y-85470000D01*
X149860000Y-95250000D02*
X149860000Y-92915000D01*
X140049956Y-75995000D02*
X142240000Y-75995000D01*
X144780000Y-95250000D02*
X144780000Y-92915000D01*
X156342500Y-80923796D02*
X156342500Y-82870000D01*
X144882500Y-102972500D02*
X144780000Y-103075000D01*
X155956000Y-87376000D02*
X156149250Y-87182750D01*
X150495000Y-84904012D02*
X150495000Y-86295000D01*
X156342500Y-86716203D02*
X156342500Y-84770000D01*
X156149250Y-80457250D02*
X155956000Y-80264000D01*
X150812500Y-84137500D02*
X151130000Y-83820000D01*
X140049956Y-75994953D02*
G75*
G03*
X139802500Y-76097500I44J-349947D01*
G01*
X150495006Y-84904012D02*
G75*
G02*
X150812500Y-84137500I1083994J12D01*
G01*
X138760000Y-83820003D02*
G75*
G02*
X139323345Y-84053345I0J-796697D01*
G01*
X145129956Y-102869953D02*
G75*
G03*
X144882500Y-102972500I44J-349947D01*
G01*
X156149249Y-87182749D02*
G75*
G03*
X156342500Y-86716203I-466549J466549D01*
G01*
X156149249Y-80457251D02*
G75*
G02*
X156342500Y-80923796I-466549J-466549D01*
G01*
%TO.N,+3V3*%
X143740000Y-86153352D02*
X143740000Y-85470000D01*
X152771974Y-78740000D02*
X151714389Y-78740000D01*
X149860000Y-80594389D02*
X149860000Y-82735987D01*
X144780000Y-89965000D02*
X149635493Y-89965000D01*
X154940000Y-76835000D02*
X154940000Y-76200000D01*
X149542500Y-89647500D02*
X149701250Y-89806250D01*
X145830053Y-85944946D02*
X147505987Y-84269012D01*
X154304999Y-78104999D02*
X154490987Y-77919012D01*
X144780000Y-89965000D02*
X139915000Y-89965000D01*
X139852027Y-89382971D02*
X141155987Y-88079012D01*
X142240000Y-87630000D02*
X142263352Y-87630000D01*
X149225000Y-88880987D02*
X149225000Y-86295000D01*
X144780000Y-89965000D02*
X144780000Y-88480000D01*
X148775987Y-83820000D02*
X148590000Y-83820000D01*
X149225006Y-88880987D02*
G75*
G03*
X149542500Y-89647500I1083994J-13D01*
G01*
X149701261Y-89806239D02*
G75*
G02*
X149635493Y-89965000I-65761J-65761D01*
G01*
X154305008Y-78105008D02*
G75*
G02*
X152771974Y-78740000I-1533008J1533008D01*
G01*
X144779998Y-88480000D02*
G75*
G02*
X145830054Y-85944947I3585102J0D01*
G01*
X143307485Y-87197485D02*
G75*
G03*
X143740000Y-86153352I-1044185J1044185D01*
G01*
X149542504Y-83502504D02*
G75*
G03*
X149860000Y-82735987I-766504J766504D01*
G01*
X147505993Y-84269018D02*
G75*
G02*
X148590000Y-83820000I1084007J-1083982D01*
G01*
X143307485Y-87197485D02*
G75*
G02*
X142263352Y-87630000I-1044185J1044185D01*
G01*
X151714389Y-78739996D02*
G75*
G03*
X150403138Y-79283138I11J-1854404D01*
G01*
X149542504Y-83502504D02*
G75*
G02*
X148775987Y-83820000I-766504J766504D01*
G01*
X154940006Y-76835000D02*
G75*
G02*
X154490986Y-77919011I-1533006J0D01*
G01*
X139915000Y-89965000D02*
G75*
G02*
X139700000Y-89750000I0J215000D01*
G01*
X141155993Y-88079018D02*
G75*
G02*
X142240000Y-87630000I1084007J-1083982D01*
G01*
X149859996Y-80594389D02*
G75*
G02*
X150403138Y-79283138I1854404J-11D01*
G01*
X139700012Y-89750000D02*
G75*
G02*
X139852027Y-89382971I519088J0D01*
G01*
%TO.N,Net-(R1-Pad1)*%
X156398453Y-89981546D02*
X157559491Y-88820508D01*
X156017500Y-90901250D02*
X156017500Y-91440000D01*
X158617500Y-86266250D02*
X158617500Y-84770000D01*
X158617524Y-86266250D02*
G75*
G02*
X157559490Y-88820507I-3612324J50D01*
G01*
X156017548Y-90901250D02*
G75*
G02*
X156398454Y-89981547I1300652J50D01*
G01*
%TO.N,+5V*%
X162138932Y-80858932D02*
X160661858Y-82336005D01*
D26*
X160097038Y-78817038D02*
X162138932Y-80858932D01*
X134620000Y-78811845D02*
X134620000Y-82550000D01*
X134620000Y-78922154D02*
X134620000Y-78811845D01*
D27*
X134753154Y-78945000D02*
X142240000Y-78945000D01*
D26*
X134620000Y-74558025D02*
X134620000Y-78811845D01*
D25*
X159372682Y-82870000D02*
X158617500Y-82870000D01*
D26*
X133073500Y-92710000D02*
X132797000Y-92710000D01*
X158750000Y-74558025D02*
X158750000Y-75565000D01*
X134620000Y-90541974D02*
X134620000Y-82550000D01*
X156581974Y-72390000D02*
X136788025Y-72390000D01*
X163265000Y-83577500D02*
X163265000Y-85170000D01*
X133545515Y-92514484D02*
X133984999Y-92074999D01*
D27*
X142240000Y-78945000D02*
X142240000Y-85382500D01*
X134753154Y-78945018D02*
G75*
G02*
X134659001Y-78905999I46J133218D01*
G01*
D26*
X158750007Y-75565000D02*
G75*
G03*
X160097038Y-78817038I4599093J0D01*
G01*
X133073500Y-92710008D02*
G75*
G03*
X133545515Y-92514484I0J667508D01*
G01*
X136788025Y-72390011D02*
G75*
G03*
X135255000Y-73025000I-25J-2167989D01*
G01*
X135254992Y-73024992D02*
G75*
G03*
X134620000Y-74558025I1533008J-1533008D01*
G01*
X158115008Y-73024992D02*
G75*
G03*
X156581974Y-72390000I-1533008J-1533008D01*
G01*
X134619952Y-78811845D02*
G75*
G03*
X134659000Y-78906000I133148J45D01*
G01*
X133985008Y-92075008D02*
G75*
G03*
X134620000Y-90541974I-1533008J1533008D01*
G01*
D27*
X134619890Y-78922154D02*
G75*
G02*
X134659000Y-78906000I22910J-46D01*
G01*
D26*
X158749989Y-74558025D02*
G75*
G03*
X158115000Y-73025000I-2167989J25D01*
G01*
D25*
X159372682Y-82869977D02*
G75*
G03*
X160661857Y-82336004I18J1823177D01*
G01*
D26*
X163265010Y-83577500D02*
G75*
G03*
X162138932Y-80858932I-3844610J0D01*
G01*
D25*
%TO.N,Net-(C6-Pad1)*%
X144392500Y-99737500D02*
X144586250Y-99931250D01*
X141680000Y-99350000D02*
X135180000Y-99350000D01*
X146152500Y-100125000D02*
X145054003Y-100125000D01*
X153670000Y-91726036D02*
X153670000Y-84597038D01*
X152717500Y-82297500D02*
X151765000Y-81345000D01*
X152076207Y-95573792D02*
X148495503Y-99154495D01*
X143456992Y-99350000D02*
X141680000Y-99350000D01*
X153669984Y-84597038D02*
G75*
G03*
X152717500Y-82297500I-3251984J38D01*
G01*
X145054003Y-100124998D02*
G75*
G02*
X144586250Y-99931250I-3J661498D01*
G01*
X153670010Y-91726036D02*
G75*
G02*
X152076207Y-95573792I-5441610J36D01*
G01*
X148495502Y-99154494D02*
G75*
G02*
X146152500Y-100125000I-2343002J2342994D01*
G01*
X144392502Y-99737498D02*
G75*
G03*
X143456992Y-99350000I-935502J-935502D01*
G01*
%TO.N,Net-(U2-Pad6)*%
X151315987Y-79824012D02*
X150742487Y-80397512D01*
X155237356Y-83482356D02*
X154940000Y-83185000D01*
X154305000Y-81651974D02*
X154305000Y-81543025D01*
X150495000Y-80995000D02*
X150495000Y-81345000D01*
X156052500Y-83820000D02*
X156530000Y-83820000D01*
X153670000Y-80010000D02*
X153484012Y-79824012D01*
X153484007Y-79824017D02*
G75*
G03*
X152400000Y-79375000I-1084007J-1083983D01*
G01*
X153670008Y-80009992D02*
G75*
G02*
X154305000Y-81543025I-1533008J-1533008D01*
G01*
X152400000Y-79374992D02*
G75*
G03*
X151315987Y-79824012I0J-1533008D01*
G01*
X154939992Y-83185008D02*
G75*
G02*
X154305000Y-81651974I1533008J1533008D01*
G01*
X150495007Y-80995000D02*
G75*
G02*
X150742487Y-80397512I844993J0D01*
G01*
X155237353Y-83482359D02*
G75*
G03*
X156052500Y-83820000I815147J815159D01*
G01*
%TO.N,SWDIO*%
X149225000Y-79824012D02*
X149225000Y-81345000D01*
X149860000Y-78290987D02*
X149860000Y-76200000D01*
X149542496Y-79057496D02*
G75*
G03*
X149225000Y-79824012I766504J-766504D01*
G01*
X149859994Y-78290987D02*
G75*
G02*
X149542500Y-79057500I-1083994J-13D01*
G01*
%TO.N,SWCLK*%
X147955000Y-79824012D02*
X147955000Y-81345000D01*
X147320000Y-78290987D02*
X147320000Y-76200000D01*
X147954994Y-79824012D02*
G75*
G03*
X147637500Y-79057500I-1083994J12D01*
G01*
X147320006Y-78290987D02*
G75*
G03*
X147637500Y-79057500I1083994J-13D01*
G01*
%TO.N,Net-(J2-Pad2)*%
X159010559Y-91179440D02*
X162339029Y-87850970D01*
X163225000Y-87670000D02*
X163265000Y-87710000D01*
X158942500Y-91343750D02*
X158942500Y-91440000D01*
X163128431Y-87630000D02*
X162872500Y-87630000D01*
X158942544Y-91343750D02*
G75*
G02*
X159010559Y-91179440I232356J50D01*
G01*
X163224991Y-87670009D02*
G75*
G03*
X163128431Y-87630000I-96591J-96591D01*
G01*
X162339038Y-87850979D02*
G75*
G02*
X162872500Y-87630000I533462J-533421D01*
G01*
%TD*%
%TA.AperFunction,Conductor*%
%TO.N,SWDIO*%
G36*
X149868433Y-75783769D02*
G01*
X150619057Y-76564326D01*
X150622322Y-76572665D01*
X150620898Y-76578034D01*
X150538775Y-76728744D01*
X150538218Y-76729663D01*
X150450317Y-76860713D01*
X150449850Y-76861357D01*
X150387827Y-76941073D01*
X150362451Y-76973688D01*
X150362213Y-76973984D01*
X150277832Y-77075455D01*
X150199195Y-77173741D01*
X150129021Y-77276548D01*
X150069914Y-77391726D01*
X150024473Y-77527127D01*
X149995302Y-77690601D01*
X149995283Y-77690969D01*
X149985573Y-77878904D01*
X149981724Y-77886989D01*
X149973889Y-77890000D01*
X149746111Y-77890000D01*
X149737838Y-77886573D01*
X149734427Y-77878904D01*
X149724716Y-77690969D01*
X149724697Y-77690601D01*
X149695526Y-77527127D01*
X149650085Y-77391726D01*
X149590978Y-77276548D01*
X149520804Y-77173741D01*
X149442167Y-77075455D01*
X149357786Y-76973984D01*
X149357548Y-76973688D01*
X149332172Y-76941073D01*
X149270149Y-76861357D01*
X149269682Y-76860713D01*
X149181781Y-76729663D01*
X149181224Y-76728744D01*
X149099102Y-76578034D01*
X149098153Y-76569130D01*
X149100943Y-76564326D01*
X149851567Y-75783769D01*
X149859771Y-75780181D01*
X149868433Y-75783769D01*
G37*
%TD.AperFunction*%
%TD*%
%TA.AperFunction,Conductor*%
%TO.N,SWCLK*%
G36*
X147328433Y-75783769D02*
G01*
X148079057Y-76564326D01*
X148082322Y-76572665D01*
X148080898Y-76578034D01*
X147998775Y-76728744D01*
X147998218Y-76729663D01*
X147910317Y-76860713D01*
X147909850Y-76861357D01*
X147847827Y-76941073D01*
X147822451Y-76973688D01*
X147822213Y-76973984D01*
X147737832Y-77075455D01*
X147659195Y-77173741D01*
X147589021Y-77276548D01*
X147529914Y-77391726D01*
X147484473Y-77527127D01*
X147455302Y-77690601D01*
X147455283Y-77690969D01*
X147445573Y-77878904D01*
X147441724Y-77886989D01*
X147433889Y-77890000D01*
X147206111Y-77890000D01*
X147197838Y-77886573D01*
X147194427Y-77878904D01*
X147184716Y-77690969D01*
X147184697Y-77690601D01*
X147155526Y-77527127D01*
X147110085Y-77391726D01*
X147050978Y-77276548D01*
X146980804Y-77173741D01*
X146902167Y-77075455D01*
X146817786Y-76973984D01*
X146817548Y-76973688D01*
X146792172Y-76941073D01*
X146730149Y-76861357D01*
X146729682Y-76860713D01*
X146641781Y-76729663D01*
X146641224Y-76728744D01*
X146559102Y-76578034D01*
X146558153Y-76569130D01*
X146560943Y-76564326D01*
X147311567Y-75783769D01*
X147319771Y-75780181D01*
X147328433Y-75783769D01*
G37*
%TD.AperFunction*%
%TD*%
%TA.AperFunction,Conductor*%
%TO.N,+3V3*%
G36*
X154977381Y-75786282D02*
G01*
X154978562Y-75787842D01*
X155583082Y-76743289D01*
X155584610Y-76752113D01*
X155582171Y-76757049D01*
X155472241Y-76888486D01*
X155472190Y-76888549D01*
X155472177Y-76888565D01*
X155375982Y-77007741D01*
X155293661Y-77113445D01*
X155220072Y-77210774D01*
X155150017Y-77304894D01*
X155150007Y-77304907D01*
X155078259Y-77401019D01*
X155078191Y-77401108D01*
X154999725Y-77504153D01*
X154999621Y-77504289D01*
X154908913Y-77619857D01*
X154908793Y-77620006D01*
X154800912Y-77752924D01*
X154800796Y-77753065D01*
X154677864Y-77899777D01*
X154669924Y-77903918D01*
X154661318Y-77901178D01*
X154487921Y-77753789D01*
X154483837Y-77745819D01*
X154485908Y-77738173D01*
X154576240Y-77608897D01*
X154576658Y-77608299D01*
X154576914Y-77607620D01*
X154576916Y-77607616D01*
X154623902Y-77482966D01*
X154623902Y-77482965D01*
X154624223Y-77482114D01*
X154630166Y-77364956D01*
X154629954Y-77364111D01*
X154602303Y-77254058D01*
X154602302Y-77254054D01*
X154602148Y-77253443D01*
X154547831Y-77144191D01*
X154527509Y-77113445D01*
X154474939Y-77033913D01*
X154474875Y-77033816D01*
X154391012Y-76919028D01*
X154390922Y-76918904D01*
X154303910Y-76796467D01*
X154303496Y-76795843D01*
X154221124Y-76662658D01*
X154220514Y-76661539D01*
X154153658Y-76521314D01*
X154153191Y-76512372D01*
X154156403Y-76507573D01*
X154960859Y-75785392D01*
X154969305Y-75782415D01*
X154977381Y-75786282D01*
G37*
%TD.AperFunction*%
%TD*%
%TA.AperFunction,Conductor*%
%TO.N,Net-(J2-Pad2)*%
G36*
X162671691Y-87112792D02*
G01*
X163666767Y-87605955D01*
X163672658Y-87612699D01*
X163672055Y-87621633D01*
X163671412Y-87622768D01*
X163086004Y-88532690D01*
X163078645Y-88537794D01*
X163073059Y-88537640D01*
X162933453Y-88499210D01*
X162932541Y-88498919D01*
X162797909Y-88449710D01*
X162797437Y-88449525D01*
X162672893Y-88397777D01*
X162556204Y-88349802D01*
X162556034Y-88349732D01*
X162555878Y-88349679D01*
X162555868Y-88349675D01*
X162469305Y-88320150D01*
X162444540Y-88311703D01*
X162444170Y-88311629D01*
X162444167Y-88311628D01*
X162406458Y-88304064D01*
X162335843Y-88289899D01*
X162335249Y-88289902D01*
X162335244Y-88289902D01*
X162268200Y-88290292D01*
X162227376Y-88290529D01*
X162116569Y-88319801D01*
X162000855Y-88383925D01*
X162000405Y-88384310D01*
X162000404Y-88384310D01*
X161885889Y-88482088D01*
X161877372Y-88484854D01*
X161870019Y-88481463D01*
X161708978Y-88320422D01*
X161705551Y-88312149D01*
X161708794Y-88304065D01*
X161847285Y-88159208D01*
X161964122Y-88024108D01*
X161964222Y-88023980D01*
X162058218Y-87903125D01*
X162058228Y-87903112D01*
X162058310Y-87903006D01*
X162136760Y-87791875D01*
X162206382Y-87686688D01*
X162274012Y-87583533D01*
X162274166Y-87583304D01*
X162346640Y-87478250D01*
X162346950Y-87477822D01*
X162431200Y-87366771D01*
X162431606Y-87366266D01*
X162534601Y-87245083D01*
X162535036Y-87244599D01*
X162658016Y-87115214D01*
X162666199Y-87111579D01*
X162671691Y-87112792D01*
G37*
%TD.AperFunction*%
%TD*%
%TA.AperFunction,Conductor*%
%TO.N,GNDD*%
G36*
X169613621Y-69108502D02*
G01*
X169660114Y-69162158D01*
X169671500Y-69214500D01*
X169671500Y-106045500D01*
X169651498Y-106113621D01*
X169597842Y-106160114D01*
X169545500Y-106171500D01*
X122554500Y-106171500D01*
X122486379Y-106151498D01*
X122439886Y-106097842D01*
X122428500Y-106045500D01*
X122428500Y-101600000D01*
X123286411Y-101600000D01*
X123306754Y-101988176D01*
X123307267Y-101991416D01*
X123307268Y-101991424D01*
X123309442Y-102005149D01*
X123367562Y-102372099D01*
X123468167Y-102747562D01*
X123469352Y-102750650D01*
X123469353Y-102750652D01*
X123491157Y-102807452D01*
X123607468Y-103110453D01*
X123608966Y-103113393D01*
X123748571Y-103387382D01*
X123783938Y-103456794D01*
X123785734Y-103459560D01*
X123785736Y-103459563D01*
X123993848Y-103780029D01*
X123995643Y-103782793D01*
X124240266Y-104084876D01*
X124515124Y-104359734D01*
X124817207Y-104604357D01*
X125143205Y-104816062D01*
X125146139Y-104817557D01*
X125146146Y-104817561D01*
X125486607Y-104991034D01*
X125489547Y-104992532D01*
X125852438Y-105131833D01*
X126227901Y-105232438D01*
X126431793Y-105264732D01*
X126608576Y-105292732D01*
X126608584Y-105292733D01*
X126611824Y-105293246D01*
X127000000Y-105313589D01*
X127388176Y-105293246D01*
X127391416Y-105292733D01*
X127391424Y-105292732D01*
X127568207Y-105264732D01*
X127772099Y-105232438D01*
X128147562Y-105131833D01*
X128275636Y-105082670D01*
X134312160Y-105082670D01*
X134317887Y-105090320D01*
X134489042Y-105195205D01*
X134497837Y-105199687D01*
X134707988Y-105286734D01*
X134717373Y-105289783D01*
X134938554Y-105342885D01*
X134948301Y-105344428D01*
X135175070Y-105362275D01*
X135184930Y-105362275D01*
X135411699Y-105344428D01*
X135421446Y-105342885D01*
X135642627Y-105289783D01*
X135652012Y-105286734D01*
X135862163Y-105199687D01*
X135870958Y-105195205D01*
X136038445Y-105092568D01*
X136047400Y-105082670D01*
X140812160Y-105082670D01*
X140817887Y-105090320D01*
X140989042Y-105195205D01*
X140997837Y-105199687D01*
X141207988Y-105286734D01*
X141217373Y-105289783D01*
X141438554Y-105342885D01*
X141448301Y-105344428D01*
X141675070Y-105362275D01*
X141684930Y-105362275D01*
X141911699Y-105344428D01*
X141921446Y-105342885D01*
X142142627Y-105289783D01*
X142152012Y-105286734D01*
X142362163Y-105199687D01*
X142370958Y-105195205D01*
X142538445Y-105092568D01*
X142547907Y-105082110D01*
X142544124Y-105073334D01*
X141692812Y-104222022D01*
X141678868Y-104214408D01*
X141677035Y-104214539D01*
X141670420Y-104218790D01*
X140818920Y-105070290D01*
X140812160Y-105082670D01*
X136047400Y-105082670D01*
X136047907Y-105082110D01*
X136044124Y-105073334D01*
X135192812Y-104222022D01*
X135178868Y-104214408D01*
X135177035Y-104214539D01*
X135170420Y-104218790D01*
X134318920Y-105070290D01*
X134312160Y-105082670D01*
X128275636Y-105082670D01*
X128510453Y-104992532D01*
X128513393Y-104991034D01*
X128853854Y-104817561D01*
X128853861Y-104817557D01*
X128856795Y-104816062D01*
X129182793Y-104604357D01*
X129484876Y-104359734D01*
X129759734Y-104084876D01*
X129945941Y-103854930D01*
X133667725Y-103854930D01*
X133685572Y-104081699D01*
X133687115Y-104091446D01*
X133740217Y-104312627D01*
X133743266Y-104322012D01*
X133830313Y-104532163D01*
X133834795Y-104540958D01*
X133937432Y-104708445D01*
X133947890Y-104717907D01*
X133956666Y-104714124D01*
X134807978Y-103862812D01*
X134814356Y-103851132D01*
X135544408Y-103851132D01*
X135544539Y-103852965D01*
X135548790Y-103859580D01*
X136400290Y-104711080D01*
X136412670Y-104717840D01*
X136420320Y-104712113D01*
X136525205Y-104540958D01*
X136529687Y-104532163D01*
X136616734Y-104322012D01*
X136619783Y-104312627D01*
X136672885Y-104091446D01*
X136674428Y-104081699D01*
X136692275Y-103854930D01*
X140167725Y-103854930D01*
X140185572Y-104081699D01*
X140187115Y-104091446D01*
X140240217Y-104312627D01*
X140243266Y-104322012D01*
X140330313Y-104532163D01*
X140334795Y-104540958D01*
X140437432Y-104708445D01*
X140447890Y-104717907D01*
X140456666Y-104714124D01*
X141307978Y-103862812D01*
X141314356Y-103851132D01*
X142044408Y-103851132D01*
X142044539Y-103852965D01*
X142048790Y-103859580D01*
X142900290Y-104711080D01*
X142912670Y-104717840D01*
X142920320Y-104712113D01*
X143025205Y-104540958D01*
X143029687Y-104532163D01*
X143116734Y-104322012D01*
X143119783Y-104312627D01*
X143172885Y-104091446D01*
X143174428Y-104081699D01*
X143192275Y-103854930D01*
X143192275Y-103845070D01*
X143184441Y-103745532D01*
X143199037Y-103676052D01*
X143248879Y-103625493D01*
X143318144Y-103609906D01*
X143384840Y-103634241D01*
X143429576Y-103695769D01*
X143436586Y-103716779D01*
X143442761Y-103729962D01*
X143528063Y-103867807D01*
X143537099Y-103879208D01*
X143651829Y-103993739D01*
X143663240Y-104002751D01*
X143801243Y-104087816D01*
X143814424Y-104093963D01*
X143968710Y-104145138D01*
X143982086Y-104148005D01*
X144076438Y-104157672D01*
X144082854Y-104158000D01*
X144507885Y-104158000D01*
X144523124Y-104153525D01*
X144524329Y-104152135D01*
X144526000Y-104144452D01*
X144526000Y-104139884D01*
X145034000Y-104139884D01*
X145038475Y-104155123D01*
X145039865Y-104156328D01*
X145047548Y-104157999D01*
X145477095Y-104157999D01*
X145483614Y-104157662D01*
X145579206Y-104147743D01*
X145592600Y-104144851D01*
X145746784Y-104093412D01*
X145759962Y-104087239D01*
X145897807Y-104001937D01*
X145909208Y-103992901D01*
X146023739Y-103878171D01*
X146032751Y-103866760D01*
X146117816Y-103728757D01*
X146123963Y-103715576D01*
X146175138Y-103561290D01*
X146178005Y-103547914D01*
X146187672Y-103453562D01*
X146188000Y-103447146D01*
X146188000Y-103347115D01*
X146183525Y-103331876D01*
X146182135Y-103330671D01*
X146174452Y-103329000D01*
X145052115Y-103329000D01*
X145036876Y-103333475D01*
X145035671Y-103334865D01*
X145034000Y-103342548D01*
X145034000Y-104139884D01*
X144526000Y-104139884D01*
X144526000Y-103347115D01*
X144521525Y-103331876D01*
X144520135Y-103330671D01*
X144512452Y-103329000D01*
X143390116Y-103329000D01*
X143374877Y-103333475D01*
X143373672Y-103334865D01*
X143372001Y-103342548D01*
X143372001Y-103373365D01*
X143351999Y-103441486D01*
X143298343Y-103487979D01*
X143228069Y-103498083D01*
X143163489Y-103468589D01*
X143123483Y-103402780D01*
X143119786Y-103387382D01*
X143116734Y-103377988D01*
X143029687Y-103167837D01*
X143025205Y-103159042D01*
X142922568Y-102991555D01*
X142912110Y-102982093D01*
X142903334Y-102985876D01*
X142052022Y-103837188D01*
X142044408Y-103851132D01*
X141314356Y-103851132D01*
X141315592Y-103848868D01*
X141315461Y-103847035D01*
X141311210Y-103840420D01*
X140459710Y-102988920D01*
X140447330Y-102982160D01*
X140439680Y-102987887D01*
X140334795Y-103159042D01*
X140330313Y-103167837D01*
X140243266Y-103377988D01*
X140240217Y-103387373D01*
X140187115Y-103608554D01*
X140185572Y-103618301D01*
X140167725Y-103845070D01*
X140167725Y-103854930D01*
X136692275Y-103854930D01*
X136692275Y-103845070D01*
X136674428Y-103618301D01*
X136672885Y-103608554D01*
X136619783Y-103387373D01*
X136616734Y-103377988D01*
X136529687Y-103167837D01*
X136525205Y-103159042D01*
X136422568Y-102991555D01*
X136412110Y-102982093D01*
X136403334Y-102985876D01*
X135552022Y-103837188D01*
X135544408Y-103851132D01*
X134814356Y-103851132D01*
X134815592Y-103848868D01*
X134815461Y-103847035D01*
X134811210Y-103840420D01*
X133959710Y-102988920D01*
X133947330Y-102982160D01*
X133939680Y-102987887D01*
X133834795Y-103159042D01*
X133830313Y-103167837D01*
X133743266Y-103377988D01*
X133740217Y-103387373D01*
X133687115Y-103608554D01*
X133685572Y-103618301D01*
X133667725Y-103845070D01*
X133667725Y-103854930D01*
X129945941Y-103854930D01*
X130004357Y-103782793D01*
X130006152Y-103780029D01*
X130214264Y-103459563D01*
X130214266Y-103459560D01*
X130216062Y-103456794D01*
X130251430Y-103387382D01*
X130391034Y-103113393D01*
X130392532Y-103110453D01*
X130508843Y-102807452D01*
X130530647Y-102750652D01*
X130530648Y-102750650D01*
X130531833Y-102747562D01*
X130566579Y-102617890D01*
X134312093Y-102617890D01*
X134315876Y-102626666D01*
X135167188Y-103477978D01*
X135181132Y-103485592D01*
X135182965Y-103485461D01*
X135189580Y-103481210D01*
X136041080Y-102629710D01*
X136047534Y-102617890D01*
X140812093Y-102617890D01*
X140815876Y-102626666D01*
X141667188Y-103477978D01*
X141681132Y-103485592D01*
X141682965Y-103485461D01*
X141689580Y-103481210D01*
X142367905Y-102802885D01*
X143372000Y-102802885D01*
X143376475Y-102818124D01*
X143377865Y-102819329D01*
X143385548Y-102821000D01*
X144507885Y-102821000D01*
X144523124Y-102816525D01*
X144524329Y-102815135D01*
X144526000Y-102807452D01*
X144526000Y-102802885D01*
X145034000Y-102802885D01*
X145038475Y-102818124D01*
X145039865Y-102819329D01*
X145047548Y-102821000D01*
X146169884Y-102821000D01*
X146185123Y-102816525D01*
X146186328Y-102815135D01*
X146187999Y-102807452D01*
X146187999Y-102702905D01*
X146187662Y-102696386D01*
X146177743Y-102600794D01*
X146174851Y-102587400D01*
X146123412Y-102433216D01*
X146117239Y-102420038D01*
X146031937Y-102282193D01*
X146022901Y-102270792D01*
X145908171Y-102156261D01*
X145896760Y-102147249D01*
X145758757Y-102062184D01*
X145745576Y-102056037D01*
X145591290Y-102004862D01*
X145577914Y-102001995D01*
X145483562Y-101992328D01*
X145477145Y-101992000D01*
X145052115Y-101992000D01*
X145036876Y-101996475D01*
X145035671Y-101997865D01*
X145034000Y-102005548D01*
X145034000Y-102802885D01*
X144526000Y-102802885D01*
X144526000Y-102010116D01*
X144521525Y-101994877D01*
X144520135Y-101993672D01*
X144512452Y-101992001D01*
X144082905Y-101992001D01*
X144076386Y-101992338D01*
X143980794Y-102002257D01*
X143967400Y-102005149D01*
X143813216Y-102056588D01*
X143800038Y-102062761D01*
X143662193Y-102148063D01*
X143650792Y-102157099D01*
X143536261Y-102271829D01*
X143527249Y-102283240D01*
X143442184Y-102421243D01*
X143436037Y-102434424D01*
X143384862Y-102588710D01*
X143381995Y-102602086D01*
X143372328Y-102696438D01*
X143372000Y-102702855D01*
X143372000Y-102802885D01*
X142367905Y-102802885D01*
X142541080Y-102629710D01*
X142547840Y-102617330D01*
X142542113Y-102609680D01*
X142370958Y-102504795D01*
X142362163Y-102500313D01*
X142152012Y-102413266D01*
X142142627Y-102410217D01*
X141921446Y-102357115D01*
X141911699Y-102355572D01*
X141684930Y-102337725D01*
X141675070Y-102337725D01*
X141448301Y-102355572D01*
X141438554Y-102357115D01*
X141217373Y-102410217D01*
X141207988Y-102413266D01*
X140997837Y-102500313D01*
X140989042Y-102504795D01*
X140821555Y-102607432D01*
X140812093Y-102617890D01*
X136047534Y-102617890D01*
X136047840Y-102617330D01*
X136042113Y-102609680D01*
X135870958Y-102504795D01*
X135862163Y-102500313D01*
X135652012Y-102413266D01*
X135642627Y-102410217D01*
X135421446Y-102357115D01*
X135411699Y-102355572D01*
X135184930Y-102337725D01*
X135175070Y-102337725D01*
X134948301Y-102355572D01*
X134938554Y-102357115D01*
X134717373Y-102410217D01*
X134707988Y-102413266D01*
X134497837Y-102500313D01*
X134489042Y-102504795D01*
X134321555Y-102607432D01*
X134312093Y-102617890D01*
X130566579Y-102617890D01*
X130632438Y-102372099D01*
X130690558Y-102005149D01*
X130692732Y-101991424D01*
X130692733Y-101991416D01*
X130693246Y-101988176D01*
X130713589Y-101600000D01*
X161386411Y-101600000D01*
X161406754Y-101988176D01*
X161407267Y-101991416D01*
X161407268Y-101991424D01*
X161409442Y-102005149D01*
X161467562Y-102372099D01*
X161568167Y-102747562D01*
X161569352Y-102750650D01*
X161569353Y-102750652D01*
X161591157Y-102807452D01*
X161707468Y-103110453D01*
X161708966Y-103113393D01*
X161848571Y-103387382D01*
X161883938Y-103456794D01*
X161885734Y-103459560D01*
X161885736Y-103459563D01*
X162093848Y-103780029D01*
X162095643Y-103782793D01*
X162340266Y-104084876D01*
X162615124Y-104359734D01*
X162917207Y-104604357D01*
X163243205Y-104816062D01*
X163246139Y-104817557D01*
X163246146Y-104817561D01*
X163586607Y-104991034D01*
X163589547Y-104992532D01*
X163952438Y-105131833D01*
X164327901Y-105232438D01*
X164531793Y-105264732D01*
X164708576Y-105292732D01*
X164708584Y-105292733D01*
X164711824Y-105293246D01*
X165100000Y-105313589D01*
X165488176Y-105293246D01*
X165491416Y-105292733D01*
X165491424Y-105292732D01*
X165668207Y-105264732D01*
X165872099Y-105232438D01*
X166247562Y-105131833D01*
X166610453Y-104992532D01*
X166613393Y-104991034D01*
X166953854Y-104817561D01*
X166953861Y-104817557D01*
X166956795Y-104816062D01*
X167282793Y-104604357D01*
X167584876Y-104359734D01*
X167859734Y-104084876D01*
X168104357Y-103782793D01*
X168106152Y-103780029D01*
X168314264Y-103459563D01*
X168314266Y-103459560D01*
X168316062Y-103456794D01*
X168351430Y-103387382D01*
X168491034Y-103113393D01*
X168492532Y-103110453D01*
X168608843Y-102807452D01*
X168630647Y-102750652D01*
X168630648Y-102750650D01*
X168631833Y-102747562D01*
X168732438Y-102372099D01*
X168790558Y-102005149D01*
X168792732Y-101991424D01*
X168792733Y-101991416D01*
X168793246Y-101988176D01*
X168813589Y-101600000D01*
X168793246Y-101211824D01*
X168792667Y-101208163D01*
X168738023Y-100863165D01*
X168732438Y-100827901D01*
X168631833Y-100452438D01*
X168612349Y-100401679D01*
X168547014Y-100231478D01*
X168492532Y-100089547D01*
X168465739Y-100036963D01*
X168317561Y-99746147D01*
X168317557Y-99746140D01*
X168316062Y-99743206D01*
X168235793Y-99619601D01*
X168106152Y-99419971D01*
X168106152Y-99419970D01*
X168104357Y-99417207D01*
X167859734Y-99115124D01*
X167584876Y-98840266D01*
X167564496Y-98823762D01*
X167426040Y-98711643D01*
X167282793Y-98595643D01*
X167265485Y-98584403D01*
X166959564Y-98385736D01*
X166959561Y-98385734D01*
X166956795Y-98383938D01*
X166953861Y-98382443D01*
X166953854Y-98382439D01*
X166613393Y-98208966D01*
X166610453Y-98207468D01*
X166247562Y-98068167D01*
X165872099Y-97967562D01*
X165668207Y-97935268D01*
X165491424Y-97907268D01*
X165491416Y-97907267D01*
X165488176Y-97906754D01*
X165100000Y-97886411D01*
X164711824Y-97906754D01*
X164708584Y-97907267D01*
X164708576Y-97907268D01*
X164531793Y-97935268D01*
X164327901Y-97967562D01*
X163952438Y-98068167D01*
X163589547Y-98207468D01*
X163586607Y-98208966D01*
X163246147Y-98382439D01*
X163246140Y-98382443D01*
X163243206Y-98383938D01*
X163240440Y-98385734D01*
X163240437Y-98385736D01*
X162983021Y-98552903D01*
X162917207Y-98595643D01*
X162773960Y-98711643D01*
X162635505Y-98823762D01*
X162615124Y-98840266D01*
X162340266Y-99115124D01*
X162095643Y-99417207D01*
X162093848Y-99419970D01*
X162093848Y-99419971D01*
X161964208Y-99619601D01*
X161883938Y-99743206D01*
X161882443Y-99746140D01*
X161882439Y-99746147D01*
X161734261Y-100036963D01*
X161707468Y-100089547D01*
X161652986Y-100231478D01*
X161587652Y-100401679D01*
X161568167Y-100452438D01*
X161467562Y-100827901D01*
X161461977Y-100863165D01*
X161407334Y-101208163D01*
X161406754Y-101211824D01*
X161386411Y-101600000D01*
X130713589Y-101600000D01*
X130693246Y-101211824D01*
X130692667Y-101208163D01*
X130638023Y-100863165D01*
X130632438Y-100827901D01*
X130531833Y-100452438D01*
X130512349Y-100401679D01*
X130447014Y-100231478D01*
X130392532Y-100089547D01*
X130365739Y-100036963D01*
X130217561Y-99746147D01*
X130217557Y-99746140D01*
X130216062Y-99743206D01*
X130135793Y-99619601D01*
X130006152Y-99419971D01*
X130006152Y-99419970D01*
X130004357Y-99417207D01*
X129759734Y-99115124D01*
X129484876Y-98840266D01*
X129464496Y-98823762D01*
X129326040Y-98711643D01*
X129182793Y-98595643D01*
X129165485Y-98584403D01*
X128859564Y-98385736D01*
X128859561Y-98385734D01*
X128856795Y-98383938D01*
X128853861Y-98382443D01*
X128853854Y-98382439D01*
X128513393Y-98208966D01*
X128510453Y-98207468D01*
X128147562Y-98068167D01*
X127772099Y-97967562D01*
X127568207Y-97935268D01*
X127391424Y-97907268D01*
X127391416Y-97907267D01*
X127388176Y-97906754D01*
X127000000Y-97886411D01*
X126611824Y-97906754D01*
X126608584Y-97907267D01*
X126608576Y-97907268D01*
X126431793Y-97935268D01*
X126227901Y-97967562D01*
X125852438Y-98068167D01*
X125489547Y-98207468D01*
X125486607Y-98208966D01*
X125146147Y-98382439D01*
X125146140Y-98382443D01*
X125143206Y-98383938D01*
X125140440Y-98385734D01*
X125140437Y-98385736D01*
X124883021Y-98552903D01*
X124817207Y-98595643D01*
X124673960Y-98711643D01*
X124535505Y-98823762D01*
X124515124Y-98840266D01*
X124240266Y-99115124D01*
X123995643Y-99417207D01*
X123993848Y-99419970D01*
X123993848Y-99419971D01*
X123864208Y-99619601D01*
X123783938Y-99743206D01*
X123782443Y-99746140D01*
X123782439Y-99746147D01*
X123634261Y-100036963D01*
X123607468Y-100089547D01*
X123552986Y-100231478D01*
X123487652Y-100401679D01*
X123468167Y-100452438D01*
X123367562Y-100827901D01*
X123361977Y-100863165D01*
X123307334Y-101208163D01*
X123306754Y-101211824D01*
X123286411Y-101600000D01*
X122428500Y-101600000D01*
X122428500Y-94946419D01*
X128888500Y-94946419D01*
X128888501Y-95873580D01*
X128894743Y-95952904D01*
X128944171Y-96137371D01*
X129030871Y-96307530D01*
X129035024Y-96312659D01*
X129035027Y-96312663D01*
X129146900Y-96450814D01*
X129151055Y-96455945D01*
X129156186Y-96460100D01*
X129294337Y-96571973D01*
X129294341Y-96571976D01*
X129299470Y-96576129D01*
X129305347Y-96579124D01*
X129305351Y-96579126D01*
X129463064Y-96659484D01*
X129469629Y-96662829D01*
X129476002Y-96664537D01*
X129476003Y-96664537D01*
X129648519Y-96710763D01*
X129648523Y-96710764D01*
X129654096Y-96712257D01*
X129659852Y-96712710D01*
X129730963Y-96718307D01*
X129730970Y-96718307D01*
X129733419Y-96718500D01*
X130196812Y-96718500D01*
X130660580Y-96718499D01*
X130709947Y-96714614D01*
X130734150Y-96712710D01*
X130734152Y-96712710D01*
X130739904Y-96712257D01*
X130924371Y-96662829D01*
X130930936Y-96659484D01*
X131088649Y-96579126D01*
X131088653Y-96579124D01*
X131094530Y-96576129D01*
X131099659Y-96571976D01*
X131099663Y-96571973D01*
X131237814Y-96460100D01*
X131242945Y-96455945D01*
X131247100Y-96450814D01*
X131358973Y-96312663D01*
X131358976Y-96312659D01*
X131363129Y-96307530D01*
X131449829Y-96137371D01*
X131470581Y-96059925D01*
X131497763Y-95958481D01*
X131497764Y-95958477D01*
X131499257Y-95952904D01*
X131500023Y-95943175D01*
X131505307Y-95876037D01*
X131505307Y-95876030D01*
X131505500Y-95873581D01*
X131505499Y-94946420D01*
X131499257Y-94867096D01*
X131449829Y-94682629D01*
X131426752Y-94637337D01*
X131366126Y-94518351D01*
X131366124Y-94518347D01*
X131363129Y-94512470D01*
X131358976Y-94507341D01*
X131358973Y-94507337D01*
X131247100Y-94369186D01*
X131242945Y-94364055D01*
X131106194Y-94253316D01*
X131099663Y-94248027D01*
X131099659Y-94248024D01*
X131094530Y-94243871D01*
X131088653Y-94240876D01*
X131088649Y-94240874D01*
X130930251Y-94160167D01*
X130924371Y-94157171D01*
X130917997Y-94155463D01*
X130745481Y-94109237D01*
X130745477Y-94109236D01*
X130739904Y-94107743D01*
X130730175Y-94106977D01*
X130663037Y-94101693D01*
X130663030Y-94101693D01*
X130660581Y-94101500D01*
X130197188Y-94101500D01*
X129733420Y-94101501D01*
X129684053Y-94105386D01*
X129659850Y-94107290D01*
X129659848Y-94107290D01*
X129654096Y-94107743D01*
X129469629Y-94157171D01*
X129463749Y-94160167D01*
X129305351Y-94240874D01*
X129305347Y-94240876D01*
X129299470Y-94243871D01*
X129294341Y-94248024D01*
X129294337Y-94248027D01*
X129287806Y-94253316D01*
X129151055Y-94364055D01*
X129146900Y-94369186D01*
X129035027Y-94507337D01*
X129035024Y-94507341D01*
X129030871Y-94512470D01*
X129027876Y-94518347D01*
X129027874Y-94518351D01*
X128967248Y-94637337D01*
X128944171Y-94682629D01*
X128942463Y-94689002D01*
X128942463Y-94689003D01*
X128898722Y-94852248D01*
X128894743Y-94867096D01*
X128894290Y-94872850D01*
X128894290Y-94872852D01*
X128888694Y-94943960D01*
X128888500Y-94946419D01*
X122428500Y-94946419D01*
X122428500Y-93171085D01*
X126489000Y-93171085D01*
X126489193Y-93176010D01*
X126494786Y-93247069D01*
X126496733Y-93258403D01*
X126542931Y-93430817D01*
X126547635Y-93443070D01*
X126628295Y-93601375D01*
X126635448Y-93612390D01*
X126747255Y-93750459D01*
X126756541Y-93759745D01*
X126894610Y-93871552D01*
X126905625Y-93878705D01*
X127063930Y-93959365D01*
X127076183Y-93964069D01*
X127248597Y-94010267D01*
X127259931Y-94012214D01*
X127330990Y-94017807D01*
X127335915Y-94018000D01*
X127524885Y-94018000D01*
X127540124Y-94013525D01*
X127541329Y-94012135D01*
X127543000Y-94004452D01*
X127543000Y-93999885D01*
X128051000Y-93999885D01*
X128055475Y-94015124D01*
X128056865Y-94016329D01*
X128064548Y-94018000D01*
X128258085Y-94018000D01*
X128263010Y-94017807D01*
X128334069Y-94012214D01*
X128345403Y-94010267D01*
X128517817Y-93964069D01*
X128530070Y-93959365D01*
X128688375Y-93878705D01*
X128699390Y-93871552D01*
X128837459Y-93759745D01*
X128846745Y-93750459D01*
X128958552Y-93612390D01*
X128965705Y-93601375D01*
X128987737Y-93558134D01*
X131488500Y-93558134D01*
X131495255Y-93620316D01*
X131546385Y-93756705D01*
X131633739Y-93873261D01*
X131750295Y-93960615D01*
X131886684Y-94011745D01*
X131948866Y-94018500D01*
X133645134Y-94018500D01*
X133707316Y-94011745D01*
X133843705Y-93960615D01*
X133960261Y-93873261D01*
X134047615Y-93756705D01*
X134057729Y-93729726D01*
X134105707Y-93669193D01*
X134245100Y-93576049D01*
X134245103Y-93576046D01*
X134248537Y-93573752D01*
X134251637Y-93571033D01*
X134251649Y-93571024D01*
X134311161Y-93518830D01*
X134325066Y-93508246D01*
X134326532Y-93507283D01*
X134330391Y-93504748D01*
X134373025Y-93466761D01*
X134387906Y-93451880D01*
X134393907Y-93446258D01*
X134414245Y-93428421D01*
X134416213Y-93426733D01*
X134438837Y-93407748D01*
X134470756Y-93369706D01*
X134478176Y-93361610D01*
X134552691Y-93287095D01*
X138292001Y-93287095D01*
X138292338Y-93293614D01*
X138302257Y-93389206D01*
X138305149Y-93402600D01*
X138356588Y-93556784D01*
X138362761Y-93569962D01*
X138448063Y-93707807D01*
X138457099Y-93719208D01*
X138571829Y-93833739D01*
X138583240Y-93842751D01*
X138721243Y-93927816D01*
X138734424Y-93933963D01*
X138888710Y-93985138D01*
X138902086Y-93988005D01*
X138996438Y-93997672D01*
X139002854Y-93998000D01*
X139427885Y-93998000D01*
X139443124Y-93993525D01*
X139444329Y-93992135D01*
X139446000Y-93984452D01*
X139446000Y-93979884D01*
X139954000Y-93979884D01*
X139958475Y-93995123D01*
X139959865Y-93996328D01*
X139967548Y-93997999D01*
X140397095Y-93997999D01*
X140403614Y-93997662D01*
X140499206Y-93987743D01*
X140512600Y-93984851D01*
X140666784Y-93933412D01*
X140679962Y-93927239D01*
X140817807Y-93841937D01*
X140829208Y-93832901D01*
X140943739Y-93718171D01*
X140952751Y-93706760D01*
X141037816Y-93568757D01*
X141043963Y-93555576D01*
X141095138Y-93401290D01*
X141098005Y-93387914D01*
X141107672Y-93293562D01*
X141108000Y-93287146D01*
X141108000Y-93287095D01*
X143372001Y-93287095D01*
X143372338Y-93293614D01*
X143382257Y-93389206D01*
X143385149Y-93402600D01*
X143436588Y-93556784D01*
X143442761Y-93569962D01*
X143528063Y-93707807D01*
X143537099Y-93719208D01*
X143651829Y-93833739D01*
X143663240Y-93842751D01*
X143801243Y-93927816D01*
X143814424Y-93933963D01*
X143968710Y-93985138D01*
X143982086Y-93988005D01*
X144076438Y-93997672D01*
X144082854Y-93998000D01*
X144507885Y-93998000D01*
X144523124Y-93993525D01*
X144524329Y-93992135D01*
X144526000Y-93984452D01*
X144526000Y-93979884D01*
X145034000Y-93979884D01*
X145038475Y-93995123D01*
X145039865Y-93996328D01*
X145047548Y-93997999D01*
X145477095Y-93997999D01*
X145483614Y-93997662D01*
X145579206Y-93987743D01*
X145592600Y-93984851D01*
X145746784Y-93933412D01*
X145759962Y-93927239D01*
X145897807Y-93841937D01*
X145909208Y-93832901D01*
X146023739Y-93718171D01*
X146032751Y-93706760D01*
X146117816Y-93568757D01*
X146123963Y-93555576D01*
X146175138Y-93401290D01*
X146178005Y-93387914D01*
X146187672Y-93293562D01*
X146188000Y-93287146D01*
X146188000Y-93287095D01*
X148452001Y-93287095D01*
X148452338Y-93293614D01*
X148462257Y-93389206D01*
X148465149Y-93402600D01*
X148516588Y-93556784D01*
X148522761Y-93569962D01*
X148608063Y-93707807D01*
X148617099Y-93719208D01*
X148731829Y-93833739D01*
X148743240Y-93842751D01*
X148881243Y-93927816D01*
X148894424Y-93933963D01*
X149048710Y-93985138D01*
X149062086Y-93988005D01*
X149156438Y-93997672D01*
X149162854Y-93998000D01*
X149587885Y-93998000D01*
X149603124Y-93993525D01*
X149604329Y-93992135D01*
X149606000Y-93984452D01*
X149606000Y-93979884D01*
X150114000Y-93979884D01*
X150118475Y-93995123D01*
X150119865Y-93996328D01*
X150127548Y-93997999D01*
X150557095Y-93997999D01*
X150563614Y-93997662D01*
X150659206Y-93987743D01*
X150672600Y-93984851D01*
X150826784Y-93933412D01*
X150839962Y-93927239D01*
X150977807Y-93841937D01*
X150989208Y-93832901D01*
X151103739Y-93718171D01*
X151112751Y-93706760D01*
X151197816Y-93568757D01*
X151203963Y-93555576D01*
X151255138Y-93401290D01*
X151258005Y-93387914D01*
X151267672Y-93293562D01*
X151268000Y-93287146D01*
X151268000Y-93187115D01*
X151263525Y-93171876D01*
X151262135Y-93170671D01*
X151254452Y-93169000D01*
X150132115Y-93169000D01*
X150116876Y-93173475D01*
X150115671Y-93174865D01*
X150114000Y-93182548D01*
X150114000Y-93979884D01*
X149606000Y-93979884D01*
X149606000Y-93187115D01*
X149601525Y-93171876D01*
X149600135Y-93170671D01*
X149592452Y-93169000D01*
X148470116Y-93169000D01*
X148454877Y-93173475D01*
X148453672Y-93174865D01*
X148452001Y-93182548D01*
X148452001Y-93287095D01*
X146188000Y-93287095D01*
X146188000Y-93187115D01*
X146183525Y-93171876D01*
X146182135Y-93170671D01*
X146174452Y-93169000D01*
X145052115Y-93169000D01*
X145036876Y-93173475D01*
X145035671Y-93174865D01*
X145034000Y-93182548D01*
X145034000Y-93979884D01*
X144526000Y-93979884D01*
X144526000Y-93187115D01*
X144521525Y-93171876D01*
X144520135Y-93170671D01*
X144512452Y-93169000D01*
X143390116Y-93169000D01*
X143374877Y-93173475D01*
X143373672Y-93174865D01*
X143372001Y-93182548D01*
X143372001Y-93287095D01*
X141108000Y-93287095D01*
X141108000Y-93187115D01*
X141103525Y-93171876D01*
X141102135Y-93170671D01*
X141094452Y-93169000D01*
X139972115Y-93169000D01*
X139956876Y-93173475D01*
X139955671Y-93174865D01*
X139954000Y-93182548D01*
X139954000Y-93979884D01*
X139446000Y-93979884D01*
X139446000Y-93187115D01*
X139441525Y-93171876D01*
X139440135Y-93170671D01*
X139432452Y-93169000D01*
X138310116Y-93169000D01*
X138294877Y-93173475D01*
X138293672Y-93174865D01*
X138292001Y-93182548D01*
X138292001Y-93287095D01*
X134552691Y-93287095D01*
X134832142Y-93007644D01*
X134840245Y-93000218D01*
X134874084Y-92971823D01*
X134878292Y-92968292D01*
X134887911Y-92956828D01*
X134891024Y-92953258D01*
X135103918Y-92718366D01*
X135141164Y-92668146D01*
X135159899Y-92642885D01*
X138292000Y-92642885D01*
X138296475Y-92658124D01*
X138297865Y-92659329D01*
X138305548Y-92661000D01*
X139427885Y-92661000D01*
X139443124Y-92656525D01*
X139444329Y-92655135D01*
X139446000Y-92647452D01*
X139446000Y-92642885D01*
X139954000Y-92642885D01*
X139958475Y-92658124D01*
X139959865Y-92659329D01*
X139967548Y-92661000D01*
X141089884Y-92661000D01*
X141105123Y-92656525D01*
X141106328Y-92655135D01*
X141107999Y-92647452D01*
X141107999Y-92642885D01*
X143372000Y-92642885D01*
X143376475Y-92658124D01*
X143377865Y-92659329D01*
X143385548Y-92661000D01*
X144507885Y-92661000D01*
X144523124Y-92656525D01*
X144524329Y-92655135D01*
X144526000Y-92647452D01*
X144526000Y-92642885D01*
X145034000Y-92642885D01*
X145038475Y-92658124D01*
X145039865Y-92659329D01*
X145047548Y-92661000D01*
X146169884Y-92661000D01*
X146185123Y-92656525D01*
X146186328Y-92655135D01*
X146187999Y-92647452D01*
X146187999Y-92642885D01*
X148452000Y-92642885D01*
X148456475Y-92658124D01*
X148457865Y-92659329D01*
X148465548Y-92661000D01*
X149587885Y-92661000D01*
X149603124Y-92656525D01*
X149604329Y-92655135D01*
X149606000Y-92647452D01*
X149606000Y-92642885D01*
X150114000Y-92642885D01*
X150118475Y-92658124D01*
X150119865Y-92659329D01*
X150127548Y-92661000D01*
X151249884Y-92661000D01*
X151265123Y-92656525D01*
X151266328Y-92655135D01*
X151267999Y-92647452D01*
X151267999Y-92542905D01*
X151267662Y-92536386D01*
X151257743Y-92440794D01*
X151254851Y-92427400D01*
X151203412Y-92273216D01*
X151197239Y-92260038D01*
X151111937Y-92122193D01*
X151102901Y-92110792D01*
X150988171Y-91996261D01*
X150976760Y-91987249D01*
X150838757Y-91902184D01*
X150825576Y-91896037D01*
X150671290Y-91844862D01*
X150657914Y-91841995D01*
X150563562Y-91832328D01*
X150557145Y-91832000D01*
X150132115Y-91832000D01*
X150116876Y-91836475D01*
X150115671Y-91837865D01*
X150114000Y-91845548D01*
X150114000Y-92642885D01*
X149606000Y-92642885D01*
X149606000Y-91850116D01*
X149601525Y-91834877D01*
X149600135Y-91833672D01*
X149592452Y-91832001D01*
X149162905Y-91832001D01*
X149156386Y-91832338D01*
X149060794Y-91842257D01*
X149047400Y-91845149D01*
X148893216Y-91896588D01*
X148880038Y-91902761D01*
X148742193Y-91988063D01*
X148730792Y-91997099D01*
X148616261Y-92111829D01*
X148607249Y-92123240D01*
X148522184Y-92261243D01*
X148516037Y-92274424D01*
X148464862Y-92428710D01*
X148461995Y-92442086D01*
X148452328Y-92536438D01*
X148452000Y-92542855D01*
X148452000Y-92642885D01*
X146187999Y-92642885D01*
X146187999Y-92542905D01*
X146187662Y-92536386D01*
X146177743Y-92440794D01*
X146174851Y-92427400D01*
X146123412Y-92273216D01*
X146117239Y-92260038D01*
X146031937Y-92122193D01*
X146022901Y-92110792D01*
X145908171Y-91996261D01*
X145896760Y-91987249D01*
X145758757Y-91902184D01*
X145745576Y-91896037D01*
X145591290Y-91844862D01*
X145577914Y-91841995D01*
X145483562Y-91832328D01*
X145477145Y-91832000D01*
X145052115Y-91832000D01*
X145036876Y-91836475D01*
X145035671Y-91837865D01*
X145034000Y-91845548D01*
X145034000Y-92642885D01*
X144526000Y-92642885D01*
X144526000Y-91850116D01*
X144521525Y-91834877D01*
X144520135Y-91833672D01*
X144512452Y-91832001D01*
X144082905Y-91832001D01*
X144076386Y-91832338D01*
X143980794Y-91842257D01*
X143967400Y-91845149D01*
X143813216Y-91896588D01*
X143800038Y-91902761D01*
X143662193Y-91988063D01*
X143650792Y-91997099D01*
X143536261Y-92111829D01*
X143527249Y-92123240D01*
X143442184Y-92261243D01*
X143436037Y-92274424D01*
X143384862Y-92428710D01*
X143381995Y-92442086D01*
X143372328Y-92536438D01*
X143372000Y-92542855D01*
X143372000Y-92642885D01*
X141107999Y-92642885D01*
X141107999Y-92542905D01*
X141107662Y-92536386D01*
X141097743Y-92440794D01*
X141094851Y-92427400D01*
X141043412Y-92273216D01*
X141037239Y-92260038D01*
X140951937Y-92122193D01*
X140942901Y-92110792D01*
X140828171Y-91996261D01*
X140816760Y-91987249D01*
X140678757Y-91902184D01*
X140665576Y-91896037D01*
X140511290Y-91844862D01*
X140497914Y-91841995D01*
X140403562Y-91832328D01*
X140397145Y-91832000D01*
X139972115Y-91832000D01*
X139956876Y-91836475D01*
X139955671Y-91837865D01*
X139954000Y-91845548D01*
X139954000Y-92642885D01*
X139446000Y-92642885D01*
X139446000Y-91850116D01*
X139441525Y-91834877D01*
X139440135Y-91833672D01*
X139432452Y-91832001D01*
X139002905Y-91832001D01*
X138996386Y-91832338D01*
X138900794Y-91842257D01*
X138887400Y-91845149D01*
X138733216Y-91896588D01*
X138720038Y-91902761D01*
X138582193Y-91988063D01*
X138570792Y-91997099D01*
X138456261Y-92111829D01*
X138447249Y-92123240D01*
X138362184Y-92261243D01*
X138356037Y-92274424D01*
X138304862Y-92428710D01*
X138301995Y-92442086D01*
X138292328Y-92536438D01*
X138292000Y-92542855D01*
X138292000Y-92642885D01*
X135159899Y-92642885D01*
X135302629Y-92450433D01*
X135304472Y-92447948D01*
X135306055Y-92445308D01*
X135306061Y-92445298D01*
X135475963Y-92161831D01*
X135477555Y-92159175D01*
X135621499Y-91854827D01*
X135734918Y-91537835D01*
X135766680Y-91411029D01*
X135815968Y-91214252D01*
X135815969Y-91214249D01*
X135816719Y-91211253D01*
X135825058Y-91155037D01*
X135865662Y-90881286D01*
X135865662Y-90881285D01*
X135866116Y-90878225D01*
X135871506Y-90768483D01*
X135877110Y-90654392D01*
X135877167Y-90653320D01*
X135878395Y-90632023D01*
X135878395Y-90632016D01*
X135878500Y-90630199D01*
X135878500Y-90628377D01*
X135878552Y-90626571D01*
X135878564Y-90626571D01*
X135878652Y-90622996D01*
X135881650Y-90561967D01*
X135881977Y-90557175D01*
X135882828Y-90547444D01*
X135882828Y-90547436D01*
X135883307Y-90541959D01*
X135878980Y-90492507D01*
X135878500Y-90481525D01*
X135878500Y-86164669D01*
X139782001Y-86164669D01*
X139782371Y-86171490D01*
X139787895Y-86222352D01*
X139791521Y-86237604D01*
X139836676Y-86358054D01*
X139845214Y-86373649D01*
X139921715Y-86475724D01*
X139934276Y-86488285D01*
X140036351Y-86564786D01*
X140051946Y-86573324D01*
X140172394Y-86618478D01*
X140187649Y-86622105D01*
X140238514Y-86627631D01*
X140245328Y-86628000D01*
X140467885Y-86628000D01*
X140483124Y-86623525D01*
X140484329Y-86622135D01*
X140486000Y-86614452D01*
X140486000Y-85742115D01*
X140481525Y-85726876D01*
X140480135Y-85725671D01*
X140472452Y-85724000D01*
X139800116Y-85724000D01*
X139784877Y-85728475D01*
X139783672Y-85729865D01*
X139782001Y-85737548D01*
X139782001Y-86164669D01*
X135878500Y-86164669D01*
X135878500Y-85197885D01*
X139782000Y-85197885D01*
X139786475Y-85213124D01*
X139787865Y-85214329D01*
X139795548Y-85216000D01*
X140467885Y-85216000D01*
X140483124Y-85211525D01*
X140484329Y-85210135D01*
X140486000Y-85202452D01*
X140486000Y-84330116D01*
X140481525Y-84314877D01*
X140480135Y-84313672D01*
X140472452Y-84312001D01*
X140245331Y-84312001D01*
X140238510Y-84312371D01*
X140187648Y-84317895D01*
X140172396Y-84321521D01*
X140051946Y-84366676D01*
X140036351Y-84375214D01*
X139934276Y-84451715D01*
X139921715Y-84464276D01*
X139845214Y-84566351D01*
X139836676Y-84581946D01*
X139791522Y-84702394D01*
X139787895Y-84717649D01*
X139782369Y-84768514D01*
X139782000Y-84775328D01*
X139782000Y-85197885D01*
X135878500Y-85197885D01*
X135878500Y-84569553D01*
X135879679Y-84552360D01*
X135882806Y-84529660D01*
X135882806Y-84529656D01*
X135883421Y-84525193D01*
X135882178Y-84315127D01*
X135882140Y-84311233D01*
X135879461Y-84112778D01*
X135878770Y-84056143D01*
X135897940Y-83987784D01*
X135929195Y-83953781D01*
X135983261Y-83913261D01*
X136070615Y-83796705D01*
X136121745Y-83660316D01*
X136128500Y-83598134D01*
X136128500Y-81501866D01*
X136121745Y-81439684D01*
X136070615Y-81303295D01*
X135983261Y-81186739D01*
X135929195Y-81146219D01*
X135886681Y-81089359D01*
X135878770Y-81043856D01*
X135879459Y-80987361D01*
X135879461Y-80987197D01*
X135882140Y-80788766D01*
X135882141Y-80788658D01*
X135882178Y-80784872D01*
X135882180Y-80784577D01*
X135883411Y-80576552D01*
X135883411Y-80576540D01*
X135883421Y-80574807D01*
X135880645Y-80518362D01*
X135879661Y-80514458D01*
X135878500Y-80498812D01*
X135878500Y-80129500D01*
X135898502Y-80061379D01*
X135952158Y-80014886D01*
X136004500Y-80003500D01*
X141055500Y-80003500D01*
X141123621Y-80023502D01*
X141170114Y-80077158D01*
X141181500Y-80129500D01*
X141181500Y-80970135D01*
X141161498Y-81038256D01*
X141123622Y-81076132D01*
X141037079Y-81131750D01*
X141031178Y-81138560D01*
X140947226Y-81235445D01*
X140947224Y-81235448D01*
X140941324Y-81242257D01*
X140880581Y-81375266D01*
X140859771Y-81520000D01*
X140859771Y-84645000D01*
X140865000Y-84718111D01*
X140888345Y-84797618D01*
X140892876Y-84813046D01*
X140906196Y-84858411D01*
X140911066Y-84865989D01*
X140911067Y-84865991D01*
X140973998Y-84963913D01*
X140994000Y-85032034D01*
X140994000Y-86609884D01*
X140998475Y-86625123D01*
X140999865Y-86626328D01*
X141007548Y-86627999D01*
X141234669Y-86627999D01*
X141241490Y-86627629D01*
X141292352Y-86622105D01*
X141307604Y-86618479D01*
X141428056Y-86573323D01*
X141432007Y-86571160D01*
X141436375Y-86570205D01*
X141436462Y-86570172D01*
X141436467Y-86570185D01*
X141501363Y-86555990D01*
X141544859Y-86567065D01*
X141645266Y-86612919D01*
X141790000Y-86633729D01*
X142641359Y-86633729D01*
X142709480Y-86653731D01*
X142755973Y-86707387D01*
X142766077Y-86777661D01*
X142736583Y-86842241D01*
X142707200Y-86867157D01*
X142654557Y-86899418D01*
X142636962Y-86908383D01*
X142565024Y-86938182D01*
X142533041Y-86951430D01*
X142514238Y-86957540D01*
X142404869Y-86983800D01*
X142385342Y-86986893D01*
X142302669Y-86993402D01*
X142285138Y-86992944D01*
X142285138Y-86992952D01*
X142277540Y-86992873D01*
X142270013Y-86991882D01*
X142262584Y-86992702D01*
X142256563Y-86992442D01*
X142253364Y-86991987D01*
X142247190Y-86991922D01*
X142244135Y-86991890D01*
X142244130Y-86991890D01*
X142240000Y-86991847D01*
X142224918Y-86993672D01*
X142216863Y-86994386D01*
X141997043Y-87006730D01*
X141757142Y-87047492D01*
X141753739Y-87048472D01*
X141753732Y-87048474D01*
X141526721Y-87113876D01*
X141526718Y-87113877D01*
X141523313Y-87114858D01*
X141520051Y-87116209D01*
X141520043Y-87116212D01*
X141301758Y-87206630D01*
X141301755Y-87206632D01*
X141298497Y-87207981D01*
X141295412Y-87209686D01*
X141295408Y-87209688D01*
X141128062Y-87302179D01*
X141085521Y-87325691D01*
X140887064Y-87466506D01*
X140773763Y-87567760D01*
X140769582Y-87571496D01*
X140769409Y-87571640D01*
X140764625Y-87574470D01*
X140753437Y-87585658D01*
X140748302Y-87590514D01*
X140735710Y-87601767D01*
X140727405Y-87608575D01*
X140717585Y-87615948D01*
X140717581Y-87615952D01*
X140714288Y-87618424D01*
X140711347Y-87621304D01*
X140711340Y-87621310D01*
X140707690Y-87624885D01*
X140704739Y-87627775D01*
X140702191Y-87631025D01*
X140685526Y-87652279D01*
X140675466Y-87663629D01*
X139494499Y-88844595D01*
X139432187Y-88878621D01*
X139405404Y-88881500D01*
X138999600Y-88881500D01*
X138996354Y-88881837D01*
X138996350Y-88881837D01*
X138900692Y-88891762D01*
X138900688Y-88891763D01*
X138893834Y-88892474D01*
X138887298Y-88894655D01*
X138887296Y-88894655D01*
X138755194Y-88938728D01*
X138726054Y-88948450D01*
X138575652Y-89041522D01*
X138450695Y-89166697D01*
X138446855Y-89172927D01*
X138446854Y-89172928D01*
X138368320Y-89300334D01*
X138357885Y-89317262D01*
X138334185Y-89388717D01*
X138325548Y-89414757D01*
X138302203Y-89485139D01*
X138301503Y-89491975D01*
X138301502Y-89491978D01*
X138299954Y-89507090D01*
X138291500Y-89589600D01*
X138291500Y-90340400D01*
X138291837Y-90343646D01*
X138291837Y-90343650D01*
X138300764Y-90429681D01*
X138302474Y-90446166D01*
X138304655Y-90452702D01*
X138304655Y-90452704D01*
X138327813Y-90522115D01*
X138358450Y-90613946D01*
X138451522Y-90764348D01*
X138576697Y-90889305D01*
X138582927Y-90893145D01*
X138582928Y-90893146D01*
X138720090Y-90977694D01*
X138727262Y-90982115D01*
X138807005Y-91008564D01*
X138888611Y-91035632D01*
X138888613Y-91035632D01*
X138895139Y-91037797D01*
X138901975Y-91038497D01*
X138901978Y-91038498D01*
X138945031Y-91042909D01*
X138999600Y-91048500D01*
X140400400Y-91048500D01*
X140403646Y-91048163D01*
X140403650Y-91048163D01*
X140499308Y-91038238D01*
X140499312Y-91038237D01*
X140506166Y-91037526D01*
X140512702Y-91035345D01*
X140512704Y-91035345D01*
X140644806Y-90991272D01*
X140673946Y-90981550D01*
X140824348Y-90888478D01*
X140949305Y-90763303D01*
X141013979Y-90658383D01*
X141066750Y-90610891D01*
X141121238Y-90598500D01*
X143358689Y-90598500D01*
X143426810Y-90618502D01*
X143465833Y-90658196D01*
X143531522Y-90764348D01*
X143656697Y-90889305D01*
X143662927Y-90893145D01*
X143662928Y-90893146D01*
X143800090Y-90977694D01*
X143807262Y-90982115D01*
X143887005Y-91008564D01*
X143968611Y-91035632D01*
X143968613Y-91035632D01*
X143975139Y-91037797D01*
X143981975Y-91038497D01*
X143981978Y-91038498D01*
X144025031Y-91042909D01*
X144079600Y-91048500D01*
X145480400Y-91048500D01*
X145483646Y-91048163D01*
X145483650Y-91048163D01*
X145579308Y-91038238D01*
X145579312Y-91038237D01*
X145586166Y-91037526D01*
X145592702Y-91035345D01*
X145592704Y-91035345D01*
X145724806Y-90991272D01*
X145753946Y-90981550D01*
X145904348Y-90888478D01*
X146029305Y-90763303D01*
X146093979Y-90658383D01*
X146146750Y-90610891D01*
X146201238Y-90598500D01*
X148438689Y-90598500D01*
X148506810Y-90618502D01*
X148545833Y-90658196D01*
X148611522Y-90764348D01*
X148736697Y-90889305D01*
X148742927Y-90893145D01*
X148742928Y-90893146D01*
X148880090Y-90977694D01*
X148887262Y-90982115D01*
X148967005Y-91008564D01*
X149048611Y-91035632D01*
X149048613Y-91035632D01*
X149055139Y-91037797D01*
X149061975Y-91038497D01*
X149061978Y-91038498D01*
X149105031Y-91042909D01*
X149159600Y-91048500D01*
X150560400Y-91048500D01*
X150563646Y-91048163D01*
X150563650Y-91048163D01*
X150659308Y-91038238D01*
X150659312Y-91038237D01*
X150666166Y-91037526D01*
X150672702Y-91035345D01*
X150672704Y-91035345D01*
X150804806Y-90991272D01*
X150833946Y-90981550D01*
X150984348Y-90888478D01*
X151109305Y-90763303D01*
X151119557Y-90746672D01*
X151198275Y-90618968D01*
X151198276Y-90618966D01*
X151202115Y-90612738D01*
X151236864Y-90507973D01*
X151255632Y-90451389D01*
X151255632Y-90451387D01*
X151257797Y-90444861D01*
X151259353Y-90429681D01*
X151266366Y-90361229D01*
X151268500Y-90340400D01*
X151268500Y-89589600D01*
X151268163Y-89586350D01*
X151258238Y-89490692D01*
X151258237Y-89490688D01*
X151257526Y-89483834D01*
X151237206Y-89422926D01*
X151203868Y-89323002D01*
X151201550Y-89316054D01*
X151108478Y-89165652D01*
X150983303Y-89040695D01*
X150977072Y-89036854D01*
X150838968Y-88951725D01*
X150838966Y-88951724D01*
X150832738Y-88947885D01*
X150705973Y-88905839D01*
X150671389Y-88894368D01*
X150671387Y-88894368D01*
X150664861Y-88892203D01*
X150658025Y-88891503D01*
X150658022Y-88891502D01*
X150614969Y-88887091D01*
X150560400Y-88881500D01*
X149984500Y-88881500D01*
X149916379Y-88861498D01*
X149869886Y-88807842D01*
X149858500Y-88755500D01*
X149858500Y-87817643D01*
X149878502Y-87749522D01*
X149932158Y-87703029D01*
X150002432Y-87692925D01*
X150048639Y-87709189D01*
X150074779Y-87724648D01*
X150089210Y-87730893D01*
X150223605Y-87769939D01*
X150237706Y-87769899D01*
X150241000Y-87762630D01*
X150241000Y-87756878D01*
X150749000Y-87756878D01*
X150752973Y-87770409D01*
X150760871Y-87771544D01*
X150900790Y-87730893D01*
X150915221Y-87724648D01*
X151044676Y-87648090D01*
X151052364Y-87642126D01*
X151118449Y-87616179D01*
X151188072Y-87630080D01*
X151204158Y-87640418D01*
X151208193Y-87644453D01*
X151215021Y-87648491D01*
X151215024Y-87648493D01*
X151289116Y-87692311D01*
X151351399Y-87729145D01*
X151359010Y-87731356D01*
X151359012Y-87731357D01*
X151402703Y-87744050D01*
X151511169Y-87775562D01*
X151517574Y-87776066D01*
X151517579Y-87776067D01*
X151546042Y-87778307D01*
X151546050Y-87778307D01*
X151548498Y-87778500D01*
X151981502Y-87778500D01*
X151983950Y-87778307D01*
X151983958Y-87778307D01*
X152012421Y-87776067D01*
X152012426Y-87776066D01*
X152018831Y-87775562D01*
X152127297Y-87744050D01*
X152170988Y-87731357D01*
X152170990Y-87731356D01*
X152178601Y-87729145D01*
X152240884Y-87692311D01*
X152314980Y-87648491D01*
X152314983Y-87648489D01*
X152321807Y-87644453D01*
X152439453Y-87526807D01*
X152443489Y-87519983D01*
X152443491Y-87519980D01*
X152520108Y-87390427D01*
X152524145Y-87383601D01*
X152570562Y-87223831D01*
X152571537Y-87211454D01*
X152573307Y-87188958D01*
X152573307Y-87188950D01*
X152573500Y-87186502D01*
X152573500Y-85403498D01*
X152570562Y-85366169D01*
X152541528Y-85266231D01*
X152526357Y-85214012D01*
X152526356Y-85214010D01*
X152524145Y-85206399D01*
X152447723Y-85077176D01*
X152443491Y-85070020D01*
X152443489Y-85070017D01*
X152439453Y-85063193D01*
X152321807Y-84945547D01*
X152314983Y-84941511D01*
X152314980Y-84941509D01*
X152185427Y-84864892D01*
X152185428Y-84864892D01*
X152178601Y-84860855D01*
X152170990Y-84858644D01*
X152170988Y-84858643D01*
X152083142Y-84833122D01*
X152018831Y-84814438D01*
X152012426Y-84813934D01*
X152012421Y-84813933D01*
X151983958Y-84811693D01*
X151983950Y-84811693D01*
X151981502Y-84811500D01*
X151548498Y-84811500D01*
X151546050Y-84811693D01*
X151546042Y-84811693D01*
X151517579Y-84813933D01*
X151517574Y-84813934D01*
X151511169Y-84814438D01*
X151446858Y-84833122D01*
X151359012Y-84858643D01*
X151359010Y-84858644D01*
X151351399Y-84860855D01*
X151208193Y-84945547D01*
X151205253Y-84948487D01*
X151140729Y-84973821D01*
X151071106Y-84959920D01*
X151052360Y-84947871D01*
X151044677Y-84941911D01*
X150915221Y-84865352D01*
X150900790Y-84859107D01*
X150766395Y-84820061D01*
X150752294Y-84820101D01*
X150749000Y-84827370D01*
X150749000Y-87756878D01*
X150241000Y-87756878D01*
X150241000Y-84833122D01*
X150237027Y-84819591D01*
X150229129Y-84818456D01*
X150089210Y-84859107D01*
X150074779Y-84865352D01*
X149945324Y-84941910D01*
X149937636Y-84947874D01*
X149871551Y-84973821D01*
X149801928Y-84959920D01*
X149785842Y-84949582D01*
X149781807Y-84945547D01*
X149638601Y-84860855D01*
X149630990Y-84858644D01*
X149630988Y-84858643D01*
X149543142Y-84833122D01*
X149478831Y-84814438D01*
X149472426Y-84813934D01*
X149472421Y-84813933D01*
X149443958Y-84811693D01*
X149443950Y-84811693D01*
X149441502Y-84811500D01*
X149008498Y-84811500D01*
X149006050Y-84811693D01*
X149006042Y-84811693D01*
X148977579Y-84813933D01*
X148977574Y-84813934D01*
X148971169Y-84814438D01*
X148906858Y-84833122D01*
X148819012Y-84858643D01*
X148819010Y-84858644D01*
X148811399Y-84860855D01*
X148668193Y-84945547D01*
X148665511Y-84948229D01*
X148601139Y-84973502D01*
X148531516Y-84959600D01*
X148515688Y-84949428D01*
X148511807Y-84945547D01*
X148368601Y-84860855D01*
X148360990Y-84858644D01*
X148360988Y-84858643D01*
X148273142Y-84833122D01*
X148208831Y-84814438D01*
X148202424Y-84813934D01*
X148202420Y-84813933D01*
X148195059Y-84813354D01*
X148191141Y-84813046D01*
X148124800Y-84787762D01*
X148082659Y-84730625D01*
X148078098Y-84659775D01*
X148112566Y-84597707D01*
X148135189Y-84580002D01*
X148173174Y-84556724D01*
X148190791Y-84547748D01*
X148302871Y-84501322D01*
X148321671Y-84495212D01*
X148407151Y-84474691D01*
X148439643Y-84466890D01*
X148459171Y-84463797D01*
X148550664Y-84456596D01*
X148568189Y-84457055D01*
X148568189Y-84457047D01*
X148575785Y-84457126D01*
X148583317Y-84458118D01*
X148618253Y-84454261D01*
X148632080Y-84453500D01*
X148721984Y-84453500D01*
X148739740Y-84454757D01*
X148758537Y-84457433D01*
X148758544Y-84457434D01*
X148762615Y-84458013D01*
X148768594Y-84458076D01*
X148771844Y-84458110D01*
X148771849Y-84458110D01*
X148775979Y-84458153D01*
X148790008Y-84456455D01*
X148796878Y-84455815D01*
X148895039Y-84449382D01*
X148996528Y-84442732D01*
X148996533Y-84442731D01*
X149000643Y-84442462D01*
X149004682Y-84441659D01*
X149004687Y-84441658D01*
X149112728Y-84420168D01*
X149221462Y-84398541D01*
X149316640Y-84366233D01*
X149430753Y-84327498D01*
X149430755Y-84327497D01*
X149434659Y-84326172D01*
X149636587Y-84226593D01*
X149823788Y-84101510D01*
X149962734Y-83979659D01*
X149970144Y-83973642D01*
X149984194Y-83963093D01*
X149993742Y-83953742D01*
X149996281Y-83950504D01*
X149996289Y-83950495D01*
X150002381Y-83942725D01*
X150006801Y-83937396D01*
X150138786Y-83786894D01*
X150141510Y-83783788D01*
X150266593Y-83596587D01*
X150366172Y-83394659D01*
X150374787Y-83369281D01*
X150433358Y-83196730D01*
X150438541Y-83181462D01*
X150482462Y-82960643D01*
X150483405Y-82946257D01*
X150507821Y-82879590D01*
X150564403Y-82836708D01*
X150609135Y-82828500D01*
X150711502Y-82828500D01*
X150713950Y-82828307D01*
X150713958Y-82828307D01*
X150742421Y-82826067D01*
X150742426Y-82826066D01*
X150748831Y-82825562D01*
X150858433Y-82793720D01*
X150900988Y-82781357D01*
X150900990Y-82781356D01*
X150908601Y-82779145D01*
X151051807Y-82694453D01*
X151054489Y-82691771D01*
X151118861Y-82666498D01*
X151188484Y-82680400D01*
X151204312Y-82690572D01*
X151208193Y-82694453D01*
X151351399Y-82779145D01*
X151359010Y-82781356D01*
X151359012Y-82781357D01*
X151401567Y-82793720D01*
X151511169Y-82825562D01*
X151517574Y-82826066D01*
X151517579Y-82826067D01*
X151546042Y-82828307D01*
X151546050Y-82828307D01*
X151548498Y-82828500D01*
X151981502Y-82828500D01*
X151983950Y-82828307D01*
X151983958Y-82828307D01*
X152012421Y-82826067D01*
X152012426Y-82826066D01*
X152018831Y-82825562D01*
X152100630Y-82801797D01*
X152170992Y-82781356D01*
X152170995Y-82781355D01*
X152178601Y-82779145D01*
X152183015Y-82776535D01*
X152252243Y-82767991D01*
X152316220Y-82798771D01*
X152325769Y-82808364D01*
X152357069Y-82843388D01*
X152460503Y-82959131D01*
X152469311Y-82970177D01*
X152498631Y-83011500D01*
X152631045Y-83198122D01*
X152638562Y-83210086D01*
X152691689Y-83306212D01*
X152769088Y-83446255D01*
X152773755Y-83454700D01*
X152779884Y-83467426D01*
X152845968Y-83626971D01*
X152886840Y-83725646D01*
X152891507Y-83738983D01*
X152968879Y-84007556D01*
X152972023Y-84021331D01*
X152990995Y-84132996D01*
X153018838Y-84296880D01*
X153020418Y-84310905D01*
X153034183Y-84556047D01*
X153033302Y-84579563D01*
X153032873Y-84582817D01*
X153032873Y-84582821D01*
X153031882Y-84590348D01*
X153034097Y-84610409D01*
X153035739Y-84625288D01*
X153036500Y-84639113D01*
X153036500Y-91676015D01*
X153035422Y-91692461D01*
X153031882Y-91719349D01*
X153032716Y-91726900D01*
X153034455Y-91742657D01*
X153035119Y-91761430D01*
X153021881Y-92098316D01*
X153021104Y-92108180D01*
X152977890Y-92473266D01*
X152976343Y-92483037D01*
X152964113Y-92544521D01*
X152910610Y-92813498D01*
X152904622Y-92843600D01*
X152902314Y-92853213D01*
X152870597Y-92965671D01*
X152802524Y-93207035D01*
X152799467Y-93216444D01*
X152672223Y-93561350D01*
X152668437Y-93570490D01*
X152514524Y-93904352D01*
X152510032Y-93913167D01*
X152330408Y-94233908D01*
X152325239Y-94242344D01*
X152144747Y-94512470D01*
X152120995Y-94548017D01*
X152115185Y-94556014D01*
X152010346Y-94689003D01*
X151887585Y-94844725D01*
X151881163Y-94852245D01*
X151862116Y-94872850D01*
X151657395Y-95094316D01*
X151641575Y-95108748D01*
X151635744Y-95113222D01*
X151635739Y-95113227D01*
X151629714Y-95117850D01*
X151624968Y-95123774D01*
X151624965Y-95123777D01*
X151607737Y-95145282D01*
X151598497Y-95155597D01*
X148082920Y-98671173D01*
X148070529Y-98682041D01*
X148055033Y-98693931D01*
X148055031Y-98693933D01*
X148049010Y-98698553D01*
X148044259Y-98704483D01*
X148036714Y-98713900D01*
X148022340Y-98729070D01*
X147828734Y-98902089D01*
X147817695Y-98910894D01*
X147584109Y-99076632D01*
X147572152Y-99084144D01*
X147321504Y-99222672D01*
X147308785Y-99228798D01*
X147044175Y-99338404D01*
X147030861Y-99343063D01*
X146841352Y-99397659D01*
X146755656Y-99422348D01*
X146741881Y-99425492D01*
X146600711Y-99449478D01*
X146459536Y-99473465D01*
X146445504Y-99475046D01*
X146206616Y-99488461D01*
X146137482Y-99472310D01*
X146092408Y-99428962D01*
X146089528Y-99424307D01*
X146028478Y-99325652D01*
X145903303Y-99200695D01*
X145897072Y-99196854D01*
X145758968Y-99111725D01*
X145758966Y-99111724D01*
X145752738Y-99107885D01*
X145658498Y-99076627D01*
X145591389Y-99054368D01*
X145591387Y-99054368D01*
X145584861Y-99052203D01*
X145578025Y-99051503D01*
X145578022Y-99051502D01*
X145534969Y-99047091D01*
X145480400Y-99041500D01*
X144602943Y-99041500D01*
X144534822Y-99021498D01*
X144525890Y-99015193D01*
X144508710Y-99001914D01*
X144508664Y-99001880D01*
X144507791Y-99001205D01*
X144506454Y-99000245D01*
X144476451Y-98980260D01*
X144252320Y-98842071D01*
X144245486Y-98838191D01*
X144221046Y-98824314D01*
X144221027Y-98824304D01*
X144220073Y-98823762D01*
X144218570Y-98822979D01*
X144184829Y-98806934D01*
X144120485Y-98779159D01*
X143975030Y-98716372D01*
X143975008Y-98716363D01*
X143974158Y-98715996D01*
X143973290Y-98715653D01*
X143973276Y-98715647D01*
X143945487Y-98704659D01*
X143945470Y-98704652D01*
X143944596Y-98704307D01*
X143943235Y-98703817D01*
X143913091Y-98694004D01*
X143912170Y-98693735D01*
X143912156Y-98693731D01*
X143712617Y-98635523D01*
X143712591Y-98635516D01*
X143712023Y-98635350D01*
X143711402Y-98635182D01*
X143711375Y-98635174D01*
X143693789Y-98630405D01*
X143693782Y-98630403D01*
X143693184Y-98630241D01*
X143692347Y-98630031D01*
X143673452Y-98625668D01*
X143672903Y-98625552D01*
X143478144Y-98584436D01*
X143478090Y-98584425D01*
X143472815Y-98583340D01*
X143335915Y-98555935D01*
X143298494Y-98548444D01*
X143291220Y-98546762D01*
X143152827Y-98510416D01*
X143138604Y-98505762D01*
X143021977Y-98459764D01*
X143004631Y-98451335D01*
X142884883Y-98381339D01*
X142868727Y-98370116D01*
X142697348Y-98230014D01*
X142680180Y-98218941D01*
X142666659Y-98208877D01*
X142573813Y-98129579D01*
X142573181Y-98129039D01*
X142573176Y-98129036D01*
X142569416Y-98125824D01*
X142366963Y-98001760D01*
X142362393Y-97999867D01*
X142362389Y-97999865D01*
X142152167Y-97912789D01*
X142152165Y-97912788D01*
X142147594Y-97910895D01*
X142067391Y-97891640D01*
X141921524Y-97856620D01*
X141921518Y-97856619D01*
X141916711Y-97855465D01*
X141680000Y-97836835D01*
X141443289Y-97855465D01*
X141438482Y-97856619D01*
X141438476Y-97856620D01*
X141292609Y-97891640D01*
X141212406Y-97910895D01*
X140993037Y-98001760D01*
X140988815Y-98004348D01*
X140987648Y-98004942D01*
X140986031Y-98005879D01*
X140809577Y-98102566D01*
X140797833Y-98109379D01*
X140788568Y-98114754D01*
X140788553Y-98114763D01*
X140787867Y-98115161D01*
X140786905Y-98115751D01*
X140766199Y-98129145D01*
X140611238Y-98234745D01*
X140595402Y-98245981D01*
X140594695Y-98246503D01*
X140579472Y-98258188D01*
X140447232Y-98363682D01*
X140440897Y-98368819D01*
X140440573Y-98369086D01*
X140432504Y-98375875D01*
X140329004Y-98464798D01*
X140317453Y-98474722D01*
X140315893Y-98476040D01*
X140228782Y-98548444D01*
X140223417Y-98552903D01*
X140215893Y-98558691D01*
X140179686Y-98584436D01*
X140148385Y-98606692D01*
X140134794Y-98615111D01*
X140114822Y-98625793D01*
X140096953Y-98635350D01*
X140079392Y-98644742D01*
X140061549Y-98652575D01*
X139995399Y-98675690D01*
X139976838Y-98680623D01*
X139873036Y-98699882D01*
X139856803Y-98701815D01*
X139807059Y-98704483D01*
X139674835Y-98711575D01*
X139674828Y-98711576D01*
X139673570Y-98711643D01*
X139632515Y-98715503D01*
X139632485Y-98715187D01*
X139618350Y-98716500D01*
X137223255Y-98716500D01*
X137198669Y-98714078D01*
X137197774Y-98713900D01*
X137186430Y-98711643D01*
X137181939Y-98711402D01*
X137181938Y-98711402D01*
X137107759Y-98707423D01*
X137003196Y-98701815D01*
X136986963Y-98699882D01*
X136883161Y-98680623D01*
X136864600Y-98675690D01*
X136798450Y-98652575D01*
X136780607Y-98644742D01*
X136763047Y-98635350D01*
X136745177Y-98625793D01*
X136725205Y-98615111D01*
X136711614Y-98606692D01*
X136680314Y-98584436D01*
X136644106Y-98558691D01*
X136636582Y-98552903D01*
X136631217Y-98548444D01*
X136544106Y-98476040D01*
X136542546Y-98474722D01*
X136530995Y-98464798D01*
X136427495Y-98375875D01*
X136419426Y-98369086D01*
X136419102Y-98368819D01*
X136412767Y-98363682D01*
X136280527Y-98258188D01*
X136265304Y-98246503D01*
X136264597Y-98245981D01*
X136248761Y-98234745D01*
X136093800Y-98129145D01*
X136073094Y-98115751D01*
X136072132Y-98115161D01*
X136051118Y-98102969D01*
X136051094Y-98102955D01*
X136051076Y-98102945D01*
X136050423Y-98102566D01*
X135873965Y-98005877D01*
X135872362Y-98004947D01*
X135871183Y-98004346D01*
X135866963Y-98001760D01*
X135862393Y-97999867D01*
X135862389Y-97999865D01*
X135652167Y-97912789D01*
X135652165Y-97912788D01*
X135647594Y-97910895D01*
X135567391Y-97891640D01*
X135421524Y-97856620D01*
X135421518Y-97856619D01*
X135416711Y-97855465D01*
X135180000Y-97836835D01*
X134943289Y-97855465D01*
X134938482Y-97856619D01*
X134938476Y-97856620D01*
X134792609Y-97891640D01*
X134712406Y-97910895D01*
X134707835Y-97912788D01*
X134707833Y-97912789D01*
X134497611Y-97999865D01*
X134497607Y-97999867D01*
X134493037Y-98001760D01*
X134488817Y-98004346D01*
X134294798Y-98123241D01*
X134294792Y-98123245D01*
X134290584Y-98125824D01*
X134110031Y-98280031D01*
X133955824Y-98460584D01*
X133953245Y-98464792D01*
X133953241Y-98464798D01*
X133848727Y-98635350D01*
X133831760Y-98663037D01*
X133829867Y-98667607D01*
X133829865Y-98667611D01*
X133742789Y-98877833D01*
X133740895Y-98882406D01*
X133739740Y-98887218D01*
X133687316Y-99105581D01*
X133685465Y-99113289D01*
X133666835Y-99350000D01*
X133685465Y-99586711D01*
X133686619Y-99591518D01*
X133686620Y-99591524D01*
X133692277Y-99615087D01*
X133740895Y-99817594D01*
X133742788Y-99822165D01*
X133742789Y-99822167D01*
X133824475Y-100019375D01*
X133831760Y-100036963D01*
X133834346Y-100041183D01*
X133953241Y-100235202D01*
X133953245Y-100235208D01*
X133955824Y-100239416D01*
X134110031Y-100419969D01*
X134290584Y-100574176D01*
X134294792Y-100576755D01*
X134294798Y-100576759D01*
X134488726Y-100695598D01*
X134493037Y-100698240D01*
X134497607Y-100700133D01*
X134497611Y-100700135D01*
X134690849Y-100780176D01*
X134712406Y-100789105D01*
X134792609Y-100808360D01*
X134938476Y-100843380D01*
X134938482Y-100843381D01*
X134943289Y-100844535D01*
X135180000Y-100863165D01*
X135416711Y-100844535D01*
X135421518Y-100843381D01*
X135421524Y-100843380D01*
X135567391Y-100808360D01*
X135647594Y-100789105D01*
X135669151Y-100780176D01*
X135862391Y-100700134D01*
X135862393Y-100700133D01*
X135866963Y-100698240D01*
X135871187Y-100695651D01*
X135872357Y-100695055D01*
X135873949Y-100694132D01*
X136049792Y-100597779D01*
X136049801Y-100597774D01*
X136050425Y-100597432D01*
X136072132Y-100584838D01*
X136073094Y-100584248D01*
X136088665Y-100574176D01*
X136093143Y-100571279D01*
X136093144Y-100571279D01*
X136093800Y-100570854D01*
X136248761Y-100465254D01*
X136264597Y-100454018D01*
X136265304Y-100453496D01*
X136265781Y-100453130D01*
X136280040Y-100442185D01*
X136280052Y-100442175D01*
X136280527Y-100441811D01*
X136412767Y-100336317D01*
X136419016Y-100331251D01*
X136419345Y-100330980D01*
X136427500Y-100324119D01*
X136542519Y-100225300D01*
X136544029Y-100224023D01*
X136636598Y-100147082D01*
X136644086Y-100141322D01*
X136711615Y-100093306D01*
X136725205Y-100084888D01*
X136780607Y-100055257D01*
X136798450Y-100047424D01*
X136864600Y-100024309D01*
X136883161Y-100019376D01*
X136986963Y-100000117D01*
X137003197Y-99998184D01*
X137186427Y-99988357D01*
X137187679Y-99988239D01*
X137187683Y-99988239D01*
X137227485Y-99984497D01*
X137227515Y-99984813D01*
X137241649Y-99983500D01*
X139636748Y-99983500D01*
X139661332Y-99985922D01*
X139665217Y-99986695D01*
X139673573Y-99988357D01*
X139856802Y-99998184D01*
X139873036Y-100000117D01*
X139976838Y-100019376D01*
X139995399Y-100024309D01*
X140061549Y-100047424D01*
X140079392Y-100055257D01*
X140134794Y-100084888D01*
X140148384Y-100093306D01*
X140215913Y-100141322D01*
X140223401Y-100147082D01*
X140315970Y-100224023D01*
X140317480Y-100225300D01*
X140432499Y-100324119D01*
X140440654Y-100330980D01*
X140440983Y-100331251D01*
X140447232Y-100336317D01*
X140579472Y-100441811D01*
X140579947Y-100442175D01*
X140579959Y-100442185D01*
X140594218Y-100453130D01*
X140594695Y-100453496D01*
X140595402Y-100454018D01*
X140611238Y-100465254D01*
X140766199Y-100570854D01*
X140766855Y-100571279D01*
X140766856Y-100571279D01*
X140771335Y-100574176D01*
X140786905Y-100584248D01*
X140787867Y-100584838D01*
X140788521Y-100585218D01*
X140788527Y-100585221D01*
X140808916Y-100597050D01*
X140808923Y-100597054D01*
X140809575Y-100597432D01*
X140810237Y-100597795D01*
X140810241Y-100597797D01*
X140986049Y-100694131D01*
X140987652Y-100695061D01*
X140988820Y-100695656D01*
X140993037Y-100698240D01*
X140997601Y-100700130D01*
X140997606Y-100700133D01*
X141190849Y-100780176D01*
X141212406Y-100789105D01*
X141292609Y-100808360D01*
X141438476Y-100843380D01*
X141438482Y-100843381D01*
X141443289Y-100844535D01*
X141680000Y-100863165D01*
X141916711Y-100844535D01*
X141921518Y-100843381D01*
X141921524Y-100843380D01*
X142067391Y-100808360D01*
X142147594Y-100789105D01*
X142184192Y-100773946D01*
X142362388Y-100700135D01*
X142362390Y-100700134D01*
X142366963Y-100698240D01*
X142370256Y-100696222D01*
X142372978Y-100694751D01*
X142373003Y-100694746D01*
X142373255Y-100694601D01*
X142612503Y-100565289D01*
X142626913Y-100557198D01*
X142627577Y-100556811D01*
X142628020Y-100556543D01*
X142628060Y-100556519D01*
X142641795Y-100548203D01*
X142641841Y-100548175D01*
X142642283Y-100547907D01*
X142874909Y-100401679D01*
X142881483Y-100397477D01*
X142881743Y-100397308D01*
X142886596Y-100394114D01*
X142891523Y-100390832D01*
X143099193Y-100252478D01*
X143101157Y-100251196D01*
X143113697Y-100243175D01*
X143177604Y-100202295D01*
X143245767Y-100182437D01*
X143313845Y-100202584D01*
X143360224Y-100256338D01*
X143371500Y-100308437D01*
X143371500Y-100500400D01*
X143371837Y-100503646D01*
X143371837Y-100503650D01*
X143381606Y-100597797D01*
X143382474Y-100606166D01*
X143384655Y-100612702D01*
X143384655Y-100612704D01*
X143414646Y-100702598D01*
X143438450Y-100773946D01*
X143531522Y-100924348D01*
X143656697Y-101049305D01*
X143662927Y-101053145D01*
X143662928Y-101053146D01*
X143800090Y-101137694D01*
X143807262Y-101142115D01*
X143887005Y-101168564D01*
X143968611Y-101195632D01*
X143968613Y-101195632D01*
X143975139Y-101197797D01*
X143981975Y-101198497D01*
X143981978Y-101198498D01*
X144025031Y-101202909D01*
X144079600Y-101208500D01*
X145480400Y-101208500D01*
X145483646Y-101208163D01*
X145483650Y-101208163D01*
X145579308Y-101198238D01*
X145579312Y-101198237D01*
X145586166Y-101197526D01*
X145592702Y-101195345D01*
X145592704Y-101195345D01*
X145724806Y-101151272D01*
X145753946Y-101141550D01*
X145904348Y-101048478D01*
X146029305Y-100923303D01*
X146092870Y-100820183D01*
X146145640Y-100772691D01*
X146194630Y-100760421D01*
X146496832Y-100747226D01*
X146707988Y-100719427D01*
X146835819Y-100702598D01*
X146835825Y-100702597D01*
X146838544Y-100702239D01*
X147175034Y-100627641D01*
X147177659Y-100626813D01*
X147177664Y-100626812D01*
X147501114Y-100524828D01*
X147501122Y-100524825D01*
X147503742Y-100523999D01*
X147798812Y-100401777D01*
X147819625Y-100393156D01*
X147819626Y-100393155D01*
X147822167Y-100392103D01*
X147929110Y-100336432D01*
X148092845Y-100251196D01*
X148127884Y-100232956D01*
X148207183Y-100182437D01*
X148416252Y-100049245D01*
X148416255Y-100049243D01*
X148418567Y-100047770D01*
X148420735Y-100046106D01*
X148420747Y-100046098D01*
X148563958Y-99936208D01*
X148692004Y-99837954D01*
X148709233Y-99822167D01*
X148921710Y-99627466D01*
X148931175Y-99619608D01*
X148937197Y-99615087D01*
X148946746Y-99605737D01*
X148949289Y-99602493D01*
X148949295Y-99602487D01*
X148965961Y-99581231D01*
X148976020Y-99569882D01*
X152485978Y-96059925D01*
X152499420Y-96048260D01*
X152514605Y-96036859D01*
X152514607Y-96036857D01*
X152517901Y-96034384D01*
X152527450Y-96025033D01*
X152529997Y-96021785D01*
X152530337Y-96021405D01*
X152536770Y-96013880D01*
X152821059Y-95708531D01*
X152821076Y-95708511D01*
X152822593Y-95706882D01*
X153094878Y-95368997D01*
X153285593Y-95094316D01*
X153341082Y-95014396D01*
X153341083Y-95014394D01*
X153342365Y-95012548D01*
X153563792Y-94639353D01*
X153758033Y-94251312D01*
X153816883Y-94109237D01*
X153923239Y-93852472D01*
X153923243Y-93852462D01*
X153924096Y-93850402D01*
X154061135Y-93438668D01*
X154063969Y-93427567D01*
X154167900Y-93020376D01*
X154168454Y-93018206D01*
X154171063Y-93003749D01*
X154205435Y-92813238D01*
X154245503Y-92591160D01*
X154286021Y-92214308D01*
X154291651Y-92161948D01*
X154291651Y-92161944D01*
X154291892Y-92159705D01*
X154306298Y-91756433D01*
X154307338Y-91744720D01*
X154307431Y-91743491D01*
X154308013Y-91739404D01*
X154308153Y-91726040D01*
X154307658Y-91721947D01*
X154307657Y-91721934D01*
X154304413Y-91695125D01*
X154303500Y-91679988D01*
X154303500Y-85035871D01*
X155178456Y-85035871D01*
X155219107Y-85175790D01*
X155225352Y-85190221D01*
X155301911Y-85319678D01*
X155311551Y-85332104D01*
X155417896Y-85438449D01*
X155430322Y-85448089D01*
X155559779Y-85524648D01*
X155574210Y-85530893D01*
X155720065Y-85573269D01*
X155732667Y-85575570D01*
X155761084Y-85577807D01*
X155766014Y-85578000D01*
X156070385Y-85578000D01*
X156085624Y-85573525D01*
X156086829Y-85572135D01*
X156088500Y-85564452D01*
X156088500Y-85042115D01*
X156084025Y-85026876D01*
X156082635Y-85025671D01*
X156074952Y-85024000D01*
X155193122Y-85024000D01*
X155179591Y-85027973D01*
X155178456Y-85035871D01*
X154303500Y-85035871D01*
X154303500Y-84651040D01*
X154304757Y-84633285D01*
X154307432Y-84614489D01*
X154308013Y-84610409D01*
X154308153Y-84597045D01*
X154307656Y-84592938D01*
X154307222Y-84589351D01*
X154306429Y-84579708D01*
X154292511Y-84260836D01*
X154292510Y-84260825D01*
X154292390Y-84258075D01*
X154248107Y-83921685D01*
X154188761Y-83653984D01*
X154193546Y-83583151D01*
X154235867Y-83526147D01*
X154302289Y-83501074D01*
X154371722Y-83515890D01*
X154405135Y-83542100D01*
X154434087Y-83574044D01*
X154432759Y-83575247D01*
X154434909Y-83576911D01*
X154435458Y-83576362D01*
X154441065Y-83581969D01*
X154445326Y-83586444D01*
X154463919Y-83606959D01*
X154471315Y-83615917D01*
X154479407Y-83626694D01*
X154488758Y-83636242D01*
X154491995Y-83638780D01*
X154492006Y-83638790D01*
X154513256Y-83655452D01*
X154524603Y-83665509D01*
X154751228Y-83892134D01*
X154762893Y-83905576D01*
X154772703Y-83918641D01*
X154776766Y-83924053D01*
X154786117Y-83933602D01*
X154794276Y-83939999D01*
X154795044Y-83940601D01*
X154800376Y-83945023D01*
X154962745Y-84087415D01*
X155157441Y-84217505D01*
X155161142Y-84219330D01*
X155161263Y-84219400D01*
X155210258Y-84270781D01*
X155223696Y-84340495D01*
X155219263Y-84363675D01*
X155180061Y-84498605D01*
X155180101Y-84512706D01*
X155187370Y-84516000D01*
X155425158Y-84516000D01*
X155489297Y-84533547D01*
X155566399Y-84579145D01*
X155574010Y-84581356D01*
X155574012Y-84581357D01*
X155604960Y-84590348D01*
X155726169Y-84625562D01*
X155732574Y-84626066D01*
X155732579Y-84626067D01*
X155761042Y-84628307D01*
X155761050Y-84628307D01*
X155763498Y-84628500D01*
X156470500Y-84628500D01*
X156538621Y-84648502D01*
X156585114Y-84702158D01*
X156596500Y-84754500D01*
X156596500Y-85559884D01*
X156600975Y-85575123D01*
X156602365Y-85576328D01*
X156610048Y-85577999D01*
X156918984Y-85577999D01*
X156923920Y-85577805D01*
X156952336Y-85575570D01*
X156964931Y-85573270D01*
X157110790Y-85530893D01*
X157125221Y-85524648D01*
X157254678Y-85448089D01*
X157267104Y-85438449D01*
X157373448Y-85332105D01*
X157380123Y-85323500D01*
X157437680Y-85281934D01*
X157508573Y-85278085D01*
X157570292Y-85313174D01*
X157577197Y-85321143D01*
X157580547Y-85326807D01*
X157698193Y-85444453D01*
X157705017Y-85448489D01*
X157705020Y-85448491D01*
X157733142Y-85465122D01*
X157841399Y-85529145D01*
X157849010Y-85531356D01*
X157849012Y-85531357D01*
X157893153Y-85544181D01*
X157952989Y-85582394D01*
X157982666Y-85646890D01*
X157984000Y-85665178D01*
X157984000Y-86216224D01*
X157982922Y-86232672D01*
X157979382Y-86259558D01*
X157981597Y-86279623D01*
X157981720Y-86280735D01*
X157982328Y-86300741D01*
X157978626Y-86376081D01*
X157971192Y-86527375D01*
X157969980Y-86552030D01*
X157968769Y-86564329D01*
X157946706Y-86713051D01*
X157927689Y-86841244D01*
X157925277Y-86853371D01*
X157857250Y-87124937D01*
X157853660Y-87136769D01*
X157830663Y-87201040D01*
X157764088Y-87387103D01*
X157759351Y-87400341D01*
X157754619Y-87411765D01*
X157634924Y-87664832D01*
X157629095Y-87675736D01*
X157485177Y-87915846D01*
X157478308Y-87926128D01*
X157461187Y-87949213D01*
X157314605Y-88146854D01*
X157311541Y-88150985D01*
X157303697Y-88160542D01*
X157139621Y-88341572D01*
X157122964Y-88356919D01*
X157113001Y-88364563D01*
X157108252Y-88370491D01*
X157091019Y-88392001D01*
X157081780Y-88402315D01*
X155988668Y-89495427D01*
X155975234Y-89507085D01*
X155956736Y-89520975D01*
X155947188Y-89530327D01*
X155943670Y-89534814D01*
X155939278Y-89540110D01*
X155780384Y-89721311D01*
X155778097Y-89724734D01*
X155778094Y-89724738D01*
X155717205Y-89815875D01*
X155639536Y-89932127D01*
X155637713Y-89935824D01*
X155637709Y-89935831D01*
X155600771Y-90010744D01*
X155552705Y-90062996D01*
X155527641Y-90074544D01*
X155381054Y-90123450D01*
X155230652Y-90216522D01*
X155105695Y-90341697D01*
X155101855Y-90347927D01*
X155101854Y-90347928D01*
X155019500Y-90481531D01*
X155012885Y-90492262D01*
X155003034Y-90521962D01*
X154959755Y-90652446D01*
X154957203Y-90660139D01*
X154956503Y-90666975D01*
X154956502Y-90666978D01*
X154953743Y-90693912D01*
X154946500Y-90764600D01*
X154946500Y-92115400D01*
X154946837Y-92118646D01*
X154946837Y-92118650D01*
X154951330Y-92161948D01*
X154957474Y-92221166D01*
X154959655Y-92227702D01*
X154959655Y-92227704D01*
X154966732Y-92248916D01*
X155013450Y-92388946D01*
X155106522Y-92539348D01*
X155231697Y-92664305D01*
X155237927Y-92668145D01*
X155237928Y-92668146D01*
X155375090Y-92752694D01*
X155382262Y-92757115D01*
X155462005Y-92783564D01*
X155543611Y-92810632D01*
X155543613Y-92810632D01*
X155550139Y-92812797D01*
X155556975Y-92813497D01*
X155556978Y-92813498D01*
X155600031Y-92817909D01*
X155654600Y-92823500D01*
X156380400Y-92823500D01*
X156383646Y-92823163D01*
X156383650Y-92823163D01*
X156479308Y-92813238D01*
X156479312Y-92813237D01*
X156486166Y-92812526D01*
X156492702Y-92810345D01*
X156492704Y-92810345D01*
X156624806Y-92766272D01*
X156653946Y-92756550D01*
X156804348Y-92663478D01*
X156929305Y-92538303D01*
X156963372Y-92483037D01*
X157018275Y-92393968D01*
X157018276Y-92393966D01*
X157022115Y-92387738D01*
X157077797Y-92219861D01*
X157088500Y-92115400D01*
X157088500Y-90764600D01*
X157087719Y-90757072D01*
X157078238Y-90665692D01*
X157078237Y-90665688D01*
X157077526Y-90658834D01*
X157066603Y-90626092D01*
X157023868Y-90498002D01*
X157021550Y-90491054D01*
X156983571Y-90429681D01*
X156964733Y-90361229D01*
X156985894Y-90293460D01*
X157001620Y-90274283D01*
X157969257Y-89306646D01*
X157982701Y-89294980D01*
X157997874Y-89283588D01*
X157997880Y-89283583D01*
X158001183Y-89281103D01*
X158010732Y-89271752D01*
X158013270Y-89268515D01*
X158014239Y-89267433D01*
X158018901Y-89261936D01*
X158260776Y-88997978D01*
X158390122Y-88829412D01*
X158484791Y-88706039D01*
X158484794Y-88706035D01*
X158486475Y-88703844D01*
X158611083Y-88508252D01*
X158684206Y-88393474D01*
X158684208Y-88393471D01*
X158685680Y-88391160D01*
X158811646Y-88149185D01*
X158855606Y-88064741D01*
X158855607Y-88064738D01*
X158856875Y-88062303D01*
X158859571Y-88055796D01*
X158957978Y-87818224D01*
X158998757Y-87719777D01*
X158999583Y-87717158D01*
X159109422Y-87368807D01*
X159109425Y-87368797D01*
X159110247Y-87366189D01*
X159190495Y-87004230D01*
X159191979Y-86992963D01*
X159238532Y-86639388D01*
X159238892Y-86636654D01*
X159253761Y-86296196D01*
X159254899Y-86283933D01*
X159255513Y-86279623D01*
X159255653Y-86266259D01*
X159251912Y-86235342D01*
X159251000Y-86220206D01*
X159251000Y-85665178D01*
X159271002Y-85597057D01*
X159324658Y-85550564D01*
X159341847Y-85544181D01*
X159385988Y-85531357D01*
X159385990Y-85531356D01*
X159393601Y-85529145D01*
X159501858Y-85465122D01*
X159529980Y-85448491D01*
X159529983Y-85448489D01*
X159536807Y-85444453D01*
X159654453Y-85326807D01*
X159658489Y-85319983D01*
X159658491Y-85319980D01*
X159725662Y-85206399D01*
X159739145Y-85183601D01*
X159741415Y-85175790D01*
X159782064Y-85035871D01*
X159785562Y-85023831D01*
X159788500Y-84986502D01*
X159788500Y-84553498D01*
X159788307Y-84551042D01*
X159786067Y-84522579D01*
X159786066Y-84522574D01*
X159785562Y-84516169D01*
X159739145Y-84356399D01*
X159682629Y-84260836D01*
X159658491Y-84220020D01*
X159658489Y-84220017D01*
X159654453Y-84213193D01*
X159536807Y-84095547D01*
X159529983Y-84091511D01*
X159529980Y-84091509D01*
X159400427Y-84014892D01*
X159400428Y-84014892D01*
X159393601Y-84010855D01*
X159385990Y-84008644D01*
X159385988Y-84008643D01*
X159333769Y-83993472D01*
X159233831Y-83964438D01*
X159227426Y-83963934D01*
X159227421Y-83963933D01*
X159198958Y-83961693D01*
X159198950Y-83961693D01*
X159196502Y-83961500D01*
X158038498Y-83961500D01*
X158036050Y-83961693D01*
X158036042Y-83961693D01*
X158007579Y-83963933D01*
X158007574Y-83963934D01*
X158001169Y-83964438D01*
X157901231Y-83993472D01*
X157849012Y-84008643D01*
X157849010Y-84008644D01*
X157841399Y-84010855D01*
X157703637Y-84092328D01*
X157634823Y-84109786D01*
X157567492Y-84087269D01*
X157523022Y-84031925D01*
X157513500Y-83983873D01*
X157513500Y-83656127D01*
X157533502Y-83588006D01*
X157587158Y-83541513D01*
X157657432Y-83531409D01*
X157703636Y-83547672D01*
X157841399Y-83629145D01*
X157849010Y-83631356D01*
X157849012Y-83631357D01*
X157901231Y-83646528D01*
X158001169Y-83675562D01*
X158007574Y-83676066D01*
X158007579Y-83676067D01*
X158036042Y-83678307D01*
X158036050Y-83678307D01*
X158038498Y-83678500D01*
X159196502Y-83678500D01*
X159198950Y-83678307D01*
X159198958Y-83678307D01*
X159227421Y-83676067D01*
X159227426Y-83676066D01*
X159233831Y-83675562D01*
X159333769Y-83646528D01*
X159385988Y-83631357D01*
X159385990Y-83631356D01*
X159393601Y-83629145D01*
X159446038Y-83598134D01*
X159529980Y-83548491D01*
X159529983Y-83548489D01*
X159536807Y-83544453D01*
X159551872Y-83529388D01*
X159614184Y-83495362D01*
X159633902Y-83492681D01*
X159636410Y-83492540D01*
X159648167Y-83491880D01*
X159795605Y-83466831D01*
X159916717Y-83446255D01*
X159916722Y-83446254D01*
X159920194Y-83445664D01*
X160185336Y-83369281D01*
X160440259Y-83263693D01*
X160443348Y-83261986D01*
X160443356Y-83261982D01*
X160678665Y-83131935D01*
X160678667Y-83131934D01*
X160681757Y-83130226D01*
X160684632Y-83128186D01*
X160684637Y-83128183D01*
X160903920Y-82972599D01*
X160906794Y-82970560D01*
X160917892Y-82960643D01*
X161050449Y-82842186D01*
X161051523Y-82843388D01*
X161053509Y-82840836D01*
X161053220Y-82840547D01*
X161058826Y-82834941D01*
X161058902Y-82834882D01*
X161063727Y-82830320D01*
X161064511Y-82829620D01*
X161071060Y-82823767D01*
X161086470Y-82809997D01*
X161094773Y-82803191D01*
X161100239Y-82799087D01*
X161100244Y-82799083D01*
X161103543Y-82796606D01*
X161106486Y-82793724D01*
X161106491Y-82793720D01*
X161110146Y-82790141D01*
X161110149Y-82790138D01*
X161113092Y-82787256D01*
X161132314Y-82762742D01*
X161142372Y-82751395D01*
X161520937Y-82372830D01*
X161583249Y-82338804D01*
X161654064Y-82343869D01*
X161710900Y-82386416D01*
X161720311Y-82400978D01*
X161746976Y-82449226D01*
X161753106Y-82461954D01*
X161858679Y-82716825D01*
X161863345Y-82730162D01*
X161932757Y-82971094D01*
X161937518Y-82999541D01*
X161938001Y-83008988D01*
X161938867Y-83013401D01*
X161938868Y-83013405D01*
X161973703Y-83190807D01*
X161974281Y-83193964D01*
X161986359Y-83265046D01*
X161989064Y-83280968D01*
X161990645Y-83295004D01*
X162001898Y-83495377D01*
X162004120Y-83534937D01*
X162003838Y-83552984D01*
X162001693Y-83577500D01*
X162002172Y-83582975D01*
X162002172Y-83582978D01*
X162006021Y-83626971D01*
X162006500Y-83637952D01*
X162006500Y-83975126D01*
X161986498Y-84043247D01*
X161981339Y-84050673D01*
X161964385Y-84073295D01*
X161913255Y-84209684D01*
X161906500Y-84271866D01*
X161906500Y-86068134D01*
X161913255Y-86130316D01*
X161964385Y-86266705D01*
X162051739Y-86383261D01*
X162168295Y-86470615D01*
X162176704Y-86473767D01*
X162176705Y-86473768D01*
X162285451Y-86514535D01*
X162342216Y-86557176D01*
X162366916Y-86623738D01*
X162351709Y-86693087D01*
X162332319Y-86719565D01*
X162318253Y-86734284D01*
X162305205Y-86746151D01*
X162285821Y-86761444D01*
X162162841Y-86890829D01*
X162153119Y-86901347D01*
X162152684Y-86901831D01*
X162143328Y-86912535D01*
X162143080Y-86912826D01*
X162143047Y-86912865D01*
X162074971Y-86992963D01*
X162040333Y-87033718D01*
X162031404Y-87044520D01*
X162030998Y-87045025D01*
X162022107Y-87056408D01*
X162011348Y-87070590D01*
X161938109Y-87167126D01*
X161938061Y-87167190D01*
X161937857Y-87167459D01*
X161931077Y-87176605D01*
X161930767Y-87177033D01*
X161930626Y-87177232D01*
X161930579Y-87177298D01*
X161924085Y-87186484D01*
X161924063Y-87186515D01*
X161923963Y-87186657D01*
X161851489Y-87291711D01*
X161848057Y-87296750D01*
X161847903Y-87296979D01*
X161844576Y-87301988D01*
X161820083Y-87339347D01*
X161777522Y-87404265D01*
X161777218Y-87404725D01*
X161713868Y-87500436D01*
X161711735Y-87503557D01*
X161647340Y-87594777D01*
X161643879Y-87599447D01*
X161568985Y-87695742D01*
X161564863Y-87700766D01*
X161500178Y-87775562D01*
X161469316Y-87811248D01*
X161465086Y-87815899D01*
X161369532Y-87915846D01*
X161337631Y-87949213D01*
X161305381Y-87986354D01*
X161304651Y-87987616D01*
X161294560Y-87999534D01*
X159274499Y-90019595D01*
X159212187Y-90053621D01*
X159185404Y-90056500D01*
X158579600Y-90056500D01*
X158576354Y-90056837D01*
X158576350Y-90056837D01*
X158480692Y-90066762D01*
X158480688Y-90066763D01*
X158473834Y-90067474D01*
X158467298Y-90069655D01*
X158467296Y-90069655D01*
X158335194Y-90113728D01*
X158306054Y-90123450D01*
X158155652Y-90216522D01*
X158030695Y-90341697D01*
X158026855Y-90347927D01*
X158026854Y-90347928D01*
X157944500Y-90481531D01*
X157937885Y-90492262D01*
X157928034Y-90521962D01*
X157884755Y-90652446D01*
X157882203Y-90660139D01*
X157881503Y-90666975D01*
X157881502Y-90666978D01*
X157878743Y-90693912D01*
X157871500Y-90764600D01*
X157871500Y-92115400D01*
X157871837Y-92118646D01*
X157871837Y-92118650D01*
X157876330Y-92161948D01*
X157882474Y-92221166D01*
X157884655Y-92227702D01*
X157884655Y-92227704D01*
X157891732Y-92248916D01*
X157938450Y-92388946D01*
X158031522Y-92539348D01*
X158156697Y-92664305D01*
X158162927Y-92668145D01*
X158162928Y-92668146D01*
X158300090Y-92752694D01*
X158307262Y-92757115D01*
X158387005Y-92783564D01*
X158468611Y-92810632D01*
X158468613Y-92810632D01*
X158475139Y-92812797D01*
X158481975Y-92813497D01*
X158481978Y-92813498D01*
X158525031Y-92817909D01*
X158579600Y-92823500D01*
X159305400Y-92823500D01*
X159308646Y-92823163D01*
X159308650Y-92823163D01*
X159404308Y-92813238D01*
X159404312Y-92813237D01*
X159411166Y-92812526D01*
X159417702Y-92810345D01*
X159417704Y-92810345D01*
X159549806Y-92766272D01*
X159578946Y-92756550D01*
X159729348Y-92663478D01*
X159854305Y-92538303D01*
X159888372Y-92483037D01*
X159943275Y-92393968D01*
X159943276Y-92393966D01*
X159947115Y-92387738D01*
X160002797Y-92219861D01*
X160013500Y-92115400D01*
X160013500Y-91124593D01*
X160033502Y-91056472D01*
X160050405Y-91035498D01*
X160567937Y-90517966D01*
X161933257Y-90517966D01*
X161963565Y-90652446D01*
X161966645Y-90662275D01*
X162046770Y-90859603D01*
X162051413Y-90868794D01*
X162162694Y-91050388D01*
X162168777Y-91058699D01*
X162308213Y-91219667D01*
X162315580Y-91226883D01*
X162479434Y-91362916D01*
X162487881Y-91368831D01*
X162671756Y-91476279D01*
X162681042Y-91480729D01*
X162880001Y-91556703D01*
X162889899Y-91559579D01*
X162993250Y-91580606D01*
X163007299Y-91579410D01*
X163011000Y-91569065D01*
X163011000Y-91568517D01*
X163519000Y-91568517D01*
X163523064Y-91582359D01*
X163536478Y-91584393D01*
X163543184Y-91583534D01*
X163553262Y-91581392D01*
X163757255Y-91520191D01*
X163766842Y-91516433D01*
X163958095Y-91422739D01*
X163966945Y-91417464D01*
X164140328Y-91293792D01*
X164148200Y-91287139D01*
X164299052Y-91136812D01*
X164305730Y-91128965D01*
X164430003Y-90956020D01*
X164435313Y-90947183D01*
X164529670Y-90756267D01*
X164533469Y-90746672D01*
X164595377Y-90542910D01*
X164597555Y-90532837D01*
X164598986Y-90521962D01*
X164596775Y-90507778D01*
X164583617Y-90504000D01*
X163537115Y-90504000D01*
X163521876Y-90508475D01*
X163520671Y-90509865D01*
X163519000Y-90517548D01*
X163519000Y-91568517D01*
X163011000Y-91568517D01*
X163011000Y-90522115D01*
X163006525Y-90506876D01*
X163005135Y-90505671D01*
X162997452Y-90504000D01*
X161948225Y-90504000D01*
X161934694Y-90507973D01*
X161933257Y-90517966D01*
X160567937Y-90517966D01*
X162193023Y-88892880D01*
X162211948Y-88877742D01*
X162211901Y-88877679D01*
X162213513Y-88876490D01*
X162214770Y-88875485D01*
X162215520Y-88875011D01*
X162215533Y-88875001D01*
X162219327Y-88872602D01*
X162244394Y-88851198D01*
X162309186Y-88822176D01*
X162366893Y-88827768D01*
X162370732Y-88829077D01*
X162371714Y-88829412D01*
X162378922Y-88832120D01*
X162476807Y-88872364D01*
X162505572Y-88884316D01*
X162560804Y-88928925D01*
X162583151Y-88996314D01*
X162565517Y-89065085D01*
X162532879Y-89101432D01*
X162364433Y-89227905D01*
X162356726Y-89234748D01*
X162209590Y-89388717D01*
X162203104Y-89396727D01*
X162083098Y-89572649D01*
X162078000Y-89581623D01*
X161988338Y-89774783D01*
X161984775Y-89784470D01*
X161929389Y-89984183D01*
X161930912Y-89992607D01*
X161943292Y-89996000D01*
X164583344Y-89996000D01*
X164596875Y-89992027D01*
X164598180Y-89982947D01*
X164556214Y-89815875D01*
X164552894Y-89806124D01*
X164467972Y-89610814D01*
X164463105Y-89601739D01*
X164347426Y-89422926D01*
X164341136Y-89414757D01*
X164197806Y-89257240D01*
X164190273Y-89250215D01*
X164023139Y-89118222D01*
X164014556Y-89112520D01*
X163977602Y-89092120D01*
X163927631Y-89041687D01*
X163912859Y-88972245D01*
X163937975Y-88905839D01*
X163965327Y-88879232D01*
X164026064Y-88835909D01*
X164144860Y-88751173D01*
X164303096Y-88593489D01*
X164366041Y-88505892D01*
X164430435Y-88416277D01*
X164433453Y-88412077D01*
X164440704Y-88397407D01*
X164530136Y-88216453D01*
X164530137Y-88216451D01*
X164532430Y-88211811D01*
X164597370Y-87998069D01*
X164626529Y-87776590D01*
X164626692Y-87769939D01*
X164628074Y-87713365D01*
X164628074Y-87713361D01*
X164628156Y-87710000D01*
X164609852Y-87487361D01*
X164555431Y-87270702D01*
X164466354Y-87065840D01*
X164364492Y-86908385D01*
X164347822Y-86882617D01*
X164347820Y-86882614D01*
X164345014Y-86878277D01*
X164341532Y-86874450D01*
X164197798Y-86716488D01*
X164166746Y-86652642D01*
X164175141Y-86582143D01*
X164220317Y-86527375D01*
X164246761Y-86513706D01*
X164353297Y-86473767D01*
X164361705Y-86470615D01*
X164478261Y-86383261D01*
X164565615Y-86266705D01*
X164616745Y-86130316D01*
X164623500Y-86068134D01*
X164623500Y-84271866D01*
X164616745Y-84209684D01*
X164571767Y-84089706D01*
X164568765Y-84081697D01*
X164568764Y-84081696D01*
X164565615Y-84073295D01*
X164560235Y-84066116D01*
X164560210Y-84066071D01*
X164544733Y-84004804D01*
X164545645Y-83853629D01*
X164546058Y-83785228D01*
X164546054Y-83783788D01*
X164546027Y-83775876D01*
X164546027Y-83775853D01*
X164546026Y-83775612D01*
X164546021Y-83775218D01*
X164545860Y-83767325D01*
X164545697Y-83761496D01*
X164540963Y-83592883D01*
X164538056Y-83489315D01*
X164537642Y-83478583D01*
X164537617Y-83478073D01*
X164536916Y-83466455D01*
X164515583Y-83169211D01*
X164514393Y-83155286D01*
X164514332Y-83154671D01*
X164512865Y-83141592D01*
X164473824Y-82829620D01*
X164472999Y-82823767D01*
X164472853Y-82822737D01*
X164471588Y-82813767D01*
X164471475Y-82813047D01*
X164470948Y-82809997D01*
X164469770Y-82803191D01*
X164468747Y-82797274D01*
X164467645Y-82791446D01*
X164410349Y-82488377D01*
X164410348Y-82488373D01*
X164409984Y-82486447D01*
X164403759Y-82461954D01*
X164394601Y-82425926D01*
X164393139Y-82419469D01*
X164386817Y-82387688D01*
X164386337Y-82385274D01*
X164385671Y-82382913D01*
X164385668Y-82382900D01*
X164278160Y-82001713D01*
X164277486Y-81999323D01*
X164250767Y-81926897D01*
X164139545Y-81625419D01*
X164139543Y-81625414D01*
X164138690Y-81623102D01*
X164131219Y-81606896D01*
X163971835Y-81261169D01*
X163971832Y-81261164D01*
X163970803Y-81258931D01*
X163903099Y-81138038D01*
X163776076Y-80911224D01*
X163776073Y-80911219D01*
X163774861Y-80909055D01*
X163691884Y-80784872D01*
X163553453Y-80577697D01*
X163553446Y-80577688D01*
X163552072Y-80575631D01*
X163303809Y-80260715D01*
X163299820Y-80256399D01*
X163045929Y-79981745D01*
X163041934Y-79977210D01*
X163035752Y-79969843D01*
X163035750Y-79969841D01*
X163032219Y-79965633D01*
X162994177Y-79933712D01*
X162986073Y-79926285D01*
X161029682Y-77969894D01*
X161022255Y-77961790D01*
X160993865Y-77927956D01*
X160990334Y-77923748D01*
X160969866Y-77906573D01*
X160957499Y-77894669D01*
X160939100Y-77874368D01*
X160866255Y-77793996D01*
X160770937Y-77688827D01*
X160763093Y-77679269D01*
X160575183Y-77425901D01*
X160568313Y-77415620D01*
X160447550Y-77214139D01*
X160406137Y-77145045D01*
X160400310Y-77134143D01*
X160265439Y-76848979D01*
X160260707Y-76837556D01*
X160154434Y-76540543D01*
X160150845Y-76528710D01*
X160074199Y-76222716D01*
X160071787Y-76210589D01*
X160036446Y-75972342D01*
X160025500Y-75898552D01*
X160024289Y-75886252D01*
X160022018Y-75840029D01*
X160010655Y-75608728D01*
X160010983Y-75591568D01*
X160012828Y-75570483D01*
X160012828Y-75570475D01*
X160013307Y-75565000D01*
X160009553Y-75522086D01*
X160008979Y-75515529D01*
X160008500Y-75504548D01*
X160008500Y-74618474D01*
X160008980Y-74607491D01*
X160012827Y-74563523D01*
X160013307Y-74558040D01*
X160012828Y-74552562D01*
X160012828Y-74552554D01*
X160011952Y-74542536D01*
X160011625Y-74537745D01*
X159996257Y-74224864D01*
X159996256Y-74224858D01*
X159996105Y-74221775D01*
X159955046Y-73944960D01*
X159947162Y-73891807D01*
X159947161Y-73891802D01*
X159946708Y-73888748D01*
X159912661Y-73752817D01*
X159889412Y-73660000D01*
X161386411Y-73660000D01*
X161406754Y-74048176D01*
X161467562Y-74432099D01*
X161568167Y-74807562D01*
X161569352Y-74810650D01*
X161569353Y-74810652D01*
X161596419Y-74881161D01*
X161707468Y-75170453D01*
X161708966Y-75173393D01*
X161880504Y-75510054D01*
X161883938Y-75516794D01*
X161885734Y-75519560D01*
X161885736Y-75519563D01*
X162028453Y-75739329D01*
X162095643Y-75842793D01*
X162340266Y-76144876D01*
X162615124Y-76419734D01*
X162617682Y-76421806D01*
X162617686Y-76421809D01*
X162691139Y-76481290D01*
X162917207Y-76664357D01*
X162919970Y-76666152D01*
X162919971Y-76666152D01*
X163238147Y-76872777D01*
X163243205Y-76876062D01*
X163246139Y-76877557D01*
X163246146Y-76877561D01*
X163517268Y-77015704D01*
X163589547Y-77052532D01*
X163685456Y-77089348D01*
X163912974Y-77176684D01*
X163952438Y-77191833D01*
X164327901Y-77292438D01*
X164531793Y-77324732D01*
X164708576Y-77352732D01*
X164708584Y-77352733D01*
X164711824Y-77353246D01*
X165100000Y-77373589D01*
X165488176Y-77353246D01*
X165491416Y-77352733D01*
X165491424Y-77352732D01*
X165668207Y-77324732D01*
X165872099Y-77292438D01*
X166247562Y-77191833D01*
X166287027Y-77176684D01*
X166514544Y-77089348D01*
X166610453Y-77052532D01*
X166682732Y-77015704D01*
X166953854Y-76877561D01*
X166953861Y-76877557D01*
X166956795Y-76876062D01*
X166961854Y-76872777D01*
X167280029Y-76666152D01*
X167280030Y-76666152D01*
X167282793Y-76664357D01*
X167508861Y-76481290D01*
X167582314Y-76421809D01*
X167582318Y-76421806D01*
X167584876Y-76419734D01*
X167859734Y-76144876D01*
X168104357Y-75842793D01*
X168171547Y-75739329D01*
X168314264Y-75519563D01*
X168314266Y-75519560D01*
X168316062Y-75516794D01*
X168319497Y-75510054D01*
X168491034Y-75173393D01*
X168492532Y-75170453D01*
X168603581Y-74881161D01*
X168630647Y-74810652D01*
X168630648Y-74810650D01*
X168631833Y-74807562D01*
X168732438Y-74432099D01*
X168793246Y-74048176D01*
X168813589Y-73660000D01*
X168793246Y-73271824D01*
X168789487Y-73248087D01*
X168740820Y-72940824D01*
X168732438Y-72887901D01*
X168631833Y-72512438D01*
X168492532Y-72149547D01*
X168476824Y-72118718D01*
X168317561Y-71806147D01*
X168317557Y-71806140D01*
X168316062Y-71803206D01*
X168253827Y-71707371D01*
X168106152Y-71479971D01*
X168106152Y-71479970D01*
X168104357Y-71477207D01*
X167940069Y-71274329D01*
X167861809Y-71177686D01*
X167861806Y-71177682D01*
X167859734Y-71175124D01*
X167584876Y-70900266D01*
X167282793Y-70655643D01*
X166956795Y-70443938D01*
X166953861Y-70442443D01*
X166953854Y-70442439D01*
X166613393Y-70268966D01*
X166610453Y-70267468D01*
X166247562Y-70128167D01*
X165872099Y-70027562D01*
X165668207Y-69995268D01*
X165491424Y-69967268D01*
X165491416Y-69967267D01*
X165488176Y-69966754D01*
X165100000Y-69946411D01*
X164711824Y-69966754D01*
X164708584Y-69967267D01*
X164708576Y-69967268D01*
X164531793Y-69995268D01*
X164327901Y-70027562D01*
X163952438Y-70128167D01*
X163589547Y-70267468D01*
X163586607Y-70268966D01*
X163246147Y-70442439D01*
X163246140Y-70442443D01*
X163243206Y-70443938D01*
X162917207Y-70655643D01*
X162615124Y-70900266D01*
X162340266Y-71175124D01*
X162338194Y-71177682D01*
X162338191Y-71177686D01*
X162259931Y-71274329D01*
X162095643Y-71477207D01*
X162093848Y-71479970D01*
X162093848Y-71479971D01*
X161946174Y-71707371D01*
X161883938Y-71803206D01*
X161882443Y-71806140D01*
X161882439Y-71806147D01*
X161723176Y-72118718D01*
X161707468Y-72149547D01*
X161568167Y-72512438D01*
X161467562Y-72887901D01*
X161459180Y-72940824D01*
X161410514Y-73248087D01*
X161406754Y-73271824D01*
X161386411Y-73660000D01*
X159889412Y-73660000D01*
X159865660Y-73565173D01*
X159865660Y-73565172D01*
X159864907Y-73562167D01*
X159751488Y-73245176D01*
X159607545Y-72940830D01*
X159434463Y-72652057D01*
X159432627Y-72649581D01*
X159432622Y-72649574D01*
X159235753Y-72384127D01*
X159235750Y-72384124D01*
X159233909Y-72381641D01*
X159135856Y-72273456D01*
X159021282Y-72147044D01*
X159018122Y-72143420D01*
X159011826Y-72135917D01*
X159011824Y-72135915D01*
X159008293Y-72131707D01*
X159004084Y-72128175D01*
X158996818Y-72122078D01*
X158993194Y-72118917D01*
X158760665Y-71908165D01*
X158760657Y-71908158D01*
X158758366Y-71906082D01*
X158487948Y-71705528D01*
X158485308Y-71703945D01*
X158485298Y-71703939D01*
X158201831Y-71534037D01*
X158199175Y-71532445D01*
X157894827Y-71388501D01*
X157577835Y-71275082D01*
X157574829Y-71274329D01*
X157254252Y-71194032D01*
X157254249Y-71194031D01*
X157251253Y-71193281D01*
X157248199Y-71192828D01*
X157248194Y-71192827D01*
X156921286Y-71144338D01*
X156921285Y-71144338D01*
X156918225Y-71143884D01*
X156915140Y-71143732D01*
X156915135Y-71143732D01*
X156694392Y-71132890D01*
X156693320Y-71132833D01*
X156672023Y-71131605D01*
X156672016Y-71131605D01*
X156670199Y-71131500D01*
X156668377Y-71131500D01*
X156666571Y-71131448D01*
X156666571Y-71131436D01*
X156662999Y-71131348D01*
X156653770Y-71130895D01*
X156601967Y-71128350D01*
X156597175Y-71128023D01*
X156587444Y-71127172D01*
X156587436Y-71127172D01*
X156581959Y-71126693D01*
X156532508Y-71131020D01*
X156521525Y-71131500D01*
X136848474Y-71131500D01*
X136837491Y-71131020D01*
X136788040Y-71126693D01*
X136782562Y-71127172D01*
X136782554Y-71127172D01*
X136772536Y-71128048D01*
X136767745Y-71128375D01*
X136454864Y-71143743D01*
X136454858Y-71143744D01*
X136451775Y-71143895D01*
X136448715Y-71144349D01*
X136448714Y-71144349D01*
X136121807Y-71192838D01*
X136121802Y-71192839D01*
X136118748Y-71193292D01*
X136115752Y-71194042D01*
X136115749Y-71194043D01*
X135795217Y-71274329D01*
X135792167Y-71275093D01*
X135475176Y-71388512D01*
X135472377Y-71389836D01*
X135173620Y-71531135D01*
X135173613Y-71531139D01*
X135170830Y-71532455D01*
X135168181Y-71534043D01*
X134884709Y-71703947D01*
X134884702Y-71703952D01*
X134882057Y-71705537D01*
X134879584Y-71707371D01*
X134879574Y-71707378D01*
X134614139Y-71904238D01*
X134611641Y-71906091D01*
X134609353Y-71908165D01*
X134377044Y-72118718D01*
X134373420Y-72121878D01*
X134373182Y-72122078D01*
X134361707Y-72131707D01*
X134358177Y-72135914D01*
X134358175Y-72135916D01*
X134352078Y-72143182D01*
X134348917Y-72146806D01*
X134138165Y-72379335D01*
X134138158Y-72379343D01*
X134136082Y-72381634D01*
X134134241Y-72384117D01*
X134134238Y-72384120D01*
X133937369Y-72649568D01*
X133937365Y-72649574D01*
X133935528Y-72652051D01*
X133933943Y-72654696D01*
X133933938Y-72654703D01*
X133825724Y-72835249D01*
X133762446Y-72940824D01*
X133761130Y-72943607D01*
X133761126Y-72943614D01*
X133661899Y-73153415D01*
X133618502Y-73245172D01*
X133617459Y-73248087D01*
X133506124Y-73559253D01*
X133506121Y-73559263D01*
X133505083Y-73562164D01*
X133459577Y-73743841D01*
X133438335Y-73828647D01*
X133423281Y-73888746D01*
X133373884Y-74221774D01*
X133373732Y-74224859D01*
X133373732Y-74224864D01*
X133362890Y-74445607D01*
X133362833Y-74446679D01*
X133361500Y-74469800D01*
X133361500Y-74471622D01*
X133361448Y-74473428D01*
X133361436Y-74473428D01*
X133361348Y-74477003D01*
X133358350Y-74538032D01*
X133358023Y-74542824D01*
X133357172Y-74552555D01*
X133357172Y-74552563D01*
X133356693Y-74558040D01*
X133357173Y-74563523D01*
X133361020Y-74607491D01*
X133361500Y-74618474D01*
X133361500Y-78751635D01*
X133361024Y-78762574D01*
X133356693Y-78812272D01*
X133357174Y-78817749D01*
X133357174Y-78817751D01*
X133361017Y-78861505D01*
X133361500Y-78872529D01*
X133361500Y-80530446D01*
X133360321Y-80547640D01*
X133356579Y-80574805D01*
X133356821Y-80615723D01*
X133357727Y-80768889D01*
X133357821Y-80784870D01*
X133357859Y-80788766D01*
X133360220Y-80963598D01*
X133360536Y-80987033D01*
X133360538Y-80987197D01*
X133361229Y-81043857D01*
X133342059Y-81112217D01*
X133310803Y-81146220D01*
X133268829Y-81177678D01*
X133256739Y-81186739D01*
X133169385Y-81303295D01*
X133118255Y-81439684D01*
X133111500Y-81501866D01*
X133111500Y-83598134D01*
X133118255Y-83660316D01*
X133169385Y-83796705D01*
X133256739Y-83913261D01*
X133263918Y-83918641D01*
X133263920Y-83918643D01*
X133310803Y-83953780D01*
X133353318Y-84010640D01*
X133361229Y-84056143D01*
X133360540Y-84112624D01*
X133360538Y-84112788D01*
X133357859Y-84311233D01*
X133357858Y-84311339D01*
X133357821Y-84315129D01*
X133357819Y-84315425D01*
X133356606Y-84520689D01*
X133356579Y-84525195D01*
X133359355Y-84581638D01*
X133360339Y-84585542D01*
X133361500Y-84601188D01*
X133361500Y-90481531D01*
X133361021Y-90492511D01*
X133357494Y-90532837D01*
X133356693Y-90541989D01*
X133357173Y-90547472D01*
X133358311Y-90560480D01*
X133358403Y-90581347D01*
X133356480Y-90605791D01*
X133351082Y-90674383D01*
X133347989Y-90693912D01*
X133319303Y-90813402D01*
X133313193Y-90832207D01*
X133266166Y-90945740D01*
X133257190Y-90963356D01*
X133192985Y-91068131D01*
X133181364Y-91084127D01*
X133120802Y-91155037D01*
X133105989Y-91169721D01*
X133091706Y-91181706D01*
X133088171Y-91185919D01*
X133059783Y-91219751D01*
X133052356Y-91227856D01*
X132915617Y-91364595D01*
X132853305Y-91398621D01*
X132826522Y-91401500D01*
X131948866Y-91401500D01*
X131886684Y-91408255D01*
X131750295Y-91459385D01*
X131633739Y-91546739D01*
X131546385Y-91663295D01*
X131495255Y-91799684D01*
X131488500Y-91861866D01*
X131488500Y-93558134D01*
X128987737Y-93558134D01*
X129046365Y-93443070D01*
X129051069Y-93430817D01*
X129097267Y-93258403D01*
X129099214Y-93247069D01*
X129104807Y-93176010D01*
X129105000Y-93171085D01*
X129105000Y-92982115D01*
X129100525Y-92966876D01*
X129099135Y-92965671D01*
X129091452Y-92964000D01*
X128069115Y-92964000D01*
X128053876Y-92968475D01*
X128052671Y-92969865D01*
X128051000Y-92977548D01*
X128051000Y-93999885D01*
X127543000Y-93999885D01*
X127543000Y-92982115D01*
X127538525Y-92966876D01*
X127537135Y-92965671D01*
X127529452Y-92964000D01*
X126507115Y-92964000D01*
X126491876Y-92968475D01*
X126490671Y-92969865D01*
X126489000Y-92977548D01*
X126489000Y-93171085D01*
X122428500Y-93171085D01*
X122428500Y-92437885D01*
X126489000Y-92437885D01*
X126493475Y-92453124D01*
X126494865Y-92454329D01*
X126502548Y-92456000D01*
X127524885Y-92456000D01*
X127540124Y-92451525D01*
X127541329Y-92450135D01*
X127543000Y-92442452D01*
X127543000Y-92437885D01*
X128051000Y-92437885D01*
X128055475Y-92453124D01*
X128056865Y-92454329D01*
X128064548Y-92456000D01*
X129086885Y-92456000D01*
X129102124Y-92451525D01*
X129103329Y-92450135D01*
X129105000Y-92442452D01*
X129105000Y-92248916D01*
X129104807Y-92243990D01*
X129099214Y-92172931D01*
X129097267Y-92161597D01*
X129051069Y-91989183D01*
X129046365Y-91976930D01*
X128965705Y-91818625D01*
X128958552Y-91807610D01*
X128846745Y-91669541D01*
X128837459Y-91660255D01*
X128699390Y-91548448D01*
X128688375Y-91541295D01*
X128530070Y-91460635D01*
X128517817Y-91455931D01*
X128345403Y-91409733D01*
X128334069Y-91407786D01*
X128263010Y-91402193D01*
X128258084Y-91402000D01*
X128069115Y-91402000D01*
X128053876Y-91406475D01*
X128052671Y-91407865D01*
X128051000Y-91415548D01*
X128051000Y-92437885D01*
X127543000Y-92437885D01*
X127543000Y-91420115D01*
X127538525Y-91404876D01*
X127537135Y-91403671D01*
X127529452Y-91402000D01*
X127335916Y-91402000D01*
X127330990Y-91402193D01*
X127259931Y-91407786D01*
X127248597Y-91409733D01*
X127076183Y-91455931D01*
X127063930Y-91460635D01*
X126905625Y-91541295D01*
X126894610Y-91548448D01*
X126756541Y-91660255D01*
X126747255Y-91669541D01*
X126635448Y-91807610D01*
X126628295Y-91818625D01*
X126547635Y-91976930D01*
X126542931Y-91989183D01*
X126496733Y-92161597D01*
X126494786Y-92172931D01*
X126489193Y-92243990D01*
X126489000Y-92248916D01*
X126489000Y-92437885D01*
X122428500Y-92437885D01*
X122428500Y-83782670D01*
X128752160Y-83782670D01*
X128757887Y-83790320D01*
X128929042Y-83895205D01*
X128937837Y-83899687D01*
X129147988Y-83986734D01*
X129157373Y-83989783D01*
X129378554Y-84042885D01*
X129388301Y-84044428D01*
X129615070Y-84062275D01*
X129624930Y-84062275D01*
X129851699Y-84044428D01*
X129861446Y-84042885D01*
X130082627Y-83989783D01*
X130092012Y-83986734D01*
X130302163Y-83899687D01*
X130310958Y-83895205D01*
X130478445Y-83792568D01*
X130487907Y-83782110D01*
X130484124Y-83773334D01*
X129632812Y-82922022D01*
X129618868Y-82914408D01*
X129617035Y-82914539D01*
X129610420Y-82918790D01*
X128758920Y-83770290D01*
X128752160Y-83782670D01*
X122428500Y-83782670D01*
X122428500Y-82554930D01*
X128107725Y-82554930D01*
X128125572Y-82781699D01*
X128127115Y-82791446D01*
X128180217Y-83012627D01*
X128183266Y-83022012D01*
X128270313Y-83232163D01*
X128274795Y-83240958D01*
X128377432Y-83408445D01*
X128387890Y-83417907D01*
X128396666Y-83414124D01*
X129247978Y-82562812D01*
X129254356Y-82551132D01*
X129984408Y-82551132D01*
X129984539Y-82552965D01*
X129988790Y-82559580D01*
X130840290Y-83411080D01*
X130852670Y-83417840D01*
X130860320Y-83412113D01*
X130965205Y-83240958D01*
X130969687Y-83232163D01*
X131056734Y-83022012D01*
X131059783Y-83012627D01*
X131112885Y-82791446D01*
X131114428Y-82781699D01*
X131132275Y-82554930D01*
X131132275Y-82545070D01*
X131114428Y-82318301D01*
X131112885Y-82308554D01*
X131059783Y-82087373D01*
X131056734Y-82077988D01*
X130969687Y-81867837D01*
X130965205Y-81859042D01*
X130862568Y-81691555D01*
X130852110Y-81682093D01*
X130843334Y-81685876D01*
X129992022Y-82537188D01*
X129984408Y-82551132D01*
X129254356Y-82551132D01*
X129255592Y-82548868D01*
X129255461Y-82547035D01*
X129251210Y-82540420D01*
X128399710Y-81688920D01*
X128387330Y-81682160D01*
X128379680Y-81687887D01*
X128274795Y-81859042D01*
X128270313Y-81867837D01*
X128183266Y-82077988D01*
X128180217Y-82087373D01*
X128127115Y-82308554D01*
X128125572Y-82318301D01*
X128107725Y-82545070D01*
X128107725Y-82554930D01*
X122428500Y-82554930D01*
X122428500Y-81317890D01*
X128752093Y-81317890D01*
X128755876Y-81326666D01*
X129607188Y-82177978D01*
X129621132Y-82185592D01*
X129622965Y-82185461D01*
X129629580Y-82181210D01*
X130481080Y-81329710D01*
X130487840Y-81317330D01*
X130482113Y-81309680D01*
X130310958Y-81204795D01*
X130302163Y-81200313D01*
X130092012Y-81113266D01*
X130082627Y-81110217D01*
X129861446Y-81057115D01*
X129851699Y-81055572D01*
X129624930Y-81037725D01*
X129615070Y-81037725D01*
X129388301Y-81055572D01*
X129378554Y-81057115D01*
X129157373Y-81110217D01*
X129147988Y-81113266D01*
X128937837Y-81200313D01*
X128929042Y-81204795D01*
X128761555Y-81307432D01*
X128752093Y-81317890D01*
X122428500Y-81317890D01*
X122428500Y-73660000D01*
X123286411Y-73660000D01*
X123306754Y-74048176D01*
X123367562Y-74432099D01*
X123468167Y-74807562D01*
X123469352Y-74810650D01*
X123469353Y-74810652D01*
X123496419Y-74881161D01*
X123607468Y-75170453D01*
X123608966Y-75173393D01*
X123780504Y-75510054D01*
X123783938Y-75516794D01*
X123785734Y-75519560D01*
X123785736Y-75519563D01*
X123928453Y-75739329D01*
X123995643Y-75842793D01*
X124240266Y-76144876D01*
X124515124Y-76419734D01*
X124517682Y-76421806D01*
X124517686Y-76421809D01*
X124591139Y-76481290D01*
X124817207Y-76664357D01*
X124819970Y-76666152D01*
X124819971Y-76666152D01*
X125138147Y-76872777D01*
X125143205Y-76876062D01*
X125146139Y-76877557D01*
X125146146Y-76877561D01*
X125417268Y-77015704D01*
X125489547Y-77052532D01*
X125585456Y-77089348D01*
X125812974Y-77176684D01*
X125852438Y-77191833D01*
X126227901Y-77292438D01*
X126431793Y-77324732D01*
X126608576Y-77352732D01*
X126608584Y-77352733D01*
X126611824Y-77353246D01*
X127000000Y-77373589D01*
X127388176Y-77353246D01*
X127391416Y-77352733D01*
X127391424Y-77352732D01*
X127568207Y-77324732D01*
X127772099Y-77292438D01*
X128147562Y-77191833D01*
X128187027Y-77176684D01*
X128414544Y-77089348D01*
X128510453Y-77052532D01*
X128582732Y-77015704D01*
X128853854Y-76877561D01*
X128853861Y-76877557D01*
X128856795Y-76876062D01*
X128861854Y-76872777D01*
X129180029Y-76666152D01*
X129180030Y-76666152D01*
X129182793Y-76664357D01*
X129408861Y-76481290D01*
X129482314Y-76421809D01*
X129482318Y-76421806D01*
X129484876Y-76419734D01*
X129759734Y-76144876D01*
X130004357Y-75842793D01*
X130071547Y-75739329D01*
X130214264Y-75519563D01*
X130214266Y-75519560D01*
X130216062Y-75516794D01*
X130219497Y-75510054D01*
X130391034Y-75173393D01*
X130392532Y-75170453D01*
X130503581Y-74881161D01*
X130530647Y-74810652D01*
X130530648Y-74810650D01*
X130531833Y-74807562D01*
X130632438Y-74432099D01*
X130693246Y-74048176D01*
X130713589Y-73660000D01*
X130693246Y-73271824D01*
X130689487Y-73248087D01*
X130640820Y-72940824D01*
X130632438Y-72887901D01*
X130531833Y-72512438D01*
X130392532Y-72149547D01*
X130376824Y-72118718D01*
X130217561Y-71806147D01*
X130217557Y-71806140D01*
X130216062Y-71803206D01*
X130153827Y-71707371D01*
X130006152Y-71479971D01*
X130006152Y-71479970D01*
X130004357Y-71477207D01*
X129840069Y-71274329D01*
X129761809Y-71177686D01*
X129761806Y-71177682D01*
X129759734Y-71175124D01*
X129484876Y-70900266D01*
X129182793Y-70655643D01*
X128856795Y-70443938D01*
X128853861Y-70442443D01*
X128853854Y-70442439D01*
X128513393Y-70268966D01*
X128510453Y-70267468D01*
X128147562Y-70128167D01*
X127772099Y-70027562D01*
X127568207Y-69995268D01*
X127391424Y-69967268D01*
X127391416Y-69967267D01*
X127388176Y-69966754D01*
X127000000Y-69946411D01*
X126611824Y-69966754D01*
X126608584Y-69967267D01*
X126608576Y-69967268D01*
X126431793Y-69995268D01*
X126227901Y-70027562D01*
X125852438Y-70128167D01*
X125489547Y-70267468D01*
X125486607Y-70268966D01*
X125146147Y-70442439D01*
X125146140Y-70442443D01*
X125143206Y-70443938D01*
X124817207Y-70655643D01*
X124515124Y-70900266D01*
X124240266Y-71175124D01*
X124238194Y-71177682D01*
X124238191Y-71177686D01*
X124159931Y-71274329D01*
X123995643Y-71477207D01*
X123993848Y-71479970D01*
X123993848Y-71479971D01*
X123846174Y-71707371D01*
X123783938Y-71803206D01*
X123782443Y-71806140D01*
X123782439Y-71806147D01*
X123623176Y-72118718D01*
X123607468Y-72149547D01*
X123468167Y-72512438D01*
X123367562Y-72887901D01*
X123359180Y-72940824D01*
X123310514Y-73248087D01*
X123306754Y-73271824D01*
X123286411Y-73660000D01*
X122428500Y-73660000D01*
X122428500Y-69214500D01*
X122448502Y-69146379D01*
X122502158Y-69099886D01*
X122554500Y-69088500D01*
X169545500Y-69088500D01*
X169613621Y-69108502D01*
G37*
%TD.AperFunction*%
%TA.AperFunction,Conductor*%
G36*
X156532511Y-73648979D02*
G01*
X156576510Y-73652828D01*
X156576513Y-73652828D01*
X156581989Y-73653307D01*
X156600480Y-73651689D01*
X156621347Y-73651597D01*
X156636978Y-73652827D01*
X156714384Y-73658918D01*
X156733912Y-73662011D01*
X156853402Y-73690697D01*
X156872207Y-73696807D01*
X156985740Y-73743834D01*
X157003356Y-73752810D01*
X157108131Y-73817015D01*
X157124127Y-73828637D01*
X157195040Y-73889202D01*
X157209731Y-73904021D01*
X157221707Y-73918293D01*
X157225914Y-73921823D01*
X157225915Y-73921824D01*
X157235927Y-73930225D01*
X157250748Y-73944917D01*
X157311353Y-74015877D01*
X157322974Y-74031872D01*
X157387183Y-74136652D01*
X157396159Y-74154270D01*
X157443181Y-74267794D01*
X157449291Y-74286597D01*
X157477978Y-74406087D01*
X157477978Y-74406089D01*
X157481071Y-74425619D01*
X157488397Y-74518719D01*
X157488305Y-74539585D01*
X157486693Y-74558010D01*
X157487172Y-74563486D01*
X157487172Y-74563489D01*
X157491021Y-74607488D01*
X157491500Y-74618468D01*
X157491500Y-75504548D01*
X157491021Y-75515529D01*
X157490447Y-75522086D01*
X157486693Y-75565000D01*
X157487172Y-75570476D01*
X157488233Y-75582606D01*
X157488632Y-75589085D01*
X157502706Y-75983140D01*
X157502946Y-75985375D01*
X157502947Y-75985385D01*
X157547189Y-76396902D01*
X157547431Y-76399150D01*
X157547831Y-76401367D01*
X157547832Y-76401374D01*
X157621322Y-76808706D01*
X157621325Y-76808720D01*
X157621720Y-76810909D01*
X157625208Y-76824576D01*
X157724638Y-77214139D01*
X157724642Y-77214154D01*
X157725195Y-77216319D01*
X157725907Y-77218458D01*
X157848309Y-77586219D01*
X157857327Y-77613315D01*
X158017444Y-77999873D01*
X158204729Y-78374023D01*
X158205869Y-78375945D01*
X158205877Y-78375959D01*
X158394141Y-78693262D01*
X158418229Y-78733860D01*
X158656855Y-79077549D01*
X158658262Y-79079295D01*
X158658268Y-79079303D01*
X158750198Y-79193382D01*
X158919391Y-79403339D01*
X158920910Y-79404970D01*
X158920913Y-79404974D01*
X159188160Y-79692018D01*
X159192464Y-79696887D01*
X159203742Y-79710328D01*
X159207961Y-79713868D01*
X159241785Y-79742250D01*
X159249889Y-79749676D01*
X160711990Y-81211778D01*
X160746016Y-81274090D01*
X160740951Y-81344906D01*
X160711990Y-81389968D01*
X160249280Y-81852678D01*
X160236887Y-81863547D01*
X160232098Y-81867222D01*
X160215374Y-81880054D01*
X160210625Y-81885982D01*
X160205716Y-81892109D01*
X160189211Y-81909141D01*
X160079498Y-82002841D01*
X160063502Y-82014462D01*
X159921236Y-82101640D01*
X159903625Y-82110612D01*
X159749471Y-82174462D01*
X159730680Y-82180568D01*
X159693172Y-82189572D01*
X159624391Y-82206084D01*
X159553483Y-82202536D01*
X159530840Y-82192018D01*
X159400427Y-82114892D01*
X159400428Y-82114892D01*
X159393601Y-82110855D01*
X159385990Y-82108644D01*
X159385988Y-82108643D01*
X159333769Y-82093472D01*
X159233831Y-82064438D01*
X159227426Y-82063934D01*
X159227421Y-82063933D01*
X159198958Y-82061693D01*
X159198950Y-82061693D01*
X159196502Y-82061500D01*
X158038498Y-82061500D01*
X158036050Y-82061693D01*
X158036042Y-82061693D01*
X158007579Y-82063933D01*
X158007574Y-82063934D01*
X158001169Y-82064438D01*
X157901231Y-82093472D01*
X157849012Y-82108643D01*
X157849010Y-82108644D01*
X157841399Y-82110855D01*
X157834572Y-82114892D01*
X157834573Y-82114892D01*
X157705020Y-82191509D01*
X157705017Y-82191511D01*
X157698193Y-82195547D01*
X157580547Y-82313193D01*
X157578107Y-82317319D01*
X157521680Y-82358066D01*
X157450788Y-82361914D01*
X157389069Y-82326825D01*
X157380123Y-82316500D01*
X157373448Y-82307895D01*
X157267104Y-82201551D01*
X157254678Y-82191911D01*
X157125221Y-82115352D01*
X157110790Y-82109107D01*
X156964935Y-82066731D01*
X156952333Y-82064430D01*
X156923916Y-82062193D01*
X156918986Y-82062000D01*
X156614615Y-82062000D01*
X156599376Y-82066475D01*
X156598171Y-82067865D01*
X156596500Y-82075548D01*
X156596500Y-82885500D01*
X156576498Y-82953621D01*
X156522842Y-83000114D01*
X156470500Y-83011500D01*
X156214500Y-83011500D01*
X156146379Y-82991498D01*
X156099886Y-82937842D01*
X156088500Y-82885500D01*
X156088500Y-82080116D01*
X156084025Y-82064877D01*
X156082635Y-82063672D01*
X156074952Y-82062001D01*
X155766017Y-82062001D01*
X155761080Y-82062195D01*
X155732664Y-82064430D01*
X155720069Y-82066730D01*
X155574210Y-82109107D01*
X155559779Y-82115352D01*
X155430322Y-82191911D01*
X155417896Y-82201551D01*
X155311557Y-82307890D01*
X155299069Y-82323989D01*
X155241512Y-82365554D01*
X155170619Y-82369404D01*
X155108900Y-82334316D01*
X155086504Y-82302489D01*
X155075418Y-82280008D01*
X155058956Y-82246627D01*
X155052649Y-82231401D01*
X155049119Y-82221000D01*
X154993437Y-82056961D01*
X154989172Y-82041042D01*
X154953237Y-81860376D01*
X154951086Y-81844035D01*
X154941139Y-81692247D01*
X154941947Y-81667562D01*
X154942127Y-81666198D01*
X154942127Y-81666191D01*
X154943118Y-81658665D01*
X154939261Y-81623725D01*
X154938500Y-81609900D01*
X154938500Y-81597027D01*
X154939757Y-81579272D01*
X154942432Y-81560476D01*
X154943013Y-81556396D01*
X154943153Y-81543032D01*
X154941547Y-81529757D01*
X154940788Y-81520815D01*
X154940638Y-81517750D01*
X154931402Y-81329710D01*
X154928528Y-81271192D01*
X154928528Y-81271187D01*
X154928376Y-81268102D01*
X154887989Y-80995819D01*
X154885871Y-80987361D01*
X154865739Y-80906988D01*
X154821108Y-80728806D01*
X154733135Y-80482934D01*
X154729415Y-80472537D01*
X154729413Y-80472532D01*
X154728376Y-80469634D01*
X154722161Y-80456492D01*
X154612008Y-80223590D01*
X154612004Y-80223583D01*
X154610688Y-80220800D01*
X154509069Y-80051257D01*
X154470766Y-79987351D01*
X154470761Y-79987344D01*
X154469176Y-79984699D01*
X154467340Y-79982223D01*
X154467335Y-79982216D01*
X154307050Y-79766097D01*
X154307047Y-79766093D01*
X154305203Y-79763607D01*
X154175913Y-79620956D01*
X154177241Y-79619753D01*
X154175091Y-79618089D01*
X154174542Y-79618638D01*
X154168935Y-79613031D01*
X154164674Y-79608556D01*
X154146081Y-79588041D01*
X154138685Y-79579083D01*
X154133073Y-79571609D01*
X154130593Y-79568306D01*
X154121242Y-79558758D01*
X154096745Y-79539550D01*
X154085396Y-79529492D01*
X153970144Y-79414239D01*
X153958479Y-79400796D01*
X153947090Y-79385627D01*
X153947089Y-79385626D01*
X153944610Y-79382324D01*
X153935259Y-79372775D01*
X153923207Y-79363324D01*
X153917023Y-79358146D01*
X153891383Y-79335232D01*
X153853920Y-79274927D01*
X153855007Y-79203939D01*
X153894300Y-79144807D01*
X153921473Y-79127381D01*
X153928393Y-79124108D01*
X154094200Y-79045688D01*
X154330300Y-78904176D01*
X154380418Y-78867006D01*
X154548903Y-78742050D01*
X154548907Y-78742047D01*
X154551393Y-78740203D01*
X154694047Y-78610910D01*
X154695252Y-78612239D01*
X154696912Y-78610094D01*
X154696360Y-78609542D01*
X154701967Y-78603935D01*
X154701976Y-78603928D01*
X154706423Y-78599693D01*
X154726970Y-78581071D01*
X154735928Y-78573675D01*
X154737268Y-78572669D01*
X154746693Y-78565592D01*
X154756241Y-78556241D01*
X154775449Y-78531744D01*
X154785507Y-78520395D01*
X154900756Y-78405147D01*
X154914199Y-78393482D01*
X154917831Y-78390755D01*
X154932675Y-78379610D01*
X154942224Y-78370260D01*
X154944771Y-78367012D01*
X154951610Y-78358291D01*
X154956811Y-78352080D01*
X155012177Y-78290127D01*
X155040879Y-78258010D01*
X155050748Y-78248129D01*
X155063188Y-78236984D01*
X155071458Y-78229574D01*
X155164908Y-78118047D01*
X155194253Y-78083026D01*
X155194298Y-78082971D01*
X155194390Y-78082862D01*
X155199498Y-78076668D01*
X155217721Y-78054216D01*
X155307489Y-77943616D01*
X155307545Y-77943547D01*
X155307615Y-77943460D01*
X155308369Y-77942516D01*
X155312675Y-77937120D01*
X155312849Y-77936902D01*
X155364181Y-77871502D01*
X155403424Y-77821504D01*
X155403471Y-77821443D01*
X155403557Y-77821334D01*
X155408159Y-77815382D01*
X155486729Y-77712201D01*
X155489677Y-77708291D01*
X155561493Y-77612090D01*
X155561927Y-77611507D01*
X155630446Y-77519451D01*
X155631015Y-77518692D01*
X155700543Y-77426734D01*
X155701639Y-77425306D01*
X155777708Y-77327629D01*
X155779015Y-77325980D01*
X155868293Y-77215374D01*
X155869623Y-77213756D01*
X155976067Y-77086485D01*
X155977880Y-77083705D01*
X155978096Y-77083489D01*
X155980797Y-77079731D01*
X156105435Y-76906277D01*
X156108453Y-76902077D01*
X156114492Y-76889859D01*
X156205136Y-76706453D01*
X156205137Y-76706451D01*
X156207430Y-76701811D01*
X156272370Y-76488069D01*
X156301529Y-76266590D01*
X156301628Y-76262548D01*
X156303074Y-76203365D01*
X156303074Y-76203361D01*
X156303156Y-76200000D01*
X156284852Y-75977361D01*
X156230431Y-75760702D01*
X156141354Y-75555840D01*
X156020014Y-75368277D01*
X155869670Y-75203051D01*
X155865619Y-75199852D01*
X155865615Y-75199848D01*
X155698414Y-75067800D01*
X155698410Y-75067798D01*
X155694359Y-75064598D01*
X155658028Y-75044542D01*
X155642136Y-75035769D01*
X155498789Y-74956638D01*
X155493920Y-74954914D01*
X155493916Y-74954912D01*
X155293087Y-74883795D01*
X155293083Y-74883794D01*
X155288212Y-74882069D01*
X155283119Y-74881162D01*
X155283116Y-74881161D01*
X155073373Y-74843800D01*
X155073367Y-74843799D01*
X155068284Y-74842894D01*
X154994452Y-74841992D01*
X154850081Y-74840228D01*
X154850079Y-74840228D01*
X154844911Y-74840165D01*
X154624091Y-74873955D01*
X154411756Y-74943357D01*
X154213607Y-75046507D01*
X154209474Y-75049610D01*
X154209471Y-75049612D01*
X154052635Y-75167368D01*
X154034965Y-75180635D01*
X154031393Y-75184373D01*
X153923729Y-75297037D01*
X153880629Y-75342138D01*
X153877715Y-75346410D01*
X153877714Y-75346411D01*
X153772898Y-75500066D01*
X153717987Y-75545069D01*
X153647462Y-75553240D01*
X153583715Y-75521986D01*
X153563018Y-75497502D01*
X153482426Y-75372926D01*
X153476136Y-75364757D01*
X153332806Y-75207240D01*
X153325273Y-75200215D01*
X153158139Y-75068222D01*
X153149552Y-75062517D01*
X152963117Y-74959599D01*
X152953705Y-74955369D01*
X152752959Y-74884280D01*
X152742988Y-74881646D01*
X152671837Y-74868972D01*
X152658540Y-74870432D01*
X152654000Y-74884989D01*
X152654000Y-77518517D01*
X152658064Y-77532359D01*
X152671478Y-77534393D01*
X152678184Y-77533534D01*
X152688262Y-77531392D01*
X152892255Y-77470191D01*
X152901842Y-77466433D01*
X153093095Y-77372739D01*
X153101945Y-77367464D01*
X153275328Y-77243792D01*
X153283200Y-77237139D01*
X153434052Y-77086812D01*
X153440723Y-77078972D01*
X153564190Y-76907150D01*
X153620185Y-76863502D01*
X153690888Y-76857056D01*
X153753853Y-76889859D01*
X153775446Y-76917355D01*
X153783959Y-76932000D01*
X153783981Y-76932037D01*
X153784402Y-76932761D01*
X153866774Y-77065946D01*
X153875606Y-77079731D01*
X153876020Y-77080355D01*
X153876333Y-77080811D01*
X153876346Y-77080830D01*
X153882197Y-77089348D01*
X153885343Y-77093929D01*
X153972355Y-77216366D01*
X153976290Y-77221828D01*
X154044123Y-77314676D01*
X154068158Y-77381479D01*
X154052260Y-77450673D01*
X154040716Y-77467787D01*
X154028303Y-77483281D01*
X154022518Y-77490501D01*
X154013280Y-77500814D01*
X153892418Y-77621676D01*
X153880027Y-77632543D01*
X153864535Y-77644430D01*
X153864533Y-77644432D01*
X153858507Y-77649056D01*
X153853757Y-77654985D01*
X153847321Y-77663019D01*
X153832065Y-77678971D01*
X153798889Y-77708066D01*
X153712345Y-77783963D01*
X153699276Y-77793991D01*
X153546105Y-77896335D01*
X153531845Y-77904568D01*
X153399376Y-77969894D01*
X153366629Y-77986043D01*
X153351404Y-77992350D01*
X153176962Y-78051563D01*
X153161042Y-78055828D01*
X152980376Y-78091763D01*
X152964035Y-78093914D01*
X152812247Y-78103861D01*
X152787562Y-78103053D01*
X152786198Y-78102873D01*
X152786191Y-78102873D01*
X152778665Y-78101882D01*
X152743725Y-78105739D01*
X152729900Y-78106500D01*
X151768381Y-78106500D01*
X151750628Y-78105243D01*
X151731833Y-78102568D01*
X151731830Y-78102568D01*
X151727749Y-78101987D01*
X151721129Y-78101918D01*
X151718511Y-78101890D01*
X151718508Y-78101890D01*
X151714385Y-78101847D01*
X151710292Y-78102342D01*
X151710278Y-78102343D01*
X151707161Y-78102720D01*
X151699098Y-78103434D01*
X151465289Y-78116566D01*
X151435392Y-78118245D01*
X151431917Y-78118835D01*
X151431912Y-78118836D01*
X151326993Y-78136664D01*
X151159907Y-78165054D01*
X151156516Y-78166031D01*
X151156507Y-78166033D01*
X150935956Y-78229574D01*
X150891395Y-78242412D01*
X150888133Y-78243763D01*
X150888125Y-78243766D01*
X150667718Y-78335062D01*
X150597128Y-78342651D01*
X150533641Y-78310872D01*
X150497414Y-78249814D01*
X150493500Y-78218653D01*
X150493500Y-77942516D01*
X150495874Y-77918174D01*
X150497518Y-77909823D01*
X150498389Y-77905400D01*
X150506053Y-77757058D01*
X150507844Y-77741425D01*
X150513068Y-77712153D01*
X150521705Y-77663747D01*
X150526293Y-77645796D01*
X150541405Y-77600766D01*
X150548758Y-77583326D01*
X150567634Y-77546544D01*
X150575666Y-77533038D01*
X150609631Y-77483279D01*
X150615311Y-77475599D01*
X150621561Y-77467787D01*
X150675066Y-77400913D01*
X150676518Y-77399133D01*
X150748214Y-77312916D01*
X150756764Y-77302635D01*
X150756775Y-77302621D01*
X150757035Y-77302309D01*
X150762397Y-77295753D01*
X150762635Y-77295457D01*
X150762729Y-77295338D01*
X150762832Y-77295209D01*
X150767505Y-77289300D01*
X150767552Y-77289240D01*
X150767730Y-77289015D01*
X150855129Y-77176684D01*
X150865554Y-77162807D01*
X150866021Y-77162163D01*
X150876771Y-77146754D01*
X150964672Y-77015704D01*
X150969704Y-77007816D01*
X150976962Y-76996440D01*
X150976972Y-76996423D01*
X150977356Y-76995822D01*
X150977913Y-76994903D01*
X150978237Y-76994339D01*
X150978258Y-76994304D01*
X150989330Y-76975049D01*
X150989678Y-76974444D01*
X151022930Y-76913421D01*
X151073087Y-76863177D01*
X151142447Y-76848024D01*
X151208989Y-76872777D01*
X151241001Y-76907876D01*
X151297688Y-77000380D01*
X151303777Y-77008699D01*
X151443213Y-77169667D01*
X151450580Y-77176883D01*
X151614434Y-77312916D01*
X151622881Y-77318831D01*
X151806756Y-77426279D01*
X151816042Y-77430729D01*
X152015001Y-77506703D01*
X152024899Y-77509579D01*
X152128250Y-77530606D01*
X152142299Y-77529410D01*
X152146000Y-77519065D01*
X152146000Y-74883102D01*
X152142082Y-74869758D01*
X152127806Y-74867771D01*
X152089324Y-74873660D01*
X152079288Y-74876051D01*
X151876868Y-74942212D01*
X151867359Y-74946209D01*
X151678463Y-75044542D01*
X151669738Y-75050036D01*
X151499433Y-75177905D01*
X151491726Y-75184748D01*
X151344590Y-75338717D01*
X151338109Y-75346722D01*
X151233498Y-75500074D01*
X151178587Y-75545076D01*
X151108062Y-75553247D01*
X151044315Y-75521993D01*
X151023618Y-75497509D01*
X150942822Y-75372617D01*
X150942820Y-75372614D01*
X150940014Y-75368277D01*
X150789670Y-75203051D01*
X150785619Y-75199852D01*
X150785615Y-75199848D01*
X150618414Y-75067800D01*
X150618410Y-75067798D01*
X150614359Y-75064598D01*
X150578028Y-75044542D01*
X150562136Y-75035769D01*
X150418789Y-74956638D01*
X150413920Y-74954914D01*
X150413916Y-74954912D01*
X150213087Y-74883795D01*
X150213083Y-74883794D01*
X150208212Y-74882069D01*
X150203119Y-74881162D01*
X150203116Y-74881161D01*
X149993373Y-74843800D01*
X149993367Y-74843799D01*
X149988284Y-74842894D01*
X149914452Y-74841992D01*
X149770081Y-74840228D01*
X149770079Y-74840228D01*
X149764911Y-74840165D01*
X149544091Y-74873955D01*
X149331756Y-74943357D01*
X149133607Y-75046507D01*
X149129474Y-75049610D01*
X149129471Y-75049612D01*
X148972635Y-75167368D01*
X148954965Y-75180635D01*
X148898537Y-75239684D01*
X148874283Y-75265064D01*
X148812759Y-75300494D01*
X148741846Y-75297037D01*
X148684060Y-75255791D01*
X148665207Y-75222243D01*
X148623767Y-75111703D01*
X148620615Y-75103295D01*
X148533261Y-74986739D01*
X148416705Y-74899385D01*
X148280316Y-74848255D01*
X148218134Y-74841500D01*
X146421866Y-74841500D01*
X146359684Y-74848255D01*
X146223295Y-74899385D01*
X146106739Y-74986739D01*
X146019385Y-75103295D01*
X145968255Y-75239684D01*
X145961500Y-75301866D01*
X145961500Y-77098134D01*
X145968255Y-77160316D01*
X146019385Y-77296705D01*
X146106739Y-77413261D01*
X146223295Y-77500615D01*
X146359684Y-77551745D01*
X146421866Y-77558500D01*
X146533789Y-77558500D01*
X146601910Y-77578502D01*
X146648403Y-77632158D01*
X146653254Y-77644448D01*
X146653718Y-77645832D01*
X146658294Y-77663750D01*
X146672155Y-77741427D01*
X146673946Y-77757058D01*
X146681611Y-77905402D01*
X146684546Y-77937120D01*
X146685455Y-77946949D01*
X146685179Y-77946975D01*
X146686500Y-77961292D01*
X146686500Y-78236984D01*
X146685243Y-78254740D01*
X146684105Y-78262738D01*
X146681987Y-78277615D01*
X146681847Y-78290979D01*
X146682658Y-78297678D01*
X146683556Y-78305101D01*
X146684198Y-78311994D01*
X146690303Y-78405147D01*
X146697544Y-78515642D01*
X146698347Y-78519681D01*
X146698348Y-78519686D01*
X146716476Y-78610826D01*
X146741465Y-78736461D01*
X146742794Y-78740376D01*
X146798396Y-78904176D01*
X146813834Y-78949657D01*
X146913412Y-79151584D01*
X147038495Y-79338785D01*
X147041209Y-79341879D01*
X147041213Y-79341885D01*
X147160288Y-79477663D01*
X147166302Y-79485070D01*
X147176907Y-79499194D01*
X147181380Y-79503761D01*
X147181557Y-79503992D01*
X147181785Y-79504174D01*
X147186258Y-79508742D01*
X147189500Y-79511284D01*
X147192177Y-79513383D01*
X147211826Y-79532600D01*
X147217531Y-79539551D01*
X147237699Y-79564126D01*
X147251421Y-79584663D01*
X147281352Y-79640660D01*
X147290804Y-79663480D01*
X147309237Y-79724245D01*
X147314055Y-79748463D01*
X147317724Y-79785721D01*
X147317454Y-79802188D01*
X147317953Y-79802193D01*
X147317874Y-79809791D01*
X147316882Y-79817322D01*
X147317716Y-79824873D01*
X147320739Y-79852262D01*
X147321500Y-79866087D01*
X147321500Y-80020050D01*
X147301498Y-80088171D01*
X147290941Y-80101271D01*
X147291011Y-80101325D01*
X147286155Y-80107585D01*
X147280547Y-80113193D01*
X147276511Y-80120017D01*
X147276509Y-80120020D01*
X147270903Y-80129500D01*
X147195855Y-80256399D01*
X147193644Y-80264010D01*
X147193643Y-80264012D01*
X147185372Y-80292482D01*
X147149438Y-80416169D01*
X147148934Y-80422574D01*
X147148933Y-80422579D01*
X147146693Y-80451042D01*
X147146500Y-80453498D01*
X147146500Y-82236502D01*
X147149438Y-82273831D01*
X147168314Y-82338804D01*
X147193162Y-82424330D01*
X147195855Y-82433601D01*
X147199892Y-82440427D01*
X147276509Y-82569980D01*
X147276511Y-82569983D01*
X147280547Y-82576807D01*
X147398193Y-82694453D01*
X147405017Y-82698489D01*
X147405020Y-82698491D01*
X147494476Y-82751395D01*
X147541399Y-82779145D01*
X147549010Y-82781356D01*
X147549012Y-82781357D01*
X147591567Y-82793720D01*
X147701169Y-82825562D01*
X147707574Y-82826066D01*
X147707579Y-82826067D01*
X147736042Y-82828307D01*
X147736050Y-82828307D01*
X147738498Y-82828500D01*
X148171502Y-82828500D01*
X148173950Y-82828307D01*
X148173958Y-82828307D01*
X148202421Y-82826067D01*
X148202426Y-82826066D01*
X148208831Y-82825562D01*
X148318433Y-82793720D01*
X148360988Y-82781357D01*
X148360990Y-82781356D01*
X148368601Y-82779145D01*
X148511807Y-82694453D01*
X148514489Y-82691771D01*
X148578861Y-82666498D01*
X148648484Y-82680400D01*
X148664312Y-82690572D01*
X148668193Y-82694453D01*
X148811399Y-82779145D01*
X148819010Y-82781356D01*
X148819012Y-82781357D01*
X148861567Y-82793720D01*
X148971169Y-82825562D01*
X148977574Y-82826066D01*
X148977579Y-82826067D01*
X149006042Y-82828307D01*
X149006050Y-82828307D01*
X149008498Y-82828500D01*
X149011231Y-82828500D01*
X149011272Y-82828512D01*
X149013439Y-82828597D01*
X149013418Y-82829142D01*
X149079352Y-82848502D01*
X149125845Y-82902158D01*
X149135949Y-82972432D01*
X149106455Y-83037012D01*
X149101284Y-83042509D01*
X149096008Y-83046557D01*
X149091262Y-83052481D01*
X149091256Y-83052487D01*
X149088328Y-83056142D01*
X149069929Y-83074758D01*
X149035873Y-83102707D01*
X149015344Y-83116425D01*
X148959338Y-83146361D01*
X148936524Y-83155810D01*
X148875761Y-83174242D01*
X148851534Y-83179061D01*
X148814305Y-83182727D01*
X148797809Y-83182457D01*
X148797804Y-83182953D01*
X148790211Y-83182874D01*
X148782678Y-83181882D01*
X148747738Y-83185739D01*
X148733913Y-83186500D01*
X148643995Y-83186500D01*
X148626241Y-83185243D01*
X148603364Y-83181987D01*
X148597253Y-83181923D01*
X148594135Y-83181890D01*
X148594130Y-83181890D01*
X148590000Y-83181847D01*
X148574918Y-83183672D01*
X148566863Y-83184386D01*
X148347043Y-83196730D01*
X148107142Y-83237492D01*
X148103739Y-83238472D01*
X148103732Y-83238474D01*
X147876721Y-83303876D01*
X147876718Y-83303877D01*
X147873313Y-83304858D01*
X147870051Y-83306209D01*
X147870043Y-83306212D01*
X147651758Y-83396630D01*
X147651755Y-83396632D01*
X147648497Y-83397981D01*
X147645412Y-83399686D01*
X147645408Y-83399688D01*
X147461968Y-83501074D01*
X147435521Y-83515691D01*
X147237064Y-83656506D01*
X147144774Y-83738983D01*
X147119582Y-83761496D01*
X147119409Y-83761640D01*
X147114625Y-83764470D01*
X147103437Y-83775658D01*
X147098302Y-83780514D01*
X147085710Y-83791767D01*
X147077405Y-83798575D01*
X147067585Y-83805948D01*
X147067581Y-83805952D01*
X147064288Y-83808424D01*
X147061347Y-83811304D01*
X147061340Y-83811310D01*
X147057690Y-83814885D01*
X147054739Y-83817775D01*
X147052191Y-83821025D01*
X147035526Y-83842279D01*
X147025466Y-83853629D01*
X145420283Y-85458811D01*
X145406841Y-85470476D01*
X145388360Y-85484352D01*
X145378811Y-85493703D01*
X145376263Y-85496953D01*
X145375600Y-85497693D01*
X145370437Y-85503781D01*
X145132253Y-85763712D01*
X145132246Y-85763720D01*
X145130388Y-85765748D01*
X144963894Y-85982727D01*
X144924462Y-86034115D01*
X144867124Y-86075982D01*
X144796253Y-86080204D01*
X144734350Y-86045440D01*
X144701069Y-85982727D01*
X144698500Y-85957411D01*
X144698500Y-84771866D01*
X144691745Y-84709684D01*
X144640615Y-84573295D01*
X144553261Y-84456739D01*
X144436705Y-84369385D01*
X144300316Y-84318255D01*
X144238134Y-84311500D01*
X143746229Y-84311500D01*
X143678108Y-84291498D01*
X143631615Y-84237842D01*
X143620229Y-84185500D01*
X143620229Y-81520000D01*
X143615000Y-81446889D01*
X143579699Y-81326666D01*
X143576343Y-81315235D01*
X143576342Y-81315233D01*
X143573804Y-81306589D01*
X143532460Y-81242257D01*
X143499622Y-81191159D01*
X143499620Y-81191156D01*
X143494750Y-81183579D01*
X143460566Y-81153958D01*
X143391055Y-81093726D01*
X143391052Y-81093724D01*
X143384243Y-81087824D01*
X143372158Y-81082305D01*
X143368928Y-81079506D01*
X143368464Y-81079208D01*
X143368507Y-81079141D01*
X143318502Y-81035812D01*
X143298500Y-80967691D01*
X143298500Y-79979428D01*
X143318502Y-79911307D01*
X143352888Y-79877505D01*
X143352388Y-79876875D01*
X143358120Y-79872332D01*
X143364348Y-79868478D01*
X143489305Y-79743303D01*
X143509631Y-79710328D01*
X143578275Y-79598968D01*
X143578276Y-79598966D01*
X143582115Y-79592738D01*
X143619092Y-79481255D01*
X143635632Y-79431389D01*
X143635632Y-79431387D01*
X143637797Y-79424861D01*
X143638886Y-79414239D01*
X143644634Y-79358129D01*
X143648500Y-79320400D01*
X143648500Y-78569600D01*
X143648084Y-78565592D01*
X143638238Y-78470692D01*
X143638237Y-78470688D01*
X143637526Y-78463834D01*
X143617947Y-78405147D01*
X143583868Y-78303002D01*
X143581550Y-78296054D01*
X143488478Y-78145652D01*
X143363303Y-78020695D01*
X143313015Y-77989697D01*
X143218968Y-77931725D01*
X143218966Y-77931724D01*
X143212738Y-77927885D01*
X143112594Y-77894669D01*
X143051389Y-77874368D01*
X143051387Y-77874368D01*
X143044861Y-77872203D01*
X143038025Y-77871503D01*
X143038022Y-77871502D01*
X142989180Y-77866498D01*
X142940400Y-77861500D01*
X141539600Y-77861500D01*
X141536354Y-77861837D01*
X141536350Y-77861837D01*
X141440692Y-77871762D01*
X141440688Y-77871763D01*
X141433834Y-77872474D01*
X141427298Y-77874655D01*
X141427296Y-77874655D01*
X141411204Y-77880024D01*
X141371328Y-77886500D01*
X136004500Y-77886500D01*
X135936379Y-77866498D01*
X135889886Y-77812842D01*
X135878500Y-77760500D01*
X135878500Y-76367095D01*
X140832001Y-76367095D01*
X140832338Y-76373614D01*
X140842257Y-76469206D01*
X140845149Y-76482600D01*
X140896588Y-76636784D01*
X140902761Y-76649962D01*
X140988063Y-76787807D01*
X140997099Y-76799208D01*
X141111829Y-76913739D01*
X141123240Y-76922751D01*
X141261243Y-77007816D01*
X141274424Y-77013963D01*
X141428710Y-77065138D01*
X141442086Y-77068005D01*
X141536438Y-77077672D01*
X141542854Y-77078000D01*
X141967885Y-77078000D01*
X141983124Y-77073525D01*
X141984329Y-77072135D01*
X141986000Y-77064452D01*
X141986000Y-77059884D01*
X142494000Y-77059884D01*
X142498475Y-77075123D01*
X142499865Y-77076328D01*
X142507548Y-77077999D01*
X142937095Y-77077999D01*
X142943614Y-77077662D01*
X143039206Y-77067743D01*
X143052600Y-77064851D01*
X143206784Y-77013412D01*
X143219962Y-77007239D01*
X143357807Y-76921937D01*
X143369208Y-76912901D01*
X143483739Y-76798171D01*
X143492751Y-76786760D01*
X143577816Y-76648757D01*
X143583963Y-76635576D01*
X143635138Y-76481290D01*
X143638005Y-76467914D01*
X143647672Y-76373562D01*
X143648000Y-76367146D01*
X143648000Y-76267115D01*
X143643525Y-76251876D01*
X143642135Y-76250671D01*
X143634452Y-76249000D01*
X142512115Y-76249000D01*
X142496876Y-76253475D01*
X142495671Y-76254865D01*
X142494000Y-76262548D01*
X142494000Y-77059884D01*
X141986000Y-77059884D01*
X141986000Y-76267115D01*
X141981525Y-76251876D01*
X141980135Y-76250671D01*
X141972452Y-76249000D01*
X140850116Y-76249000D01*
X140834877Y-76253475D01*
X140833672Y-76254865D01*
X140832001Y-76262548D01*
X140832001Y-76367095D01*
X135878500Y-76367095D01*
X135878500Y-75722885D01*
X140832000Y-75722885D01*
X140836475Y-75738124D01*
X140837865Y-75739329D01*
X140845548Y-75741000D01*
X141967885Y-75741000D01*
X141983124Y-75736525D01*
X141984329Y-75735135D01*
X141986000Y-75727452D01*
X141986000Y-75722885D01*
X142494000Y-75722885D01*
X142498475Y-75738124D01*
X142499865Y-75739329D01*
X142507548Y-75741000D01*
X143629884Y-75741000D01*
X143645123Y-75736525D01*
X143646328Y-75735135D01*
X143647999Y-75727452D01*
X143647999Y-75622905D01*
X143647662Y-75616386D01*
X143637743Y-75520794D01*
X143634851Y-75507400D01*
X143583412Y-75353216D01*
X143577239Y-75340038D01*
X143491937Y-75202193D01*
X143482901Y-75190792D01*
X143368171Y-75076261D01*
X143356760Y-75067249D01*
X143218757Y-74982184D01*
X143205576Y-74976037D01*
X143051290Y-74924862D01*
X143037914Y-74921995D01*
X142943562Y-74912328D01*
X142937145Y-74912000D01*
X142512115Y-74912000D01*
X142496876Y-74916475D01*
X142495671Y-74917865D01*
X142494000Y-74925548D01*
X142494000Y-75722885D01*
X141986000Y-75722885D01*
X141986000Y-74930116D01*
X141981525Y-74914877D01*
X141980135Y-74913672D01*
X141972452Y-74912001D01*
X141542905Y-74912001D01*
X141536386Y-74912338D01*
X141440794Y-74922257D01*
X141427400Y-74925149D01*
X141273216Y-74976588D01*
X141260038Y-74982761D01*
X141122193Y-75068063D01*
X141110792Y-75077099D01*
X140996261Y-75191829D01*
X140987249Y-75203240D01*
X140902184Y-75341243D01*
X140896037Y-75354424D01*
X140844862Y-75508710D01*
X140841995Y-75522086D01*
X140832328Y-75616438D01*
X140832000Y-75622855D01*
X140832000Y-75722885D01*
X135878500Y-75722885D01*
X135878500Y-74618468D01*
X135878979Y-74607488D01*
X135882828Y-74563489D01*
X135882828Y-74563486D01*
X135883307Y-74558010D01*
X135881689Y-74539519D01*
X135881597Y-74518652D01*
X135888408Y-74432099D01*
X135888918Y-74425614D01*
X135892011Y-74406087D01*
X135920697Y-74286598D01*
X135926807Y-74267793D01*
X135973834Y-74154259D01*
X135982810Y-74136643D01*
X136047015Y-74031869D01*
X136058637Y-74015873D01*
X136119202Y-73944960D01*
X136134021Y-73930269D01*
X136144084Y-73921825D01*
X136144085Y-73921824D01*
X136148293Y-73918293D01*
X136160227Y-73904071D01*
X136174918Y-73889251D01*
X136245877Y-73828647D01*
X136261872Y-73817026D01*
X136366652Y-73752817D01*
X136384270Y-73743841D01*
X136497794Y-73696819D01*
X136516597Y-73690709D01*
X136537667Y-73685651D01*
X136636092Y-73662022D01*
X136655618Y-73658929D01*
X136727064Y-73653307D01*
X136748719Y-73651603D01*
X136769585Y-73651695D01*
X136775531Y-73652215D01*
X136788010Y-73653307D01*
X136793486Y-73652828D01*
X136793489Y-73652828D01*
X136837488Y-73648979D01*
X136848468Y-73648500D01*
X156521531Y-73648500D01*
X156532511Y-73648979D01*
G37*
%TD.AperFunction*%
%TD*%
%TA.AperFunction,Conductor*%
%TO.N,+5V*%
G36*
X163900184Y-82574123D02*
G01*
X163905422Y-82581836D01*
X163964185Y-82892663D01*
X163964298Y-82893383D01*
X164003339Y-83205355D01*
X164003400Y-83205970D01*
X164024733Y-83503214D01*
X164024758Y-83503724D01*
X164032562Y-83781734D01*
X164032567Y-83782128D01*
X164031664Y-83931780D01*
X164031031Y-84036583D01*
X164031026Y-84036840D01*
X164024337Y-84263319D01*
X164016687Y-84457331D01*
X164016686Y-84457355D01*
X164014104Y-84549373D01*
X164012282Y-84614319D01*
X164015319Y-84729850D01*
X164028599Y-84792845D01*
X164028723Y-84793435D01*
X164027077Y-84802237D01*
X164025712Y-84803953D01*
X163273433Y-85586231D01*
X163265229Y-85589819D01*
X163256567Y-85586231D01*
X162504840Y-84804527D01*
X162501576Y-84796190D01*
X162502133Y-84792845D01*
X162518935Y-84740477D01*
X162519046Y-84740132D01*
X162520884Y-84730376D01*
X162537580Y-84641775D01*
X162537580Y-84641772D01*
X162537614Y-84641594D01*
X162553793Y-84507680D01*
X162565672Y-84342187D01*
X162571342Y-84148917D01*
X162568891Y-83931668D01*
X162561031Y-83782133D01*
X162556416Y-83694351D01*
X162556415Y-83694343D01*
X162556410Y-83694240D01*
X162538079Y-83503724D01*
X162532003Y-83440573D01*
X162532001Y-83440556D01*
X162531989Y-83440432D01*
X162493717Y-83174044D01*
X162441879Y-82910047D01*
X162443648Y-82901269D01*
X162450794Y-82896378D01*
X163891360Y-82572594D01*
X163900184Y-82574123D01*
G37*
%TD.AperFunction*%
%TD*%
%TA.AperFunction,Conductor*%
%TO.N,Net-(C6-Pad1)*%
G36*
X141250306Y-98455958D02*
G01*
X141777646Y-98963075D01*
X142180000Y-99350000D01*
X141680000Y-99830826D01*
X141678408Y-99832357D01*
X141250306Y-100244042D01*
X141241967Y-100247307D01*
X141236574Y-100245870D01*
X141192639Y-100221796D01*
X141056331Y-100147106D01*
X141055369Y-100146516D01*
X140900408Y-100040916D01*
X140899701Y-100040394D01*
X140767461Y-99934900D01*
X140767132Y-99934629D01*
X140648120Y-99832379D01*
X140533109Y-99736787D01*
X140532928Y-99736658D01*
X140413116Y-99651467D01*
X140413111Y-99651464D01*
X140412813Y-99651252D01*
X140354520Y-99620075D01*
X140278195Y-99579254D01*
X140278190Y-99579252D01*
X140277794Y-99579040D01*
X140166016Y-99539982D01*
X140119042Y-99523567D01*
X140119039Y-99523566D01*
X140118612Y-99523417D01*
X140118172Y-99523335D01*
X140118167Y-99523334D01*
X139959973Y-99493983D01*
X139925827Y-99487648D01*
X139701073Y-99475594D01*
X139692996Y-99471729D01*
X139690000Y-99463911D01*
X139690000Y-99236089D01*
X139693427Y-99227816D01*
X139701073Y-99224406D01*
X139925827Y-99212351D01*
X139959973Y-99206016D01*
X140118167Y-99176665D01*
X140118172Y-99176664D01*
X140118612Y-99176582D01*
X140119039Y-99176433D01*
X140119042Y-99176432D01*
X140166016Y-99160017D01*
X140277794Y-99120959D01*
X140278190Y-99120747D01*
X140278195Y-99120745D01*
X140354520Y-99079924D01*
X140412813Y-99048747D01*
X140413111Y-99048535D01*
X140413116Y-99048532D01*
X140532928Y-98963341D01*
X140532933Y-98963337D01*
X140533109Y-98963212D01*
X140648120Y-98867620D01*
X140767137Y-98765366D01*
X140767461Y-98765099D01*
X140899701Y-98659605D01*
X140900408Y-98659083D01*
X141055369Y-98553483D01*
X141056331Y-98552893D01*
X141236574Y-98454130D01*
X141245476Y-98453160D01*
X141250306Y-98455958D01*
G37*
%TD.AperFunction*%
%TD*%
%TA.AperFunction,Conductor*%
%TO.N,Net-(C6-Pad1)*%
G36*
X135623426Y-98454130D02*
G01*
X135803668Y-98552893D01*
X135804630Y-98553483D01*
X135959591Y-98659083D01*
X135960298Y-98659605D01*
X136092538Y-98765099D01*
X136092862Y-98765366D01*
X136211879Y-98867620D01*
X136326890Y-98963212D01*
X136327066Y-98963337D01*
X136327071Y-98963341D01*
X136446883Y-99048532D01*
X136446888Y-99048535D01*
X136447186Y-99048747D01*
X136505479Y-99079924D01*
X136581804Y-99120745D01*
X136581809Y-99120747D01*
X136582205Y-99120959D01*
X136693983Y-99160017D01*
X136740957Y-99176432D01*
X136740960Y-99176433D01*
X136741387Y-99176582D01*
X136741827Y-99176664D01*
X136741832Y-99176665D01*
X136900026Y-99206016D01*
X136934172Y-99212351D01*
X137158927Y-99224406D01*
X137167004Y-99228271D01*
X137170000Y-99236089D01*
X137170000Y-99463911D01*
X137166573Y-99472184D01*
X137158927Y-99475594D01*
X136934172Y-99487648D01*
X136900026Y-99493983D01*
X136741832Y-99523334D01*
X136741827Y-99523335D01*
X136741387Y-99523417D01*
X136740960Y-99523566D01*
X136740957Y-99523567D01*
X136693983Y-99539982D01*
X136582205Y-99579040D01*
X136581809Y-99579252D01*
X136581804Y-99579254D01*
X136505479Y-99620075D01*
X136447186Y-99651252D01*
X136446888Y-99651464D01*
X136446883Y-99651467D01*
X136327071Y-99736658D01*
X136326890Y-99736787D01*
X136211879Y-99832379D01*
X136092867Y-99934629D01*
X136092538Y-99934900D01*
X135960298Y-100040394D01*
X135959591Y-100040916D01*
X135804630Y-100146516D01*
X135803668Y-100147106D01*
X135659858Y-100225907D01*
X135623426Y-100245870D01*
X135614524Y-100246840D01*
X135609694Y-100244042D01*
X134810602Y-99475594D01*
X134688769Y-99358433D01*
X134685181Y-99350229D01*
X134688769Y-99341567D01*
X134809985Y-99225000D01*
X135082354Y-98963075D01*
X135609694Y-98455958D01*
X135618033Y-98452693D01*
X135623426Y-98454130D01*
G37*
%TD.AperFunction*%
%TD*%
%TA.AperFunction,Conductor*%
%TO.N,+5V*%
G36*
X135366503Y-80563427D02*
G01*
X135369930Y-80571769D01*
X135368687Y-80781834D01*
X135365999Y-80980933D01*
X135363811Y-81160287D01*
X135363998Y-81322885D01*
X135368436Y-81471720D01*
X135378998Y-81609782D01*
X135397560Y-81740061D01*
X135425998Y-81865548D01*
X135466186Y-81989234D01*
X135466292Y-81989480D01*
X135516924Y-82106974D01*
X135517051Y-82115928D01*
X135514612Y-82119714D01*
X134620000Y-83050000D01*
X133725388Y-82119714D01*
X133722123Y-82111375D01*
X133723076Y-82106974D01*
X133773707Y-81989480D01*
X133773813Y-81989234D01*
X133814001Y-81865548D01*
X133842439Y-81740061D01*
X133861001Y-81609782D01*
X133871563Y-81471720D01*
X133876001Y-81322885D01*
X133876188Y-81160287D01*
X133874000Y-80980933D01*
X133871312Y-80781834D01*
X133870070Y-80571769D01*
X133873448Y-80563476D01*
X133881770Y-80560000D01*
X135358230Y-80560000D01*
X135366503Y-80563427D01*
G37*
%TD.AperFunction*%
%TD*%
%TA.AperFunction,Conductor*%
%TO.N,Net-(C6-Pad1)*%
G36*
X142372344Y-98627575D02*
G01*
X142582502Y-98799378D01*
X142787887Y-98919432D01*
X142788299Y-98919594D01*
X142788302Y-98919596D01*
X142892115Y-98960541D01*
X142985588Y-98997408D01*
X142985913Y-98997493D01*
X142985921Y-98997496D01*
X143162785Y-99043945D01*
X143179126Y-99048237D01*
X143179313Y-99048274D01*
X143179324Y-99048277D01*
X143371903Y-99086827D01*
X143372023Y-99086851D01*
X143567385Y-99128094D01*
X143568222Y-99128304D01*
X143683849Y-99162034D01*
X143769290Y-99186958D01*
X143770651Y-99187448D01*
X143981322Y-99278386D01*
X143982825Y-99279169D01*
X144206956Y-99417358D01*
X144208293Y-99418318D01*
X144325939Y-99516067D01*
X144440615Y-99611349D01*
X144444788Y-99619272D01*
X144441652Y-99628372D01*
X144286066Y-99793434D01*
X144277899Y-99797104D01*
X144270308Y-99794596D01*
X144268835Y-99793434D01*
X144046633Y-99618196D01*
X143829685Y-99516067D01*
X143623515Y-99483494D01*
X143423763Y-99509131D01*
X143226070Y-99581633D01*
X143225697Y-99581834D01*
X143225698Y-99581834D01*
X143026274Y-99689545D01*
X143026264Y-99689551D01*
X143026075Y-99689653D01*
X143025891Y-99689771D01*
X142858099Y-99797104D01*
X142819420Y-99821846D01*
X142819336Y-99821902D01*
X142601891Y-99966767D01*
X142601631Y-99966936D01*
X142369005Y-100113164D01*
X142368341Y-100113551D01*
X142123404Y-100245938D01*
X142114497Y-100246857D01*
X142109731Y-100244078D01*
X141821362Y-99966767D01*
X141680000Y-99830826D01*
X141180000Y-99350000D01*
X141790471Y-98975408D01*
X141791802Y-98974591D01*
X141791803Y-98974591D01*
X142077346Y-98799378D01*
X142358822Y-98626661D01*
X142367665Y-98625255D01*
X142372344Y-98627575D01*
G37*
%TD.AperFunction*%
%TD*%
%TA.AperFunction,Conductor*%
%TO.N,+5V*%
G36*
X135102357Y-82551592D02*
G01*
X135514612Y-82980286D01*
X135517877Y-82988625D01*
X135516924Y-82993026D01*
X135466186Y-83110765D01*
X135425998Y-83234451D01*
X135397560Y-83359938D01*
X135378998Y-83490217D01*
X135368436Y-83628279D01*
X135363998Y-83777114D01*
X135363811Y-83939712D01*
X135363812Y-83939780D01*
X135365999Y-84119066D01*
X135368686Y-84318076D01*
X135368687Y-84318165D01*
X135369930Y-84528231D01*
X135366552Y-84536524D01*
X135358230Y-84540000D01*
X133881770Y-84540000D01*
X133873497Y-84536573D01*
X133870070Y-84528231D01*
X133871311Y-84318254D01*
X133871312Y-84318165D01*
X133874000Y-84119066D01*
X133876187Y-83939780D01*
X133876188Y-83939712D01*
X133876001Y-83777114D01*
X133871563Y-83628279D01*
X133861001Y-83490217D01*
X133842439Y-83359938D01*
X133814001Y-83234451D01*
X133773813Y-83110765D01*
X133723076Y-82993026D01*
X133722949Y-82984072D01*
X133725388Y-82980286D01*
X134137560Y-82551678D01*
X134620000Y-82050000D01*
X135102357Y-82551592D01*
G37*
%TD.AperFunction*%
%TD*%
M02*
