M48
; DRILL file {KiCad (6.0.8)} date Fri Dec 23 18:45:27 2022
; FORMAT={-:-/ absolute / metric / decimal}
; #@! TF.CreationDate,2022-12-23T18:45:27+01:00
; #@! TF.GenerationSoftware,Kicad,Pcbnew,(6.0.8)
; #@! TF.FileFunction,Plated,1,2,PTH
FMAT,2
METRIC
; #@! TA.AperFunction,Plated,PTH,ViaDrill
T1C0.400
; #@! TA.AperFunction,Plated,PTH,ComponentDrill
T2C0.600
; #@! TA.AperFunction,Plated,PTH,ComponentDrill
T3C1.000
; #@! TA.AperFunction,Plated,PTH,ComponentDrill
T4C1.100
; #@! TA.AperFunction,Plated,PTH,ComponentDrill
T5C3.200
%
G90
G05
T1
X123.19Y-69.85
X123.19Y-87.63
X123.19Y-105.41
X138.43Y-83.82
X139.7Y-76.2
X139.7Y-95.25
X144.78Y-95.25
X145.415Y-83.185
X146.05Y-69.85
X146.05Y-105.41
X149.86Y-95.25
X151.13Y-83.82
X155.956Y-80.264
X155.956Y-87.376
X156.718Y-98.298
X160.655Y-84.455
X168.91Y-69.85
X168.91Y-87.63
X168.91Y-105.41
T3
X129.62Y-82.55
X134.62Y-82.55
X147.32Y-76.2
X149.86Y-76.2
X152.4Y-76.2
X154.94Y-76.2
X163.265Y-85.17
X163.265Y-87.71
X163.265Y-90.25
T4
X135.18Y-99.35
X135.18Y-103.85
X141.68Y-99.35
X141.68Y-103.85
T5
X127.0Y-73.66
X127.0Y-101.6
X165.1Y-73.66
X165.1Y-101.6
T2
X127.797Y-92.36G85X127.797Y-93.06
G05
X129.847Y-95.41G85X130.547Y-95.41
G05
X132.797Y-92.36G85X132.797Y-93.06
G05
T0
M30
