%TF.GenerationSoftware,KiCad,Pcbnew,(6.0.8)*%
%TF.CreationDate,2022-12-23T18:43:03+01:00*%
%TF.ProjectId,Neopixel_LED_Star,4e656f70-6978-4656-9c5f-4c45445f5374,rev?*%
%TF.SameCoordinates,Original*%
%TF.FileFunction,Legend,Top*%
%TF.FilePolarity,Positive*%
%FSLAX46Y46*%
G04 Gerber Fmt 4.6, Leading zero omitted, Abs format (unit mm)*
G04 Created by KiCad (PCBNEW (6.0.8)) date 2022-12-23 18:43:03*
%MOMM*%
%LPD*%
G01*
G04 APERTURE LIST*
G04 Aperture macros list*
%AMRoundRect*
0 Rectangle with rounded corners*
0 $1 Rounding radius*
0 $2 $3 $4 $5 $6 $7 $8 $9 X,Y pos of 4 corners*
0 Add a 4 corners polygon primitive as box body*
4,1,4,$2,$3,$4,$5,$6,$7,$8,$9,$2,$3,0*
0 Add four circle primitives for the rounded corners*
1,1,$1+$1,$2,$3*
1,1,$1+$1,$4,$5*
1,1,$1+$1,$6,$7*
1,1,$1+$1,$8,$9*
0 Add four rect primitives between the rounded corners*
20,1,$1+$1,$2,$3,$4,$5,0*
20,1,$1+$1,$4,$5,$6,$7,0*
20,1,$1+$1,$6,$7,$8,$9,0*
20,1,$1+$1,$8,$9,$2,$3,0*%
%AMFreePoly0*
4,1,9,3.862500,-0.866500,0.737500,-0.866500,0.737500,-0.450000,-0.737500,-0.450000,-0.737500,0.450000,0.737500,0.450000,0.737500,0.866500,3.862500,0.866500,3.862500,-0.866500,3.862500,-0.866500,$1*%
G04 Aperture macros list end*
%ADD10C,0.100000*%
%ADD11C,0.150000*%
%ADD12C,0.120000*%
%ADD13RoundRect,0.250000X-0.650000X0.325000X-0.650000X-0.325000X0.650000X-0.325000X0.650000X0.325000X0*%
%ADD14C,6.400000*%
%ADD15RoundRect,0.150000X-0.512500X-0.150000X0.512500X-0.150000X0.512500X0.150000X-0.512500X0.150000X0*%
%ADD16C,2.000000*%
%ADD17R,1.700000X1.700000*%
%ADD18O,1.700000X1.700000*%
%ADD19RoundRect,0.150000X0.150000X-0.825000X0.150000X0.825000X-0.150000X0.825000X-0.150000X-0.825000X0*%
%ADD20RoundRect,0.250000X-0.312500X-0.625000X0.312500X-0.625000X0.312500X0.625000X-0.312500X0.625000X0*%
%ADD21R,0.900000X1.300000*%
%ADD22FreePoly0,90.000000*%
%ADD23R,1.600000X1.600000*%
%ADD24RoundRect,0.400000X-0.400000X-0.400000X0.400000X-0.400000X0.400000X0.400000X-0.400000X0.400000X0*%
%ADD25RoundRect,0.250000X0.650000X-0.325000X0.650000X0.325000X-0.650000X0.325000X-0.650000X-0.325000X0*%
%ADD26R,2.000000X2.000000*%
G04 APERTURE END LIST*
D10*
X148717000Y-101092000D02*
X160401000Y-101092000D01*
X160401000Y-101092000D02*
X160401000Y-104648000D01*
X160401000Y-104648000D02*
X148717000Y-104648000D01*
X148717000Y-104648000D02*
X148717000Y-101092000D01*
D11*
X151900000Y-73435595D02*
X151852380Y-73530833D01*
X151852380Y-73673690D01*
X151900000Y-73816547D01*
X151995238Y-73911785D01*
X152090476Y-73959404D01*
X152280952Y-74007023D01*
X152423809Y-74007023D01*
X152614285Y-73959404D01*
X152709523Y-73911785D01*
X152804761Y-73816547D01*
X152852380Y-73673690D01*
X152852380Y-73578452D01*
X152804761Y-73435595D01*
X152757142Y-73387976D01*
X152423809Y-73387976D01*
X152423809Y-73578452D01*
X152852380Y-72959404D02*
X151852380Y-72959404D01*
X152852380Y-72387976D01*
X151852380Y-72387976D01*
X152852380Y-71911785D02*
X151852380Y-71911785D01*
X151852380Y-71673690D01*
X151900000Y-71530833D01*
X151995238Y-71435595D01*
X152090476Y-71387976D01*
X152280952Y-71340357D01*
X152423809Y-71340357D01*
X152614285Y-71387976D01*
X152709523Y-71435595D01*
X152804761Y-71530833D01*
X152852380Y-71673690D01*
X152852380Y-71911785D01*
X165435595Y-88152380D02*
X165435595Y-87152380D01*
X165673690Y-87152380D01*
X165816547Y-87200000D01*
X165911785Y-87295238D01*
X165959404Y-87390476D01*
X166007023Y-87580952D01*
X166007023Y-87723809D01*
X165959404Y-87914285D01*
X165911785Y-88009523D01*
X165816547Y-88104761D01*
X165673690Y-88152380D01*
X165435595Y-88152380D01*
X166387976Y-87866666D02*
X166864166Y-87866666D01*
X166292738Y-88152380D02*
X166626071Y-87152380D01*
X166959404Y-88152380D01*
X167149880Y-87152380D02*
X167721309Y-87152380D01*
X167435595Y-88152380D02*
X167435595Y-87152380D01*
X168007023Y-87866666D02*
X168483214Y-87866666D01*
X167911785Y-88152380D02*
X168245119Y-87152380D01*
X168578452Y-88152380D01*
X165435595Y-85231428D02*
X166197500Y-85231428D01*
X165816547Y-85612380D02*
X165816547Y-84850476D01*
X167149880Y-84612380D02*
X166673690Y-84612380D01*
X166626071Y-85088571D01*
X166673690Y-85040952D01*
X166768928Y-84993333D01*
X167007023Y-84993333D01*
X167102261Y-85040952D01*
X167149880Y-85088571D01*
X167197500Y-85183809D01*
X167197500Y-85421904D01*
X167149880Y-85517142D01*
X167102261Y-85564761D01*
X167007023Y-85612380D01*
X166768928Y-85612380D01*
X166673690Y-85564761D01*
X166626071Y-85517142D01*
X167483214Y-84612380D02*
X167816547Y-85612380D01*
X168149880Y-84612380D01*
X149282809Y-102587904D02*
X149282809Y-101787904D01*
X149739952Y-102587904D01*
X149739952Y-101787904D01*
X150425666Y-102549809D02*
X150349476Y-102587904D01*
X150197095Y-102587904D01*
X150120904Y-102549809D01*
X150082809Y-102473619D01*
X150082809Y-102168857D01*
X150120904Y-102092666D01*
X150197095Y-102054571D01*
X150349476Y-102054571D01*
X150425666Y-102092666D01*
X150463761Y-102168857D01*
X150463761Y-102245047D01*
X150082809Y-102321238D01*
X150920904Y-102587904D02*
X150844714Y-102549809D01*
X150806619Y-102511714D01*
X150768523Y-102435523D01*
X150768523Y-102206952D01*
X150806619Y-102130761D01*
X150844714Y-102092666D01*
X150920904Y-102054571D01*
X151035190Y-102054571D01*
X151111380Y-102092666D01*
X151149476Y-102130761D01*
X151187571Y-102206952D01*
X151187571Y-102435523D01*
X151149476Y-102511714D01*
X151111380Y-102549809D01*
X151035190Y-102587904D01*
X150920904Y-102587904D01*
X151530428Y-102054571D02*
X151530428Y-102854571D01*
X151530428Y-102092666D02*
X151606619Y-102054571D01*
X151759000Y-102054571D01*
X151835190Y-102092666D01*
X151873285Y-102130761D01*
X151911380Y-102206952D01*
X151911380Y-102435523D01*
X151873285Y-102511714D01*
X151835190Y-102549809D01*
X151759000Y-102587904D01*
X151606619Y-102587904D01*
X151530428Y-102549809D01*
X152254238Y-102587904D02*
X152254238Y-102054571D01*
X152254238Y-101787904D02*
X152216142Y-101826000D01*
X152254238Y-101864095D01*
X152292333Y-101826000D01*
X152254238Y-101787904D01*
X152254238Y-101864095D01*
X152559000Y-102587904D02*
X152978047Y-102054571D01*
X152559000Y-102054571D02*
X152978047Y-102587904D01*
X153587571Y-102549809D02*
X153511380Y-102587904D01*
X153359000Y-102587904D01*
X153282809Y-102549809D01*
X153244714Y-102473619D01*
X153244714Y-102168857D01*
X153282809Y-102092666D01*
X153359000Y-102054571D01*
X153511380Y-102054571D01*
X153587571Y-102092666D01*
X153625666Y-102168857D01*
X153625666Y-102245047D01*
X153244714Y-102321238D01*
X154082809Y-102587904D02*
X154006619Y-102549809D01*
X153968523Y-102473619D01*
X153968523Y-101787904D01*
X155378047Y-102587904D02*
X154997095Y-102587904D01*
X154997095Y-101787904D01*
X155644714Y-102168857D02*
X155911380Y-102168857D01*
X156025666Y-102587904D02*
X155644714Y-102587904D01*
X155644714Y-101787904D01*
X156025666Y-101787904D01*
X156368523Y-102587904D02*
X156368523Y-101787904D01*
X156559000Y-101787904D01*
X156673285Y-101826000D01*
X156749476Y-101902190D01*
X156787571Y-101978380D01*
X156825666Y-102130761D01*
X156825666Y-102245047D01*
X156787571Y-102397428D01*
X156749476Y-102473619D01*
X156673285Y-102549809D01*
X156559000Y-102587904D01*
X156368523Y-102587904D01*
X157739952Y-102549809D02*
X157854238Y-102587904D01*
X158044714Y-102587904D01*
X158120904Y-102549809D01*
X158159000Y-102511714D01*
X158197095Y-102435523D01*
X158197095Y-102359333D01*
X158159000Y-102283142D01*
X158120904Y-102245047D01*
X158044714Y-102206952D01*
X157892333Y-102168857D01*
X157816142Y-102130761D01*
X157778047Y-102092666D01*
X157739952Y-102016476D01*
X157739952Y-101940285D01*
X157778047Y-101864095D01*
X157816142Y-101826000D01*
X157892333Y-101787904D01*
X158082809Y-101787904D01*
X158197095Y-101826000D01*
X158425666Y-102054571D02*
X158730428Y-102054571D01*
X158539952Y-101787904D02*
X158539952Y-102473619D01*
X158578047Y-102549809D01*
X158654238Y-102587904D01*
X158730428Y-102587904D01*
X159339952Y-102587904D02*
X159339952Y-102168857D01*
X159301857Y-102092666D01*
X159225666Y-102054571D01*
X159073285Y-102054571D01*
X158997095Y-102092666D01*
X159339952Y-102549809D02*
X159263761Y-102587904D01*
X159073285Y-102587904D01*
X158997095Y-102549809D01*
X158959000Y-102473619D01*
X158959000Y-102397428D01*
X158997095Y-102321238D01*
X159073285Y-102283142D01*
X159263761Y-102283142D01*
X159339952Y-102245047D01*
X159720904Y-102587904D02*
X159720904Y-102054571D01*
X159720904Y-102206952D02*
X159759000Y-102130761D01*
X159797095Y-102092666D01*
X159873285Y-102054571D01*
X159949476Y-102054571D01*
X150939952Y-103875904D02*
X150673285Y-103494952D01*
X150482809Y-103875904D02*
X150482809Y-103075904D01*
X150787571Y-103075904D01*
X150863761Y-103114000D01*
X150901857Y-103152095D01*
X150939952Y-103228285D01*
X150939952Y-103342571D01*
X150901857Y-103418761D01*
X150863761Y-103456857D01*
X150787571Y-103494952D01*
X150482809Y-103494952D01*
X151282809Y-103875904D02*
X151282809Y-103342571D01*
X151282809Y-103075904D02*
X151244714Y-103114000D01*
X151282809Y-103152095D01*
X151320904Y-103114000D01*
X151282809Y-103075904D01*
X151282809Y-103152095D01*
X152006619Y-103837809D02*
X151930428Y-103875904D01*
X151778047Y-103875904D01*
X151701857Y-103837809D01*
X151663761Y-103799714D01*
X151625666Y-103723523D01*
X151625666Y-103494952D01*
X151663761Y-103418761D01*
X151701857Y-103380666D01*
X151778047Y-103342571D01*
X151930428Y-103342571D01*
X152006619Y-103380666D01*
X152349476Y-103875904D02*
X152349476Y-103075904D01*
X152692333Y-103875904D02*
X152692333Y-103456857D01*
X152654238Y-103380666D01*
X152578047Y-103342571D01*
X152463761Y-103342571D01*
X152387571Y-103380666D01*
X152349476Y-103418761D01*
X153073285Y-103875904D02*
X153073285Y-103342571D01*
X153073285Y-103075904D02*
X153035190Y-103114000D01*
X153073285Y-103152095D01*
X153111380Y-103114000D01*
X153073285Y-103075904D01*
X153073285Y-103152095D01*
X154216142Y-103075904D02*
X154292333Y-103075904D01*
X154368523Y-103114000D01*
X154406619Y-103152095D01*
X154444714Y-103228285D01*
X154482809Y-103380666D01*
X154482809Y-103571142D01*
X154444714Y-103723523D01*
X154406619Y-103799714D01*
X154368523Y-103837809D01*
X154292333Y-103875904D01*
X154216142Y-103875904D01*
X154139952Y-103837809D01*
X154101857Y-103799714D01*
X154063761Y-103723523D01*
X154025666Y-103571142D01*
X154025666Y-103380666D01*
X154063761Y-103228285D01*
X154101857Y-103152095D01*
X154139952Y-103114000D01*
X154216142Y-103075904D01*
X154863761Y-103875904D02*
X155016142Y-103875904D01*
X155092333Y-103837809D01*
X155130428Y-103799714D01*
X155206619Y-103685428D01*
X155244714Y-103533047D01*
X155244714Y-103228285D01*
X155206619Y-103152095D01*
X155168523Y-103114000D01*
X155092333Y-103075904D01*
X154939952Y-103075904D01*
X154863761Y-103114000D01*
X154825666Y-103152095D01*
X154787571Y-103228285D01*
X154787571Y-103418761D01*
X154825666Y-103494952D01*
X154863761Y-103533047D01*
X154939952Y-103571142D01*
X155092333Y-103571142D01*
X155168523Y-103533047D01*
X155206619Y-103494952D01*
X155244714Y-103418761D01*
X155587571Y-103799714D02*
X155625666Y-103837809D01*
X155587571Y-103875904D01*
X155549476Y-103837809D01*
X155587571Y-103799714D01*
X155587571Y-103875904D01*
X155930428Y-103152095D02*
X155968523Y-103114000D01*
X156044714Y-103075904D01*
X156235190Y-103075904D01*
X156311380Y-103114000D01*
X156349476Y-103152095D01*
X156387571Y-103228285D01*
X156387571Y-103304476D01*
X156349476Y-103418761D01*
X155892333Y-103875904D01*
X156387571Y-103875904D01*
X156882809Y-103075904D02*
X156959000Y-103075904D01*
X157035190Y-103114000D01*
X157073285Y-103152095D01*
X157111380Y-103228285D01*
X157149476Y-103380666D01*
X157149476Y-103571142D01*
X157111380Y-103723523D01*
X157073285Y-103799714D01*
X157035190Y-103837809D01*
X156959000Y-103875904D01*
X156882809Y-103875904D01*
X156806619Y-103837809D01*
X156768523Y-103799714D01*
X156730428Y-103723523D01*
X156692333Y-103571142D01*
X156692333Y-103380666D01*
X156730428Y-103228285D01*
X156768523Y-103152095D01*
X156806619Y-103114000D01*
X156882809Y-103075904D01*
X157454238Y-103152095D02*
X157492333Y-103114000D01*
X157568523Y-103075904D01*
X157759000Y-103075904D01*
X157835190Y-103114000D01*
X157873285Y-103152095D01*
X157911380Y-103228285D01*
X157911380Y-103304476D01*
X157873285Y-103418761D01*
X157416142Y-103875904D01*
X157911380Y-103875904D01*
X158216142Y-103152095D02*
X158254238Y-103114000D01*
X158330428Y-103075904D01*
X158520904Y-103075904D01*
X158597095Y-103114000D01*
X158635190Y-103152095D01*
X158673285Y-103228285D01*
X158673285Y-103304476D01*
X158635190Y-103418761D01*
X158178047Y-103875904D01*
X158673285Y-103875904D01*
X165959404Y-89740000D02*
X165864166Y-89692380D01*
X165721309Y-89692380D01*
X165578452Y-89740000D01*
X165483214Y-89835238D01*
X165435595Y-89930476D01*
X165387976Y-90120952D01*
X165387976Y-90263809D01*
X165435595Y-90454285D01*
X165483214Y-90549523D01*
X165578452Y-90644761D01*
X165721309Y-90692380D01*
X165816547Y-90692380D01*
X165959404Y-90644761D01*
X166007023Y-90597142D01*
X166007023Y-90263809D01*
X165816547Y-90263809D01*
X166435595Y-90692380D02*
X166435595Y-89692380D01*
X167007023Y-90692380D01*
X167007023Y-89692380D01*
X167483214Y-90692380D02*
X167483214Y-89692380D01*
X167721309Y-89692380D01*
X167864166Y-89740000D01*
X167959404Y-89835238D01*
X168007023Y-89930476D01*
X168054642Y-90120952D01*
X168054642Y-90263809D01*
X168007023Y-90454285D01*
X167959404Y-90549523D01*
X167864166Y-90644761D01*
X167721309Y-90692380D01*
X167483214Y-90692380D01*
X155011428Y-73959404D02*
X155011428Y-73197500D01*
X155392380Y-73578452D02*
X154630476Y-73578452D01*
X154392380Y-72816547D02*
X154392380Y-72197500D01*
X154773333Y-72530833D01*
X154773333Y-72387976D01*
X154820952Y-72292738D01*
X154868571Y-72245119D01*
X154963809Y-72197500D01*
X155201904Y-72197500D01*
X155297142Y-72245119D01*
X155344761Y-72292738D01*
X155392380Y-72387976D01*
X155392380Y-72673690D01*
X155344761Y-72768928D01*
X155297142Y-72816547D01*
X155297142Y-71768928D02*
X155344761Y-71721309D01*
X155392380Y-71768928D01*
X155344761Y-71816547D01*
X155297142Y-71768928D01*
X155392380Y-71768928D01*
X154392380Y-71387976D02*
X154392380Y-70768928D01*
X154773333Y-71102261D01*
X154773333Y-70959404D01*
X154820952Y-70864166D01*
X154868571Y-70816547D01*
X154963809Y-70768928D01*
X155201904Y-70768928D01*
X155297142Y-70816547D01*
X155344761Y-70864166D01*
X155392380Y-70959404D01*
X155392380Y-71245119D01*
X155344761Y-71340357D01*
X155297142Y-71387976D01*
X154392380Y-70483214D02*
X155392380Y-70149880D01*
X154392380Y-69816547D01*
X147724761Y-74007023D02*
X147772380Y-73864166D01*
X147772380Y-73626071D01*
X147724761Y-73530833D01*
X147677142Y-73483214D01*
X147581904Y-73435595D01*
X147486666Y-73435595D01*
X147391428Y-73483214D01*
X147343809Y-73530833D01*
X147296190Y-73626071D01*
X147248571Y-73816547D01*
X147200952Y-73911785D01*
X147153333Y-73959404D01*
X147058095Y-74007023D01*
X146962857Y-74007023D01*
X146867619Y-73959404D01*
X146820000Y-73911785D01*
X146772380Y-73816547D01*
X146772380Y-73578452D01*
X146820000Y-73435595D01*
X146772380Y-73102261D02*
X147772380Y-72864166D01*
X147058095Y-72673690D01*
X147772380Y-72483214D01*
X146772380Y-72245119D01*
X147677142Y-71292738D02*
X147724761Y-71340357D01*
X147772380Y-71483214D01*
X147772380Y-71578452D01*
X147724761Y-71721309D01*
X147629523Y-71816547D01*
X147534285Y-71864166D01*
X147343809Y-71911785D01*
X147200952Y-71911785D01*
X147010476Y-71864166D01*
X146915238Y-71816547D01*
X146820000Y-71721309D01*
X146772380Y-71578452D01*
X146772380Y-71483214D01*
X146820000Y-71340357D01*
X146867619Y-71292738D01*
X147772380Y-70387976D02*
X147772380Y-70864166D01*
X146772380Y-70864166D01*
X147772380Y-70054642D02*
X146772380Y-70054642D01*
X147772380Y-69483214D02*
X147200952Y-69911785D01*
X146772380Y-69483214D02*
X147343809Y-70054642D01*
X150264761Y-74007023D02*
X150312380Y-73864166D01*
X150312380Y-73626071D01*
X150264761Y-73530833D01*
X150217142Y-73483214D01*
X150121904Y-73435595D01*
X150026666Y-73435595D01*
X149931428Y-73483214D01*
X149883809Y-73530833D01*
X149836190Y-73626071D01*
X149788571Y-73816547D01*
X149740952Y-73911785D01*
X149693333Y-73959404D01*
X149598095Y-74007023D01*
X149502857Y-74007023D01*
X149407619Y-73959404D01*
X149360000Y-73911785D01*
X149312380Y-73816547D01*
X149312380Y-73578452D01*
X149360000Y-73435595D01*
X149312380Y-73102261D02*
X150312380Y-72864166D01*
X149598095Y-72673690D01*
X150312380Y-72483214D01*
X149312380Y-72245119D01*
X150312380Y-71864166D02*
X149312380Y-71864166D01*
X149312380Y-71626071D01*
X149360000Y-71483214D01*
X149455238Y-71387976D01*
X149550476Y-71340357D01*
X149740952Y-71292738D01*
X149883809Y-71292738D01*
X150074285Y-71340357D01*
X150169523Y-71387976D01*
X150264761Y-71483214D01*
X150312380Y-71626071D01*
X150312380Y-71864166D01*
X150312380Y-70864166D02*
X149312380Y-70864166D01*
X149312380Y-70197500D02*
X149312380Y-70007023D01*
X149360000Y-69911785D01*
X149455238Y-69816547D01*
X149645714Y-69768928D01*
X149979047Y-69768928D01*
X150169523Y-69816547D01*
X150264761Y-69911785D01*
X150312380Y-70007023D01*
X150312380Y-70197500D01*
X150264761Y-70292738D01*
X150169523Y-70387976D01*
X149979047Y-70435595D01*
X149645714Y-70435595D01*
X149455238Y-70387976D01*
X149360000Y-70292738D01*
X149312380Y-70197500D01*
%TO.C,C5*%
X152067142Y-91606666D02*
X152114761Y-91654285D01*
X152162380Y-91797142D01*
X152162380Y-91892380D01*
X152114761Y-92035238D01*
X152019523Y-92130476D01*
X151924285Y-92178095D01*
X151733809Y-92225714D01*
X151590952Y-92225714D01*
X151400476Y-92178095D01*
X151305238Y-92130476D01*
X151210000Y-92035238D01*
X151162380Y-91892380D01*
X151162380Y-91797142D01*
X151210000Y-91654285D01*
X151257619Y-91606666D01*
X151162380Y-90701904D02*
X151162380Y-91178095D01*
X151638571Y-91225714D01*
X151590952Y-91178095D01*
X151543333Y-91082857D01*
X151543333Y-90844761D01*
X151590952Y-90749523D01*
X151638571Y-90701904D01*
X151733809Y-90654285D01*
X151971904Y-90654285D01*
X152067142Y-90701904D01*
X152114761Y-90749523D01*
X152162380Y-90844761D01*
X152162380Y-91082857D01*
X152114761Y-91178095D01*
X152067142Y-91225714D01*
%TO.C,U3*%
X156718095Y-80872380D02*
X156718095Y-81681904D01*
X156765714Y-81777142D01*
X156813333Y-81824761D01*
X156908571Y-81872380D01*
X157099047Y-81872380D01*
X157194285Y-81824761D01*
X157241904Y-81777142D01*
X157289523Y-81681904D01*
X157289523Y-80872380D01*
X157670476Y-80872380D02*
X158289523Y-80872380D01*
X157956190Y-81253333D01*
X158099047Y-81253333D01*
X158194285Y-81300952D01*
X158241904Y-81348571D01*
X158289523Y-81443809D01*
X158289523Y-81681904D01*
X158241904Y-81777142D01*
X158194285Y-81824761D01*
X158099047Y-81872380D01*
X157813333Y-81872380D01*
X157718095Y-81824761D01*
X157670476Y-81777142D01*
%TO.C,SW1*%
X137096666Y-97754761D02*
X137239523Y-97802380D01*
X137477619Y-97802380D01*
X137572857Y-97754761D01*
X137620476Y-97707142D01*
X137668095Y-97611904D01*
X137668095Y-97516666D01*
X137620476Y-97421428D01*
X137572857Y-97373809D01*
X137477619Y-97326190D01*
X137287142Y-97278571D01*
X137191904Y-97230952D01*
X137144285Y-97183333D01*
X137096666Y-97088095D01*
X137096666Y-96992857D01*
X137144285Y-96897619D01*
X137191904Y-96850000D01*
X137287142Y-96802380D01*
X137525238Y-96802380D01*
X137668095Y-96850000D01*
X138001428Y-96802380D02*
X138239523Y-97802380D01*
X138430000Y-97088095D01*
X138620476Y-97802380D01*
X138858571Y-96802380D01*
X139763333Y-97802380D02*
X139191904Y-97802380D01*
X139477619Y-97802380D02*
X139477619Y-96802380D01*
X139382380Y-96945238D01*
X139287142Y-97040476D01*
X139191904Y-97088095D01*
%TO.C,J2*%
X162931666Y-82292380D02*
X162931666Y-83006666D01*
X162884047Y-83149523D01*
X162788809Y-83244761D01*
X162645952Y-83292380D01*
X162550714Y-83292380D01*
X163360238Y-82387619D02*
X163407857Y-82340000D01*
X163503095Y-82292380D01*
X163741190Y-82292380D01*
X163836428Y-82340000D01*
X163884047Y-82387619D01*
X163931666Y-82482857D01*
X163931666Y-82578095D01*
X163884047Y-82720952D01*
X163312619Y-83292380D01*
X163931666Y-83292380D01*
%TO.C,U2*%
X145912380Y-84581904D02*
X146721904Y-84581904D01*
X146817142Y-84534285D01*
X146864761Y-84486666D01*
X146912380Y-84391428D01*
X146912380Y-84200952D01*
X146864761Y-84105714D01*
X146817142Y-84058095D01*
X146721904Y-84010476D01*
X145912380Y-84010476D01*
X146007619Y-83581904D02*
X145960000Y-83534285D01*
X145912380Y-83439047D01*
X145912380Y-83200952D01*
X145960000Y-83105714D01*
X146007619Y-83058095D01*
X146102857Y-83010476D01*
X146198095Y-83010476D01*
X146340952Y-83058095D01*
X146912380Y-83629523D01*
X146912380Y-83010476D01*
%TO.C,C6*%
X146987142Y-101766666D02*
X147034761Y-101814285D01*
X147082380Y-101957142D01*
X147082380Y-102052380D01*
X147034761Y-102195238D01*
X146939523Y-102290476D01*
X146844285Y-102338095D01*
X146653809Y-102385714D01*
X146510952Y-102385714D01*
X146320476Y-102338095D01*
X146225238Y-102290476D01*
X146130000Y-102195238D01*
X146082380Y-102052380D01*
X146082380Y-101957142D01*
X146130000Y-101814285D01*
X146177619Y-101766666D01*
X146082380Y-100909523D02*
X146082380Y-101100000D01*
X146130000Y-101195238D01*
X146177619Y-101242857D01*
X146320476Y-101338095D01*
X146510952Y-101385714D01*
X146891904Y-101385714D01*
X146987142Y-101338095D01*
X147034761Y-101290476D01*
X147082380Y-101195238D01*
X147082380Y-101004761D01*
X147034761Y-100909523D01*
X146987142Y-100861904D01*
X146891904Y-100814285D01*
X146653809Y-100814285D01*
X146558571Y-100861904D01*
X146510952Y-100909523D01*
X146463333Y-101004761D01*
X146463333Y-101195238D01*
X146510952Y-101290476D01*
X146558571Y-101338095D01*
X146653809Y-101385714D01*
%TO.C,R1*%
X157313333Y-90072380D02*
X156980000Y-89596190D01*
X156741904Y-90072380D02*
X156741904Y-89072380D01*
X157122857Y-89072380D01*
X157218095Y-89120000D01*
X157265714Y-89167619D01*
X157313333Y-89262857D01*
X157313333Y-89405714D01*
X157265714Y-89500952D01*
X157218095Y-89548571D01*
X157122857Y-89596190D01*
X156741904Y-89596190D01*
X158265714Y-90072380D02*
X157694285Y-90072380D01*
X157980000Y-90072380D02*
X157980000Y-89072380D01*
X157884761Y-89215238D01*
X157789523Y-89310476D01*
X157694285Y-89358095D01*
%TO.C,C3*%
X141907142Y-91606666D02*
X141954761Y-91654285D01*
X142002380Y-91797142D01*
X142002380Y-91892380D01*
X141954761Y-92035238D01*
X141859523Y-92130476D01*
X141764285Y-92178095D01*
X141573809Y-92225714D01*
X141430952Y-92225714D01*
X141240476Y-92178095D01*
X141145238Y-92130476D01*
X141050000Y-92035238D01*
X141002380Y-91892380D01*
X141002380Y-91797142D01*
X141050000Y-91654285D01*
X141097619Y-91606666D01*
X141002380Y-91273333D02*
X141002380Y-90654285D01*
X141383333Y-90987619D01*
X141383333Y-90844761D01*
X141430952Y-90749523D01*
X141478571Y-90701904D01*
X141573809Y-90654285D01*
X141811904Y-90654285D01*
X141907142Y-90701904D01*
X141954761Y-90749523D01*
X142002380Y-90844761D01*
X142002380Y-91130476D01*
X141954761Y-91225714D01*
X141907142Y-91273333D01*
%TO.C,U1*%
X138192380Y-82676904D02*
X139001904Y-82676904D01*
X139097142Y-82629285D01*
X139144761Y-82581666D01*
X139192380Y-82486428D01*
X139192380Y-82295952D01*
X139144761Y-82200714D01*
X139097142Y-82153095D01*
X139001904Y-82105476D01*
X138192380Y-82105476D01*
X139192380Y-81105476D02*
X139192380Y-81676904D01*
X139192380Y-81391190D02*
X138192380Y-81391190D01*
X138335238Y-81486428D01*
X138430476Y-81581666D01*
X138478095Y-81676904D01*
%TO.C,J1*%
X124663666Y-96162380D02*
X124663666Y-96876666D01*
X124616047Y-97019523D01*
X124520809Y-97114761D01*
X124377952Y-97162380D01*
X124282714Y-97162380D01*
X125663666Y-97162380D02*
X125092238Y-97162380D01*
X125377952Y-97162380D02*
X125377952Y-96162380D01*
X125282714Y-96305238D01*
X125187476Y-96400476D01*
X125092238Y-96448095D01*
%TO.C,C4*%
X146987142Y-91606666D02*
X147034761Y-91654285D01*
X147082380Y-91797142D01*
X147082380Y-91892380D01*
X147034761Y-92035238D01*
X146939523Y-92130476D01*
X146844285Y-92178095D01*
X146653809Y-92225714D01*
X146510952Y-92225714D01*
X146320476Y-92178095D01*
X146225238Y-92130476D01*
X146130000Y-92035238D01*
X146082380Y-91892380D01*
X146082380Y-91797142D01*
X146130000Y-91654285D01*
X146177619Y-91606666D01*
X146415714Y-90749523D02*
X147082380Y-90749523D01*
X146034761Y-90987619D02*
X146749047Y-91225714D01*
X146749047Y-90606666D01*
%TO.C,J3*%
X144232380Y-76533333D02*
X144946666Y-76533333D01*
X145089523Y-76580952D01*
X145184761Y-76676190D01*
X145232380Y-76819047D01*
X145232380Y-76914285D01*
X144232380Y-76152380D02*
X144232380Y-75533333D01*
X144613333Y-75866666D01*
X144613333Y-75723809D01*
X144660952Y-75628571D01*
X144708571Y-75580952D01*
X144803809Y-75533333D01*
X145041904Y-75533333D01*
X145137142Y-75580952D01*
X145184761Y-75628571D01*
X145232380Y-75723809D01*
X145232380Y-76009523D01*
X145184761Y-76104761D01*
X145137142Y-76152380D01*
%TO.C,C2*%
X140747142Y-77636666D02*
X140794761Y-77684285D01*
X140842380Y-77827142D01*
X140842380Y-77922380D01*
X140794761Y-78065238D01*
X140699523Y-78160476D01*
X140604285Y-78208095D01*
X140413809Y-78255714D01*
X140270952Y-78255714D01*
X140080476Y-78208095D01*
X139985238Y-78160476D01*
X139890000Y-78065238D01*
X139842380Y-77922380D01*
X139842380Y-77827142D01*
X139890000Y-77684285D01*
X139937619Y-77636666D01*
X139937619Y-77255714D02*
X139890000Y-77208095D01*
X139842380Y-77112857D01*
X139842380Y-76874761D01*
X139890000Y-76779523D01*
X139937619Y-76731904D01*
X140032857Y-76684285D01*
X140128095Y-76684285D01*
X140270952Y-76731904D01*
X140842380Y-77303333D01*
X140842380Y-76684285D01*
%TO.C,C1*%
X131953333Y-89157142D02*
X131905714Y-89204761D01*
X131762857Y-89252380D01*
X131667619Y-89252380D01*
X131524761Y-89204761D01*
X131429523Y-89109523D01*
X131381904Y-89014285D01*
X131334285Y-88823809D01*
X131334285Y-88680952D01*
X131381904Y-88490476D01*
X131429523Y-88395238D01*
X131524761Y-88300000D01*
X131667619Y-88252380D01*
X131762857Y-88252380D01*
X131905714Y-88300000D01*
X131953333Y-88347619D01*
X132905714Y-89252380D02*
X132334285Y-89252380D01*
X132620000Y-89252380D02*
X132620000Y-88252380D01*
X132524761Y-88395238D01*
X132429523Y-88490476D01*
X132334285Y-88538095D01*
D12*
%TO.C,C5*%
X150770000Y-90728748D02*
X150770000Y-92151252D01*
X148950000Y-90728748D02*
X148950000Y-92151252D01*
%TO.C,U3*%
X157480000Y-82260000D02*
X158280000Y-82260000D01*
X157480000Y-85380000D02*
X156680000Y-85380000D01*
X157480000Y-85380000D02*
X158280000Y-85380000D01*
X157480000Y-82260000D02*
X155680000Y-82260000D01*
%TO.C,SW1*%
X141930000Y-102350000D02*
X141930000Y-100850000D01*
X140680000Y-98350000D02*
X136180000Y-98350000D01*
X134930000Y-100850000D02*
X134930000Y-102350000D01*
X136180000Y-104850000D02*
X140680000Y-104850000D01*
%TO.C,J2*%
X161935000Y-91580000D02*
X164595000Y-91580000D01*
X161935000Y-85170000D02*
X161935000Y-83840000D01*
X161935000Y-86440000D02*
X161935000Y-91580000D01*
X161935000Y-83840000D02*
X163265000Y-83840000D01*
X161935000Y-86440000D02*
X164595000Y-86440000D01*
X164595000Y-86440000D02*
X164595000Y-91580000D01*
%TO.C,U2*%
X147300000Y-83820000D02*
X147300000Y-87270000D01*
X152420000Y-83820000D02*
X152420000Y-85770000D01*
X147300000Y-83820000D02*
X147300000Y-81870000D01*
X152420000Y-83820000D02*
X152420000Y-81870000D01*
%TO.C,C6*%
X143870000Y-100888748D02*
X143870000Y-102311252D01*
X145690000Y-100888748D02*
X145690000Y-102311252D01*
%TO.C,R1*%
X156752936Y-90530000D02*
X158207064Y-90530000D01*
X156752936Y-92350000D02*
X158207064Y-92350000D01*
%TO.C,C3*%
X140610000Y-90728748D02*
X140610000Y-92151252D01*
X138790000Y-90728748D02*
X138790000Y-92151252D01*
%TO.C,U1*%
X144600000Y-84880000D02*
X144370000Y-84880000D01*
X139880000Y-84880000D02*
X140110000Y-84880000D01*
X144600000Y-82160000D02*
X144600000Y-84880000D01*
X143290000Y-82160000D02*
X144600000Y-82160000D01*
X139880000Y-84880000D02*
X139880000Y-82160000D01*
X139880000Y-82160000D02*
X141190000Y-82160000D01*
X140110000Y-86020000D02*
X140110000Y-84880000D01*
%TO.C,J1*%
X133697000Y-95310000D02*
X131797000Y-95310000D01*
X122097000Y-90110000D02*
X133697000Y-90110000D01*
X122097000Y-95310000D02*
X122097000Y-90110000D01*
X133897000Y-90535000D02*
X133897000Y-89910000D01*
X133297000Y-89910000D02*
X133897000Y-89910000D01*
X128397000Y-95310000D02*
X122097000Y-95310000D01*
X133697000Y-94610000D02*
X133697000Y-95310000D01*
X133697000Y-90110000D02*
X133697000Y-90710000D01*
%TO.C,C4*%
X143870000Y-90728748D02*
X143870000Y-92151252D01*
X145690000Y-90728748D02*
X145690000Y-92151252D01*
%TO.C,J3*%
X156270000Y-77530000D02*
X156270000Y-74870000D01*
X147320000Y-77530000D02*
X145990000Y-77530000D01*
X148590000Y-77530000D02*
X156270000Y-77530000D01*
X145990000Y-77530000D02*
X145990000Y-76200000D01*
X148590000Y-74870000D02*
X156270000Y-74870000D01*
X148590000Y-77530000D02*
X148590000Y-74870000D01*
%TO.C,C2*%
X143150000Y-78181252D02*
X143150000Y-76758748D01*
X141330000Y-78181252D02*
X141330000Y-76758748D01*
%TO.C,C1*%
X129479000Y-81309000D02*
X129479000Y-78203000D01*
X128599000Y-86229000D02*
X128599000Y-83791000D01*
X129439000Y-81309000D02*
X129439000Y-78227000D01*
X128879000Y-81309000D02*
X128879000Y-78625000D01*
X128439000Y-86070000D02*
X128439000Y-83791000D01*
X130679000Y-87424000D02*
X130679000Y-83791000D01*
X129599000Y-86967000D02*
X129599000Y-83791000D01*
X127279000Y-84180000D02*
X127279000Y-80920000D01*
X130839000Y-81309000D02*
X130839000Y-77632000D01*
X130559000Y-81309000D02*
X130559000Y-77713000D01*
X129239000Y-81309000D02*
X129239000Y-78356000D01*
X128199000Y-85804000D02*
X128199000Y-79296000D01*
X129799000Y-87075000D02*
X129799000Y-83791000D01*
X129079000Y-86630000D02*
X129079000Y-83791000D01*
X127999000Y-85550000D02*
X127999000Y-79550000D01*
X129119000Y-86660000D02*
X129119000Y-83791000D01*
X131440000Y-87585000D02*
X131440000Y-77515000D01*
X129719000Y-81309000D02*
X129719000Y-78067000D01*
X131279000Y-87561000D02*
X131279000Y-77539000D01*
X130119000Y-81309000D02*
X130119000Y-77876000D01*
X127359000Y-84396000D02*
X127359000Y-80704000D01*
X130599000Y-81309000D02*
X130599000Y-77700000D01*
X129639000Y-81309000D02*
X129639000Y-78110000D01*
X129039000Y-81309000D02*
X129039000Y-78500000D01*
X128279000Y-85897000D02*
X128279000Y-79203000D01*
X131560000Y-87600000D02*
X131560000Y-77500000D01*
X130239000Y-87273000D02*
X130239000Y-83791000D01*
X130839000Y-87468000D02*
X130839000Y-83791000D01*
X130919000Y-87488000D02*
X130919000Y-77612000D01*
X130159000Y-87240000D02*
X130159000Y-83791000D01*
X129759000Y-81309000D02*
X129759000Y-78046000D01*
X131239000Y-87554000D02*
X131239000Y-77546000D01*
X129679000Y-81309000D02*
X129679000Y-78088000D01*
X128239000Y-85851000D02*
X128239000Y-79249000D01*
X127079000Y-83412000D02*
X127079000Y-81688000D01*
X129279000Y-86771000D02*
X129279000Y-83791000D01*
X130759000Y-87447000D02*
X130759000Y-83791000D01*
X129839000Y-87095000D02*
X129839000Y-83791000D01*
X130039000Y-87189000D02*
X130039000Y-83791000D01*
X130799000Y-81309000D02*
X130799000Y-77643000D01*
X127719000Y-85129000D02*
X127719000Y-79971000D01*
X127799000Y-85259000D02*
X127799000Y-79841000D01*
X129319000Y-86797000D02*
X129319000Y-83791000D01*
X131159000Y-87540000D02*
X131159000Y-77560000D01*
X131640000Y-87608000D02*
X131640000Y-77492000D01*
X129039000Y-86600000D02*
X129039000Y-83791000D01*
X131520000Y-87595000D02*
X131520000Y-77505000D01*
X132120000Y-87630000D02*
X132120000Y-77470000D01*
X127639000Y-84989000D02*
X127639000Y-80111000D01*
X129359000Y-81309000D02*
X129359000Y-78277000D01*
X130319000Y-87304000D02*
X130319000Y-83791000D01*
X131760000Y-87618000D02*
X131760000Y-77482000D01*
X131399000Y-87580000D02*
X131399000Y-77520000D01*
X129439000Y-86873000D02*
X129439000Y-83791000D01*
X137099646Y-85925000D02*
X137099646Y-84925000D01*
X128639000Y-86266000D02*
X128639000Y-83791000D01*
X131199000Y-87547000D02*
X131199000Y-77553000D01*
X129999000Y-81309000D02*
X129999000Y-77929000D01*
X129359000Y-86823000D02*
X129359000Y-83791000D01*
X128399000Y-86028000D02*
X128399000Y-83791000D01*
X131039000Y-87515000D02*
X131039000Y-77585000D01*
X128479000Y-81309000D02*
X128479000Y-78989000D01*
X129199000Y-81309000D02*
X129199000Y-78384000D01*
X130439000Y-87347000D02*
X130439000Y-83791000D01*
X130319000Y-81309000D02*
X130319000Y-77796000D01*
X130359000Y-81309000D02*
X130359000Y-77782000D01*
X129399000Y-86848000D02*
X129399000Y-83791000D01*
X130439000Y-81309000D02*
X130439000Y-77753000D01*
X128919000Y-81309000D02*
X128919000Y-78593000D01*
X131319000Y-87568000D02*
X131319000Y-77532000D01*
X127759000Y-85195000D02*
X127759000Y-79905000D01*
X131680000Y-87612000D02*
X131680000Y-77488000D01*
X131359000Y-87574000D02*
X131359000Y-77526000D01*
X128959000Y-81309000D02*
X128959000Y-78561000D01*
X130239000Y-81309000D02*
X130239000Y-77827000D01*
X128679000Y-86303000D02*
X128679000Y-83791000D01*
X127399000Y-84494000D02*
X127399000Y-80606000D01*
X129639000Y-86990000D02*
X129639000Y-83791000D01*
X129119000Y-81309000D02*
X129119000Y-78440000D01*
X127159000Y-83780000D02*
X127159000Y-81320000D01*
X128479000Y-86111000D02*
X128479000Y-83791000D01*
X131960000Y-87628000D02*
X131960000Y-77472000D01*
X129999000Y-87171000D02*
X129999000Y-83791000D01*
X127919000Y-85439000D02*
X127919000Y-79661000D01*
X128439000Y-81309000D02*
X128439000Y-79030000D01*
X127199000Y-83928000D02*
X127199000Y-81172000D01*
X130039000Y-81309000D02*
X130039000Y-77911000D01*
X130639000Y-81309000D02*
X130639000Y-77688000D01*
X129079000Y-81309000D02*
X129079000Y-78470000D01*
X131800000Y-87620000D02*
X131800000Y-77480000D01*
X130479000Y-87361000D02*
X130479000Y-83791000D01*
X130079000Y-81309000D02*
X130079000Y-77893000D01*
X128799000Y-81309000D02*
X128799000Y-78692000D01*
X127839000Y-85320000D02*
X127839000Y-79780000D01*
X130159000Y-81309000D02*
X130159000Y-77860000D01*
X127559000Y-84839000D02*
X127559000Y-80261000D01*
X128119000Y-85706000D02*
X128119000Y-79394000D01*
X131119000Y-87532000D02*
X131119000Y-77568000D01*
X130719000Y-81309000D02*
X130719000Y-77665000D01*
X131079000Y-87524000D02*
X131079000Y-77576000D01*
X130199000Y-87257000D02*
X130199000Y-83791000D01*
X129919000Y-87134000D02*
X129919000Y-83791000D01*
X129879000Y-81309000D02*
X129879000Y-77986000D01*
X130079000Y-87207000D02*
X130079000Y-83791000D01*
X131840000Y-87623000D02*
X131840000Y-77477000D01*
X129559000Y-86945000D02*
X129559000Y-83791000D01*
X127599000Y-84915000D02*
X127599000Y-80185000D01*
X128839000Y-81309000D02*
X128839000Y-78658000D01*
X128599000Y-81309000D02*
X128599000Y-78871000D01*
X128919000Y-86507000D02*
X128919000Y-83791000D01*
X131880000Y-87625000D02*
X131880000Y-77475000D01*
X128839000Y-86442000D02*
X128839000Y-83791000D01*
X130639000Y-87412000D02*
X130639000Y-83791000D01*
X129799000Y-81309000D02*
X129799000Y-78025000D01*
X129959000Y-81309000D02*
X129959000Y-77947000D01*
X128519000Y-81309000D02*
X128519000Y-78949000D01*
X137599646Y-85425000D02*
X136599646Y-85425000D01*
X129159000Y-81309000D02*
X129159000Y-78412000D01*
X130879000Y-87478000D02*
X130879000Y-77622000D01*
X130199000Y-81309000D02*
X130199000Y-77843000D01*
X127879000Y-85380000D02*
X127879000Y-79720000D01*
X129959000Y-87153000D02*
X129959000Y-83791000D01*
X128719000Y-81309000D02*
X128719000Y-78761000D01*
X127239000Y-84060000D02*
X127239000Y-81040000D01*
X128159000Y-85756000D02*
X128159000Y-79344000D01*
X129879000Y-87114000D02*
X129879000Y-83791000D01*
X130519000Y-87374000D02*
X130519000Y-83791000D01*
X129839000Y-81309000D02*
X129839000Y-78005000D01*
X127439000Y-84587000D02*
X127439000Y-80513000D01*
X131600000Y-87604000D02*
X131600000Y-77496000D01*
X129519000Y-81309000D02*
X129519000Y-78179000D01*
X132040000Y-87630000D02*
X132040000Y-77470000D01*
X131720000Y-87615000D02*
X131720000Y-77485000D01*
X129479000Y-86897000D02*
X129479000Y-83791000D01*
X130959000Y-87497000D02*
X130959000Y-77603000D01*
X127479000Y-84675000D02*
X127479000Y-80425000D01*
X128719000Y-86339000D02*
X128719000Y-83791000D01*
X128999000Y-81309000D02*
X128999000Y-78530000D01*
X129919000Y-81309000D02*
X129919000Y-77966000D01*
X128759000Y-81309000D02*
X128759000Y-78726000D01*
X128319000Y-85942000D02*
X128319000Y-79158000D01*
X128799000Y-86408000D02*
X128799000Y-83791000D01*
X129279000Y-81309000D02*
X129279000Y-78329000D01*
X130599000Y-87400000D02*
X130599000Y-83791000D01*
X129599000Y-81309000D02*
X129599000Y-78133000D01*
X127119000Y-83612000D02*
X127119000Y-81488000D01*
X129759000Y-87054000D02*
X129759000Y-83791000D01*
X128359000Y-85986000D02*
X128359000Y-79114000D01*
X128879000Y-86475000D02*
X128879000Y-83791000D01*
X130799000Y-87457000D02*
X130799000Y-83791000D01*
X128639000Y-81309000D02*
X128639000Y-78834000D01*
X129399000Y-81309000D02*
X129399000Y-78252000D01*
X127039000Y-83149000D02*
X127039000Y-81951000D01*
X131920000Y-87627000D02*
X131920000Y-77473000D01*
X130759000Y-81309000D02*
X130759000Y-77653000D01*
X127959000Y-85495000D02*
X127959000Y-79605000D01*
X127519000Y-84759000D02*
X127519000Y-80341000D01*
X129719000Y-87033000D02*
X129719000Y-83791000D01*
X130359000Y-87318000D02*
X130359000Y-83791000D01*
X129199000Y-86716000D02*
X129199000Y-83791000D01*
X128999000Y-86570000D02*
X128999000Y-83791000D01*
X129319000Y-81309000D02*
X129319000Y-78303000D01*
X132080000Y-87630000D02*
X132080000Y-77470000D01*
X132000000Y-87629000D02*
X132000000Y-77471000D01*
X130119000Y-87224000D02*
X130119000Y-83791000D01*
X130399000Y-87333000D02*
X130399000Y-83791000D01*
X127679000Y-85060000D02*
X127679000Y-80040000D01*
X130559000Y-87387000D02*
X130559000Y-83791000D01*
X128079000Y-85656000D02*
X128079000Y-79444000D01*
X130519000Y-81309000D02*
X130519000Y-77726000D01*
X130679000Y-81309000D02*
X130679000Y-77676000D01*
X129679000Y-87012000D02*
X129679000Y-83791000D01*
X130279000Y-81309000D02*
X130279000Y-77812000D01*
X130279000Y-87288000D02*
X130279000Y-83791000D01*
X130479000Y-81309000D02*
X130479000Y-77739000D01*
X129519000Y-86921000D02*
X129519000Y-83791000D01*
X128559000Y-86190000D02*
X128559000Y-83791000D01*
X128399000Y-81309000D02*
X128399000Y-79072000D01*
X129239000Y-86744000D02*
X129239000Y-83791000D01*
X128759000Y-86374000D02*
X128759000Y-83791000D01*
X127319000Y-84292000D02*
X127319000Y-80808000D01*
X128559000Y-81309000D02*
X128559000Y-78910000D01*
X128679000Y-81309000D02*
X128679000Y-78797000D01*
X128959000Y-86539000D02*
X128959000Y-83791000D01*
X130999000Y-87506000D02*
X130999000Y-77594000D01*
X130399000Y-81309000D02*
X130399000Y-77767000D01*
X128039000Y-85604000D02*
X128039000Y-79496000D01*
X130719000Y-87435000D02*
X130719000Y-83791000D01*
X129159000Y-86688000D02*
X129159000Y-83791000D01*
X129559000Y-81309000D02*
X129559000Y-78155000D01*
X131480000Y-87590000D02*
X131480000Y-77510000D01*
X128519000Y-86151000D02*
X128519000Y-83791000D01*
X137240000Y-82550000D02*
G75*
G03*
X137240000Y-82550000I-5120000J0D01*
G01*
%TD*%
%LPC*%
D13*
%TO.C,C5*%
X149860000Y-89965000D03*
X149860000Y-92915000D03*
%TD*%
D14*
%TO.C,REF\u002A\u002A*%
X127000000Y-101600000D03*
%TD*%
D15*
%TO.C,U3*%
X156342500Y-82870000D03*
X156342500Y-83820000D03*
X156342500Y-84770000D03*
X158617500Y-84770000D03*
X158617500Y-82870000D03*
%TD*%
D16*
%TO.C,SW1*%
X141680000Y-99350000D03*
X135180000Y-99350000D03*
X141680000Y-103850000D03*
X135180000Y-103850000D03*
%TD*%
D14*
%TO.C,REF\u002A\u002A*%
X165100000Y-101600000D03*
%TD*%
%TO.C,REF\u002A\u002A*%
X165100000Y-73660000D03*
%TD*%
D17*
%TO.C,J2*%
X163265000Y-85170000D03*
D18*
X163265000Y-87710000D03*
X163265000Y-90250000D03*
%TD*%
D19*
%TO.C,U2*%
X147955000Y-86295000D03*
X149225000Y-86295000D03*
X150495000Y-86295000D03*
X151765000Y-86295000D03*
X151765000Y-81345000D03*
X150495000Y-81345000D03*
X149225000Y-81345000D03*
X147955000Y-81345000D03*
%TD*%
D13*
%TO.C,C6*%
X144780000Y-100125000D03*
X144780000Y-103075000D03*
%TD*%
D20*
%TO.C,R1*%
X156017500Y-91440000D03*
X158942500Y-91440000D03*
%TD*%
D13*
%TO.C,C3*%
X139700000Y-89965000D03*
X139700000Y-92915000D03*
%TD*%
D21*
%TO.C,U1*%
X140740000Y-85470000D03*
D22*
X142240000Y-85382500D03*
D21*
X143740000Y-85470000D03*
%TD*%
D23*
%TO.C,J1*%
X132797000Y-92710000D03*
D24*
X127797000Y-92710000D03*
X130197000Y-95410000D03*
%TD*%
D13*
%TO.C,C4*%
X144780000Y-89965000D03*
X144780000Y-92915000D03*
%TD*%
D17*
%TO.C,J3*%
X147320000Y-76200000D03*
D18*
X149860000Y-76200000D03*
X152400000Y-76200000D03*
X154940000Y-76200000D03*
%TD*%
D25*
%TO.C,C2*%
X142240000Y-78945000D03*
X142240000Y-75995000D03*
%TD*%
D14*
%TO.C,REF\u002A\u002A*%
X127000000Y-73660000D03*
%TD*%
D26*
%TO.C,C1*%
X134620000Y-82550000D03*
D16*
X129620000Y-82550000D03*
%TD*%
M02*
