%TF.GenerationSoftware,KiCad,Pcbnew,(6.0.8)*%
%TF.CreationDate,2022-12-23T18:45:43+01:00*%
%TF.ProjectId,Neopixel_LED_Star,4e656f70-6978-4656-9c5f-4c45445f5374,rev?*%
%TF.SameCoordinates,Original*%
%TF.FileFunction,Drillmap*%
%TF.FilePolarity,Positive*%
%FSLAX45Y45*%
G04 Gerber Fmt 4.5, Leading zero omitted, Abs format (unit mm)*
G04 Created by KiCad (PCBNEW (6.0.8)) date 2022-12-23 18:45:43*
%MOMM*%
%LPD*%
G01*
G04 APERTURE LIST*
%ADD10C,0.100000*%
%ADD11C,0.200000*%
%ADD12C,0.040000*%
%ADD13C,0.060000*%
%ADD14C,0.110000*%
%ADD15C,0.320000*%
G04 APERTURE END LIST*
D10*
X12192000Y-10668000D02*
X12192000Y-6858000D01*
X17018000Y-6858000D02*
X17018000Y-10668000D01*
X12192000Y-6858000D02*
X17018000Y-6858000D01*
X17018000Y-10668000D02*
X12192000Y-10668000D01*
D11*
D12*
X12299000Y-6965000D02*
X12339000Y-7005000D01*
X12339000Y-6965000D02*
X12299000Y-7005000D01*
X12299000Y-8743000D02*
X12339000Y-8783000D01*
X12339000Y-8743000D02*
X12299000Y-8783000D01*
X12299000Y-10521000D02*
X12339000Y-10561000D01*
X12339000Y-10521000D02*
X12299000Y-10561000D01*
X13823000Y-8362000D02*
X13863000Y-8402000D01*
X13863000Y-8362000D02*
X13823000Y-8402000D01*
X13950000Y-7600000D02*
X13990000Y-7640000D01*
X13990000Y-7600000D02*
X13950000Y-7640000D01*
X13950000Y-9505000D02*
X13990000Y-9545000D01*
X13990000Y-9505000D02*
X13950000Y-9545000D01*
X14458000Y-9505000D02*
X14498000Y-9545000D01*
X14498000Y-9505000D02*
X14458000Y-9545000D01*
X14521500Y-8298500D02*
X14561500Y-8338500D01*
X14561500Y-8298500D02*
X14521500Y-8338500D01*
X14585000Y-6965000D02*
X14625000Y-7005000D01*
X14625000Y-6965000D02*
X14585000Y-7005000D01*
X14585000Y-10521000D02*
X14625000Y-10561000D01*
X14625000Y-10521000D02*
X14585000Y-10561000D01*
X14966000Y-9505000D02*
X15006000Y-9545000D01*
X15006000Y-9505000D02*
X14966000Y-9545000D01*
X15093000Y-8362000D02*
X15133000Y-8402000D01*
X15133000Y-8362000D02*
X15093000Y-8402000D01*
X15575600Y-8006400D02*
X15615600Y-8046400D01*
X15615600Y-8006400D02*
X15575600Y-8046400D01*
X15575600Y-8717600D02*
X15615600Y-8757600D01*
X15615600Y-8717600D02*
X15575600Y-8757600D01*
X15651800Y-9809800D02*
X15691800Y-9849800D01*
X15691800Y-9809800D02*
X15651800Y-9849800D01*
X16045500Y-8425500D02*
X16085500Y-8465500D01*
X16085500Y-8425500D02*
X16045500Y-8465500D01*
X16871000Y-6965000D02*
X16911000Y-7005000D01*
X16911000Y-6965000D02*
X16871000Y-7005000D01*
X16871000Y-8743000D02*
X16911000Y-8783000D01*
X16911000Y-8743000D02*
X16871000Y-8783000D01*
X16871000Y-10521000D02*
X16911000Y-10561000D01*
X16911000Y-10521000D02*
X16871000Y-10561000D01*
D13*
X12809700Y-9271000D02*
G75*
G03*
X12809700Y-9271000I-30000J0D01*
G01*
D11*
X12749700Y-9236000D02*
X12749700Y-9306000D01*
X12809700Y-9236000D02*
X12809700Y-9306000D01*
X12749700Y-9306000D02*
G75*
G03*
X12809700Y-9306000I30000J0D01*
G01*
X12809700Y-9236000D02*
G75*
G03*
X12749700Y-9236000I-30000J0D01*
G01*
D13*
X13049700Y-9541000D02*
G75*
G03*
X13049700Y-9541000I-30000J0D01*
G01*
D11*
X12984700Y-9571000D02*
X13054700Y-9571000D01*
X12984700Y-9511000D02*
X13054700Y-9511000D01*
X13054700Y-9571000D02*
G75*
G03*
X13054700Y-9511000I0J30000D01*
G01*
X12984700Y-9511000D02*
G75*
G03*
X12984700Y-9571000I0J-30000D01*
G01*
D13*
X13309700Y-9271000D02*
G75*
G03*
X13309700Y-9271000I-30000J0D01*
G01*
D11*
X13249700Y-9236000D02*
X13249700Y-9306000D01*
X13309700Y-9236000D02*
X13309700Y-9306000D01*
X13249700Y-9306000D02*
G75*
G03*
X13309700Y-9306000I30000J0D01*
G01*
X13309700Y-9236000D02*
G75*
G03*
X13249700Y-9236000I-30000J0D01*
G01*
D10*
X12962000Y-8205000D02*
X12962000Y-8305000D01*
X12912000Y-8255000D02*
X13012000Y-8255000D01*
X13462000Y-8205000D02*
X13462000Y-8305000D01*
X13412000Y-8255000D02*
X13512000Y-8255000D01*
X14732000Y-7570000D02*
X14732000Y-7670000D01*
X14682000Y-7620000D02*
X14782000Y-7620000D01*
X14986000Y-7570000D02*
X14986000Y-7670000D01*
X14936000Y-7620000D02*
X15036000Y-7620000D01*
X15240000Y-7570000D02*
X15240000Y-7670000D01*
X15190000Y-7620000D02*
X15290000Y-7620000D01*
X15494000Y-7570000D02*
X15494000Y-7670000D01*
X15444000Y-7620000D02*
X15544000Y-7620000D01*
X16326500Y-8467000D02*
X16326500Y-8567000D01*
X16276500Y-8517000D02*
X16376500Y-8517000D01*
X16326500Y-8721000D02*
X16326500Y-8821000D01*
X16276500Y-8771000D02*
X16376500Y-8771000D01*
X16326500Y-8975000D02*
X16326500Y-9075000D01*
X16276500Y-9025000D02*
X16376500Y-9025000D01*
D14*
X13556891Y-9973891D02*
X13556891Y-9896109D01*
X13479109Y-9896109D01*
X13479109Y-9973891D01*
X13556891Y-9973891D01*
X13556891Y-10423891D02*
X13556891Y-10346109D01*
X13479109Y-10346109D01*
X13479109Y-10423891D01*
X13556891Y-10423891D01*
X14206891Y-9973891D02*
X14206891Y-9896109D01*
X14129109Y-9896109D01*
X14129109Y-9973891D01*
X14206891Y-9973891D01*
X14206891Y-10423891D02*
X14206891Y-10346109D01*
X14129109Y-10346109D01*
X14129109Y-10423891D01*
X14206891Y-10423891D01*
D15*
X12700000Y-7526000D02*
X12860000Y-7366000D01*
X12700000Y-7206000D01*
X12540000Y-7366000D01*
X12700000Y-7526000D01*
X12700000Y-10320000D02*
X12860000Y-10160000D01*
X12700000Y-10000000D01*
X12540000Y-10160000D01*
X12700000Y-10320000D01*
X16510000Y-7526000D02*
X16670000Y-7366000D01*
X16510000Y-7206000D01*
X16350000Y-7366000D01*
X16510000Y-7526000D01*
X16510000Y-10320000D02*
X16670000Y-10160000D01*
X16510000Y-10000000D01*
X16350000Y-10160000D01*
X16510000Y-10320000D01*
D11*
X12444619Y-10983476D02*
X12444619Y-10783476D01*
X12492238Y-10783476D01*
X12520809Y-10793000D01*
X12539857Y-10812048D01*
X12549381Y-10831095D01*
X12558905Y-10869190D01*
X12558905Y-10897762D01*
X12549381Y-10935857D01*
X12539857Y-10954905D01*
X12520809Y-10973952D01*
X12492238Y-10983476D01*
X12444619Y-10983476D01*
X12644619Y-10983476D02*
X12644619Y-10850143D01*
X12644619Y-10888238D02*
X12654143Y-10869190D01*
X12663667Y-10859667D01*
X12682714Y-10850143D01*
X12701762Y-10850143D01*
X12768428Y-10983476D02*
X12768428Y-10850143D01*
X12768428Y-10783476D02*
X12758905Y-10793000D01*
X12768428Y-10802524D01*
X12777952Y-10793000D01*
X12768428Y-10783476D01*
X12768428Y-10802524D01*
X12892238Y-10983476D02*
X12873190Y-10973952D01*
X12863667Y-10954905D01*
X12863667Y-10783476D01*
X12997000Y-10983476D02*
X12977952Y-10973952D01*
X12968428Y-10954905D01*
X12968428Y-10783476D01*
X13225571Y-10983476D02*
X13225571Y-10783476D01*
X13292238Y-10926333D01*
X13358905Y-10783476D01*
X13358905Y-10983476D01*
X13539857Y-10983476D02*
X13539857Y-10878714D01*
X13530333Y-10859667D01*
X13511286Y-10850143D01*
X13473190Y-10850143D01*
X13454143Y-10859667D01*
X13539857Y-10973952D02*
X13520809Y-10983476D01*
X13473190Y-10983476D01*
X13454143Y-10973952D01*
X13444619Y-10954905D01*
X13444619Y-10935857D01*
X13454143Y-10916810D01*
X13473190Y-10907286D01*
X13520809Y-10907286D01*
X13539857Y-10897762D01*
X13635095Y-10850143D02*
X13635095Y-11050143D01*
X13635095Y-10859667D02*
X13654143Y-10850143D01*
X13692238Y-10850143D01*
X13711286Y-10859667D01*
X13720809Y-10869190D01*
X13730333Y-10888238D01*
X13730333Y-10945381D01*
X13720809Y-10964429D01*
X13711286Y-10973952D01*
X13692238Y-10983476D01*
X13654143Y-10983476D01*
X13635095Y-10973952D01*
X13816048Y-10964429D02*
X13825571Y-10973952D01*
X13816048Y-10983476D01*
X13806524Y-10973952D01*
X13816048Y-10964429D01*
X13816048Y-10983476D01*
X13816048Y-10859667D02*
X13825571Y-10869190D01*
X13816048Y-10878714D01*
X13806524Y-10869190D01*
X13816048Y-10859667D01*
X13816048Y-10878714D01*
D12*
X12147000Y-11293000D02*
X12187000Y-11333000D01*
X12187000Y-11293000D02*
X12147000Y-11333000D01*
D11*
X12482714Y-11203476D02*
X12501762Y-11203476D01*
X12520809Y-11213000D01*
X12530333Y-11222524D01*
X12539857Y-11241571D01*
X12549381Y-11279667D01*
X12549381Y-11327286D01*
X12539857Y-11365381D01*
X12530333Y-11384428D01*
X12520809Y-11393952D01*
X12501762Y-11403476D01*
X12482714Y-11403476D01*
X12463667Y-11393952D01*
X12454143Y-11384428D01*
X12444619Y-11365381D01*
X12435095Y-11327286D01*
X12435095Y-11279667D01*
X12444619Y-11241571D01*
X12454143Y-11222524D01*
X12463667Y-11213000D01*
X12482714Y-11203476D01*
X12635095Y-11384428D02*
X12644619Y-11393952D01*
X12635095Y-11403476D01*
X12625571Y-11393952D01*
X12635095Y-11384428D01*
X12635095Y-11403476D01*
X12816048Y-11270143D02*
X12816048Y-11403476D01*
X12768428Y-11193952D02*
X12720809Y-11336809D01*
X12844619Y-11336809D01*
X12958905Y-11203476D02*
X12977952Y-11203476D01*
X12997000Y-11213000D01*
X13006524Y-11222524D01*
X13016048Y-11241571D01*
X13025571Y-11279667D01*
X13025571Y-11327286D01*
X13016048Y-11365381D01*
X13006524Y-11384428D01*
X12997000Y-11393952D01*
X12977952Y-11403476D01*
X12958905Y-11403476D01*
X12939857Y-11393952D01*
X12930333Y-11384428D01*
X12920809Y-11365381D01*
X12911286Y-11327286D01*
X12911286Y-11279667D01*
X12920809Y-11241571D01*
X12930333Y-11222524D01*
X12939857Y-11213000D01*
X12958905Y-11203476D01*
X13149381Y-11203476D02*
X13168428Y-11203476D01*
X13187476Y-11213000D01*
X13197000Y-11222524D01*
X13206524Y-11241571D01*
X13216048Y-11279667D01*
X13216048Y-11327286D01*
X13206524Y-11365381D01*
X13197000Y-11384428D01*
X13187476Y-11393952D01*
X13168428Y-11403476D01*
X13149381Y-11403476D01*
X13130333Y-11393952D01*
X13120809Y-11384428D01*
X13111286Y-11365381D01*
X13101762Y-11327286D01*
X13101762Y-11279667D01*
X13111286Y-11241571D01*
X13120809Y-11222524D01*
X13130333Y-11213000D01*
X13149381Y-11203476D01*
X13301762Y-11403476D02*
X13301762Y-11270143D01*
X13301762Y-11289190D02*
X13311286Y-11279667D01*
X13330333Y-11270143D01*
X13358905Y-11270143D01*
X13377952Y-11279667D01*
X13387476Y-11298714D01*
X13387476Y-11403476D01*
X13387476Y-11298714D02*
X13397000Y-11279667D01*
X13416048Y-11270143D01*
X13444619Y-11270143D01*
X13463667Y-11279667D01*
X13473190Y-11298714D01*
X13473190Y-11403476D01*
X13568428Y-11403476D02*
X13568428Y-11270143D01*
X13568428Y-11289190D02*
X13577952Y-11279667D01*
X13597000Y-11270143D01*
X13625571Y-11270143D01*
X13644619Y-11279667D01*
X13654143Y-11298714D01*
X13654143Y-11403476D01*
X13654143Y-11298714D02*
X13663667Y-11279667D01*
X13682714Y-11270143D01*
X13711286Y-11270143D01*
X13730333Y-11279667D01*
X13739857Y-11298714D01*
X13739857Y-11403476D01*
X14130333Y-11193952D02*
X13958905Y-11451095D01*
X14387476Y-11203476D02*
X14406524Y-11203476D01*
X14425571Y-11213000D01*
X14435095Y-11222524D01*
X14444619Y-11241571D01*
X14454143Y-11279667D01*
X14454143Y-11327286D01*
X14444619Y-11365381D01*
X14435095Y-11384428D01*
X14425571Y-11393952D01*
X14406524Y-11403476D01*
X14387476Y-11403476D01*
X14368428Y-11393952D01*
X14358905Y-11384428D01*
X14349381Y-11365381D01*
X14339857Y-11327286D01*
X14339857Y-11279667D01*
X14349381Y-11241571D01*
X14358905Y-11222524D01*
X14368428Y-11213000D01*
X14387476Y-11203476D01*
X14539857Y-11384428D02*
X14549381Y-11393952D01*
X14539857Y-11403476D01*
X14530333Y-11393952D01*
X14539857Y-11384428D01*
X14539857Y-11403476D01*
X14673190Y-11203476D02*
X14692238Y-11203476D01*
X14711286Y-11213000D01*
X14720809Y-11222524D01*
X14730333Y-11241571D01*
X14739857Y-11279667D01*
X14739857Y-11327286D01*
X14730333Y-11365381D01*
X14720809Y-11384428D01*
X14711286Y-11393952D01*
X14692238Y-11403476D01*
X14673190Y-11403476D01*
X14654143Y-11393952D01*
X14644619Y-11384428D01*
X14635095Y-11365381D01*
X14625571Y-11327286D01*
X14625571Y-11279667D01*
X14635095Y-11241571D01*
X14644619Y-11222524D01*
X14654143Y-11213000D01*
X14673190Y-11203476D01*
X14930333Y-11403476D02*
X14816048Y-11403476D01*
X14873190Y-11403476D02*
X14873190Y-11203476D01*
X14854143Y-11232048D01*
X14835095Y-11251095D01*
X14816048Y-11260619D01*
X15111286Y-11203476D02*
X15016048Y-11203476D01*
X15006524Y-11298714D01*
X15016048Y-11289190D01*
X15035095Y-11279667D01*
X15082714Y-11279667D01*
X15101762Y-11289190D01*
X15111286Y-11298714D01*
X15120809Y-11317762D01*
X15120809Y-11365381D01*
X15111286Y-11384428D01*
X15101762Y-11393952D01*
X15082714Y-11403476D01*
X15035095Y-11403476D01*
X15016048Y-11393952D01*
X15006524Y-11384428D01*
X15187476Y-11203476D02*
X15320809Y-11203476D01*
X15235095Y-11403476D01*
X15387476Y-11203476D02*
X15387476Y-11241571D01*
X15463667Y-11203476D02*
X15463667Y-11241571D01*
X15758905Y-11479667D02*
X15749381Y-11470143D01*
X15730333Y-11441571D01*
X15720809Y-11422524D01*
X15711286Y-11393952D01*
X15701762Y-11346333D01*
X15701762Y-11308238D01*
X15711286Y-11260619D01*
X15720809Y-11232048D01*
X15730333Y-11213000D01*
X15749381Y-11184429D01*
X15758905Y-11174905D01*
X15939857Y-11403476D02*
X15825571Y-11403476D01*
X15882714Y-11403476D02*
X15882714Y-11203476D01*
X15863667Y-11232048D01*
X15844619Y-11251095D01*
X15825571Y-11260619D01*
X16035095Y-11403476D02*
X16073190Y-11403476D01*
X16092238Y-11393952D01*
X16101762Y-11384428D01*
X16120809Y-11355857D01*
X16130333Y-11317762D01*
X16130333Y-11241571D01*
X16120809Y-11222524D01*
X16111286Y-11213000D01*
X16092238Y-11203476D01*
X16054143Y-11203476D01*
X16035095Y-11213000D01*
X16025571Y-11222524D01*
X16016048Y-11241571D01*
X16016048Y-11289190D01*
X16025571Y-11308238D01*
X16035095Y-11317762D01*
X16054143Y-11327286D01*
X16092238Y-11327286D01*
X16111286Y-11317762D01*
X16120809Y-11308238D01*
X16130333Y-11289190D01*
X16368428Y-11403476D02*
X16368428Y-11203476D01*
X16454143Y-11403476D02*
X16454143Y-11298714D01*
X16444619Y-11279667D01*
X16425571Y-11270143D01*
X16397000Y-11270143D01*
X16377952Y-11279667D01*
X16368428Y-11289190D01*
X16577952Y-11403476D02*
X16558905Y-11393952D01*
X16549381Y-11384428D01*
X16539857Y-11365381D01*
X16539857Y-11308238D01*
X16549381Y-11289190D01*
X16558905Y-11279667D01*
X16577952Y-11270143D01*
X16606524Y-11270143D01*
X16625571Y-11279667D01*
X16635095Y-11289190D01*
X16644619Y-11308238D01*
X16644619Y-11365381D01*
X16635095Y-11384428D01*
X16625571Y-11393952D01*
X16606524Y-11403476D01*
X16577952Y-11403476D01*
X16758905Y-11403476D02*
X16739857Y-11393952D01*
X16730333Y-11374905D01*
X16730333Y-11203476D01*
X16911286Y-11393952D02*
X16892238Y-11403476D01*
X16854143Y-11403476D01*
X16835095Y-11393952D01*
X16825571Y-11374905D01*
X16825571Y-11298714D01*
X16835095Y-11279667D01*
X16854143Y-11270143D01*
X16892238Y-11270143D01*
X16911286Y-11279667D01*
X16920810Y-11298714D01*
X16920810Y-11317762D01*
X16825571Y-11336809D01*
X16997000Y-11393952D02*
X17016048Y-11403476D01*
X17054143Y-11403476D01*
X17073190Y-11393952D01*
X17082714Y-11374905D01*
X17082714Y-11365381D01*
X17073190Y-11346333D01*
X17054143Y-11336809D01*
X17025571Y-11336809D01*
X17006524Y-11327286D01*
X16997000Y-11308238D01*
X16997000Y-11298714D01*
X17006524Y-11279667D01*
X17025571Y-11270143D01*
X17054143Y-11270143D01*
X17073190Y-11279667D01*
X17149381Y-11479667D02*
X17158905Y-11470143D01*
X17177952Y-11441571D01*
X17187476Y-11422524D01*
X17197000Y-11393952D01*
X17206524Y-11346333D01*
X17206524Y-11308238D01*
X17197000Y-11260619D01*
X17187476Y-11232048D01*
X17177952Y-11213000D01*
X17158905Y-11184429D01*
X17149381Y-11174905D01*
D13*
X12187000Y-11577000D02*
G75*
G03*
X12187000Y-11577000I-30000J0D01*
G01*
D11*
X12482714Y-11467476D02*
X12501762Y-11467476D01*
X12520809Y-11477000D01*
X12530333Y-11486524D01*
X12539857Y-11505571D01*
X12549381Y-11543667D01*
X12549381Y-11591286D01*
X12539857Y-11629381D01*
X12530333Y-11648428D01*
X12520809Y-11657952D01*
X12501762Y-11667476D01*
X12482714Y-11667476D01*
X12463667Y-11657952D01*
X12454143Y-11648428D01*
X12444619Y-11629381D01*
X12435095Y-11591286D01*
X12435095Y-11543667D01*
X12444619Y-11505571D01*
X12454143Y-11486524D01*
X12463667Y-11477000D01*
X12482714Y-11467476D01*
X12635095Y-11648428D02*
X12644619Y-11657952D01*
X12635095Y-11667476D01*
X12625571Y-11657952D01*
X12635095Y-11648428D01*
X12635095Y-11667476D01*
X12816048Y-11467476D02*
X12777952Y-11467476D01*
X12758905Y-11477000D01*
X12749381Y-11486524D01*
X12730333Y-11515095D01*
X12720809Y-11553190D01*
X12720809Y-11629381D01*
X12730333Y-11648428D01*
X12739857Y-11657952D01*
X12758905Y-11667476D01*
X12797000Y-11667476D01*
X12816048Y-11657952D01*
X12825571Y-11648428D01*
X12835095Y-11629381D01*
X12835095Y-11581762D01*
X12825571Y-11562714D01*
X12816048Y-11553190D01*
X12797000Y-11543667D01*
X12758905Y-11543667D01*
X12739857Y-11553190D01*
X12730333Y-11562714D01*
X12720809Y-11581762D01*
X12958905Y-11467476D02*
X12977952Y-11467476D01*
X12997000Y-11477000D01*
X13006524Y-11486524D01*
X13016048Y-11505571D01*
X13025571Y-11543667D01*
X13025571Y-11591286D01*
X13016048Y-11629381D01*
X13006524Y-11648428D01*
X12997000Y-11657952D01*
X12977952Y-11667476D01*
X12958905Y-11667476D01*
X12939857Y-11657952D01*
X12930333Y-11648428D01*
X12920809Y-11629381D01*
X12911286Y-11591286D01*
X12911286Y-11543667D01*
X12920809Y-11505571D01*
X12930333Y-11486524D01*
X12939857Y-11477000D01*
X12958905Y-11467476D01*
X13149381Y-11467476D02*
X13168428Y-11467476D01*
X13187476Y-11477000D01*
X13197000Y-11486524D01*
X13206524Y-11505571D01*
X13216048Y-11543667D01*
X13216048Y-11591286D01*
X13206524Y-11629381D01*
X13197000Y-11648428D01*
X13187476Y-11657952D01*
X13168428Y-11667476D01*
X13149381Y-11667476D01*
X13130333Y-11657952D01*
X13120809Y-11648428D01*
X13111286Y-11629381D01*
X13101762Y-11591286D01*
X13101762Y-11543667D01*
X13111286Y-11505571D01*
X13120809Y-11486524D01*
X13130333Y-11477000D01*
X13149381Y-11467476D01*
X13301762Y-11667476D02*
X13301762Y-11534143D01*
X13301762Y-11553190D02*
X13311286Y-11543667D01*
X13330333Y-11534143D01*
X13358905Y-11534143D01*
X13377952Y-11543667D01*
X13387476Y-11562714D01*
X13387476Y-11667476D01*
X13387476Y-11562714D02*
X13397000Y-11543667D01*
X13416048Y-11534143D01*
X13444619Y-11534143D01*
X13463667Y-11543667D01*
X13473190Y-11562714D01*
X13473190Y-11667476D01*
X13568428Y-11667476D02*
X13568428Y-11534143D01*
X13568428Y-11553190D02*
X13577952Y-11543667D01*
X13597000Y-11534143D01*
X13625571Y-11534143D01*
X13644619Y-11543667D01*
X13654143Y-11562714D01*
X13654143Y-11667476D01*
X13654143Y-11562714D02*
X13663667Y-11543667D01*
X13682714Y-11534143D01*
X13711286Y-11534143D01*
X13730333Y-11543667D01*
X13739857Y-11562714D01*
X13739857Y-11667476D01*
X14130333Y-11457952D02*
X13958905Y-11715095D01*
X14387476Y-11467476D02*
X14406524Y-11467476D01*
X14425571Y-11477000D01*
X14435095Y-11486524D01*
X14444619Y-11505571D01*
X14454143Y-11543667D01*
X14454143Y-11591286D01*
X14444619Y-11629381D01*
X14435095Y-11648428D01*
X14425571Y-11657952D01*
X14406524Y-11667476D01*
X14387476Y-11667476D01*
X14368428Y-11657952D01*
X14358905Y-11648428D01*
X14349381Y-11629381D01*
X14339857Y-11591286D01*
X14339857Y-11543667D01*
X14349381Y-11505571D01*
X14358905Y-11486524D01*
X14368428Y-11477000D01*
X14387476Y-11467476D01*
X14539857Y-11648428D02*
X14549381Y-11657952D01*
X14539857Y-11667476D01*
X14530333Y-11657952D01*
X14539857Y-11648428D01*
X14539857Y-11667476D01*
X14673190Y-11467476D02*
X14692238Y-11467476D01*
X14711286Y-11477000D01*
X14720809Y-11486524D01*
X14730333Y-11505571D01*
X14739857Y-11543667D01*
X14739857Y-11591286D01*
X14730333Y-11629381D01*
X14720809Y-11648428D01*
X14711286Y-11657952D01*
X14692238Y-11667476D01*
X14673190Y-11667476D01*
X14654143Y-11657952D01*
X14644619Y-11648428D01*
X14635095Y-11629381D01*
X14625571Y-11591286D01*
X14625571Y-11543667D01*
X14635095Y-11505571D01*
X14644619Y-11486524D01*
X14654143Y-11477000D01*
X14673190Y-11467476D01*
X14816048Y-11486524D02*
X14825571Y-11477000D01*
X14844619Y-11467476D01*
X14892238Y-11467476D01*
X14911286Y-11477000D01*
X14920809Y-11486524D01*
X14930333Y-11505571D01*
X14930333Y-11524619D01*
X14920809Y-11553190D01*
X14806524Y-11667476D01*
X14930333Y-11667476D01*
X14997000Y-11467476D02*
X15120809Y-11467476D01*
X15054143Y-11543667D01*
X15082714Y-11543667D01*
X15101762Y-11553190D01*
X15111286Y-11562714D01*
X15120809Y-11581762D01*
X15120809Y-11629381D01*
X15111286Y-11648428D01*
X15101762Y-11657952D01*
X15082714Y-11667476D01*
X15025571Y-11667476D01*
X15006524Y-11657952D01*
X14997000Y-11648428D01*
X15292238Y-11467476D02*
X15254143Y-11467476D01*
X15235095Y-11477000D01*
X15225571Y-11486524D01*
X15206524Y-11515095D01*
X15197000Y-11553190D01*
X15197000Y-11629381D01*
X15206524Y-11648428D01*
X15216048Y-11657952D01*
X15235095Y-11667476D01*
X15273190Y-11667476D01*
X15292238Y-11657952D01*
X15301762Y-11648428D01*
X15311286Y-11629381D01*
X15311286Y-11581762D01*
X15301762Y-11562714D01*
X15292238Y-11553190D01*
X15273190Y-11543667D01*
X15235095Y-11543667D01*
X15216048Y-11553190D01*
X15206524Y-11562714D01*
X15197000Y-11581762D01*
X15387476Y-11467476D02*
X15387476Y-11505571D01*
X15463667Y-11467476D02*
X15463667Y-11505571D01*
X15758905Y-11743667D02*
X15749381Y-11734143D01*
X15730333Y-11705571D01*
X15720809Y-11686524D01*
X15711286Y-11657952D01*
X15701762Y-11610333D01*
X15701762Y-11572238D01*
X15711286Y-11524619D01*
X15720809Y-11496048D01*
X15730333Y-11477000D01*
X15749381Y-11448428D01*
X15758905Y-11438905D01*
X15873190Y-11467476D02*
X15892238Y-11467476D01*
X15911286Y-11477000D01*
X15920809Y-11486524D01*
X15930333Y-11505571D01*
X15939857Y-11543667D01*
X15939857Y-11591286D01*
X15930333Y-11629381D01*
X15920809Y-11648428D01*
X15911286Y-11657952D01*
X15892238Y-11667476D01*
X15873190Y-11667476D01*
X15854143Y-11657952D01*
X15844619Y-11648428D01*
X15835095Y-11629381D01*
X15825571Y-11591286D01*
X15825571Y-11543667D01*
X15835095Y-11505571D01*
X15844619Y-11486524D01*
X15854143Y-11477000D01*
X15873190Y-11467476D01*
X16177952Y-11667476D02*
X16177952Y-11467476D01*
X16263667Y-11667476D02*
X16263667Y-11562714D01*
X16254143Y-11543667D01*
X16235095Y-11534143D01*
X16206524Y-11534143D01*
X16187476Y-11543667D01*
X16177952Y-11553190D01*
X16387476Y-11667476D02*
X16368428Y-11657952D01*
X16358905Y-11648428D01*
X16349381Y-11629381D01*
X16349381Y-11572238D01*
X16358905Y-11553190D01*
X16368428Y-11543667D01*
X16387476Y-11534143D01*
X16416048Y-11534143D01*
X16435095Y-11543667D01*
X16444619Y-11553190D01*
X16454143Y-11572238D01*
X16454143Y-11629381D01*
X16444619Y-11648428D01*
X16435095Y-11657952D01*
X16416048Y-11667476D01*
X16387476Y-11667476D01*
X16568428Y-11667476D02*
X16549381Y-11657952D01*
X16539857Y-11638905D01*
X16539857Y-11467476D01*
X16720809Y-11657952D02*
X16701762Y-11667476D01*
X16663667Y-11667476D01*
X16644619Y-11657952D01*
X16635095Y-11638905D01*
X16635095Y-11562714D01*
X16644619Y-11543667D01*
X16663667Y-11534143D01*
X16701762Y-11534143D01*
X16720809Y-11543667D01*
X16730333Y-11562714D01*
X16730333Y-11581762D01*
X16635095Y-11600809D01*
X16806524Y-11657952D02*
X16825571Y-11667476D01*
X16863667Y-11667476D01*
X16882714Y-11657952D01*
X16892238Y-11638905D01*
X16892238Y-11629381D01*
X16882714Y-11610333D01*
X16863667Y-11600809D01*
X16835095Y-11600809D01*
X16816048Y-11591286D01*
X16806524Y-11572238D01*
X16806524Y-11562714D01*
X16816048Y-11543667D01*
X16835095Y-11534143D01*
X16863667Y-11534143D01*
X16882714Y-11543667D01*
X17130333Y-11591286D02*
X17282714Y-11591286D01*
X17206524Y-11667476D02*
X17206524Y-11515095D01*
X17511286Y-11467476D02*
X17635095Y-11467476D01*
X17568429Y-11543667D01*
X17597000Y-11543667D01*
X17616048Y-11553190D01*
X17625571Y-11562714D01*
X17635095Y-11581762D01*
X17635095Y-11629381D01*
X17625571Y-11648428D01*
X17616048Y-11657952D01*
X17597000Y-11667476D01*
X17539857Y-11667476D01*
X17520810Y-11657952D01*
X17511286Y-11648428D01*
X17863667Y-11657952D02*
X17882714Y-11667476D01*
X17920810Y-11667476D01*
X17939857Y-11657952D01*
X17949381Y-11638905D01*
X17949381Y-11629381D01*
X17939857Y-11610333D01*
X17920810Y-11600809D01*
X17892238Y-11600809D01*
X17873190Y-11591286D01*
X17863667Y-11572238D01*
X17863667Y-11562714D01*
X17873190Y-11543667D01*
X17892238Y-11534143D01*
X17920810Y-11534143D01*
X17939857Y-11543667D01*
X18063667Y-11667476D02*
X18044619Y-11657952D01*
X18035095Y-11638905D01*
X18035095Y-11467476D01*
X18168429Y-11667476D02*
X18149381Y-11657952D01*
X18139857Y-11648428D01*
X18130333Y-11629381D01*
X18130333Y-11572238D01*
X18139857Y-11553190D01*
X18149381Y-11543667D01*
X18168429Y-11534143D01*
X18197000Y-11534143D01*
X18216048Y-11543667D01*
X18225571Y-11553190D01*
X18235095Y-11572238D01*
X18235095Y-11629381D01*
X18225571Y-11648428D01*
X18216048Y-11657952D01*
X18197000Y-11667476D01*
X18168429Y-11667476D01*
X18292238Y-11534143D02*
X18368429Y-11534143D01*
X18320810Y-11467476D02*
X18320810Y-11638905D01*
X18330333Y-11657952D01*
X18349381Y-11667476D01*
X18368429Y-11667476D01*
X18425571Y-11657952D02*
X18444619Y-11667476D01*
X18482714Y-11667476D01*
X18501762Y-11657952D01*
X18511286Y-11638905D01*
X18511286Y-11629381D01*
X18501762Y-11610333D01*
X18482714Y-11600809D01*
X18454143Y-11600809D01*
X18435095Y-11591286D01*
X18425571Y-11572238D01*
X18425571Y-11562714D01*
X18435095Y-11543667D01*
X18454143Y-11534143D01*
X18482714Y-11534143D01*
X18501762Y-11543667D01*
X18577952Y-11743667D02*
X18587476Y-11734143D01*
X18606524Y-11705571D01*
X18616048Y-11686524D01*
X18625571Y-11657952D01*
X18635095Y-11610333D01*
X18635095Y-11572238D01*
X18625571Y-11524619D01*
X18616048Y-11496048D01*
X18606524Y-11477000D01*
X18587476Y-11448428D01*
X18577952Y-11438905D01*
D10*
X12137000Y-11791000D02*
X12137000Y-11891000D01*
X12087000Y-11841000D02*
X12187000Y-11841000D01*
D11*
X12549381Y-11931476D02*
X12435095Y-11931476D01*
X12492238Y-11931476D02*
X12492238Y-11731476D01*
X12473190Y-11760048D01*
X12454143Y-11779095D01*
X12435095Y-11788619D01*
X12635095Y-11912428D02*
X12644619Y-11921952D01*
X12635095Y-11931476D01*
X12625571Y-11921952D01*
X12635095Y-11912428D01*
X12635095Y-11931476D01*
X12768428Y-11731476D02*
X12787476Y-11731476D01*
X12806524Y-11741000D01*
X12816048Y-11750524D01*
X12825571Y-11769571D01*
X12835095Y-11807667D01*
X12835095Y-11855286D01*
X12825571Y-11893381D01*
X12816048Y-11912428D01*
X12806524Y-11921952D01*
X12787476Y-11931476D01*
X12768428Y-11931476D01*
X12749381Y-11921952D01*
X12739857Y-11912428D01*
X12730333Y-11893381D01*
X12720809Y-11855286D01*
X12720809Y-11807667D01*
X12730333Y-11769571D01*
X12739857Y-11750524D01*
X12749381Y-11741000D01*
X12768428Y-11731476D01*
X12958905Y-11731476D02*
X12977952Y-11731476D01*
X12997000Y-11741000D01*
X13006524Y-11750524D01*
X13016048Y-11769571D01*
X13025571Y-11807667D01*
X13025571Y-11855286D01*
X13016048Y-11893381D01*
X13006524Y-11912428D01*
X12997000Y-11921952D01*
X12977952Y-11931476D01*
X12958905Y-11931476D01*
X12939857Y-11921952D01*
X12930333Y-11912428D01*
X12920809Y-11893381D01*
X12911286Y-11855286D01*
X12911286Y-11807667D01*
X12920809Y-11769571D01*
X12930333Y-11750524D01*
X12939857Y-11741000D01*
X12958905Y-11731476D01*
X13149381Y-11731476D02*
X13168428Y-11731476D01*
X13187476Y-11741000D01*
X13197000Y-11750524D01*
X13206524Y-11769571D01*
X13216048Y-11807667D01*
X13216048Y-11855286D01*
X13206524Y-11893381D01*
X13197000Y-11912428D01*
X13187476Y-11921952D01*
X13168428Y-11931476D01*
X13149381Y-11931476D01*
X13130333Y-11921952D01*
X13120809Y-11912428D01*
X13111286Y-11893381D01*
X13101762Y-11855286D01*
X13101762Y-11807667D01*
X13111286Y-11769571D01*
X13120809Y-11750524D01*
X13130333Y-11741000D01*
X13149381Y-11731476D01*
X13301762Y-11931476D02*
X13301762Y-11798143D01*
X13301762Y-11817190D02*
X13311286Y-11807667D01*
X13330333Y-11798143D01*
X13358905Y-11798143D01*
X13377952Y-11807667D01*
X13387476Y-11826714D01*
X13387476Y-11931476D01*
X13387476Y-11826714D02*
X13397000Y-11807667D01*
X13416048Y-11798143D01*
X13444619Y-11798143D01*
X13463667Y-11807667D01*
X13473190Y-11826714D01*
X13473190Y-11931476D01*
X13568428Y-11931476D02*
X13568428Y-11798143D01*
X13568428Y-11817190D02*
X13577952Y-11807667D01*
X13597000Y-11798143D01*
X13625571Y-11798143D01*
X13644619Y-11807667D01*
X13654143Y-11826714D01*
X13654143Y-11931476D01*
X13654143Y-11826714D02*
X13663667Y-11807667D01*
X13682714Y-11798143D01*
X13711286Y-11798143D01*
X13730333Y-11807667D01*
X13739857Y-11826714D01*
X13739857Y-11931476D01*
X14130333Y-11721952D02*
X13958905Y-11979095D01*
X14387476Y-11731476D02*
X14406524Y-11731476D01*
X14425571Y-11741000D01*
X14435095Y-11750524D01*
X14444619Y-11769571D01*
X14454143Y-11807667D01*
X14454143Y-11855286D01*
X14444619Y-11893381D01*
X14435095Y-11912428D01*
X14425571Y-11921952D01*
X14406524Y-11931476D01*
X14387476Y-11931476D01*
X14368428Y-11921952D01*
X14358905Y-11912428D01*
X14349381Y-11893381D01*
X14339857Y-11855286D01*
X14339857Y-11807667D01*
X14349381Y-11769571D01*
X14358905Y-11750524D01*
X14368428Y-11741000D01*
X14387476Y-11731476D01*
X14539857Y-11912428D02*
X14549381Y-11921952D01*
X14539857Y-11931476D01*
X14530333Y-11921952D01*
X14539857Y-11912428D01*
X14539857Y-11931476D01*
X14673190Y-11731476D02*
X14692238Y-11731476D01*
X14711286Y-11741000D01*
X14720809Y-11750524D01*
X14730333Y-11769571D01*
X14739857Y-11807667D01*
X14739857Y-11855286D01*
X14730333Y-11893381D01*
X14720809Y-11912428D01*
X14711286Y-11921952D01*
X14692238Y-11931476D01*
X14673190Y-11931476D01*
X14654143Y-11921952D01*
X14644619Y-11912428D01*
X14635095Y-11893381D01*
X14625571Y-11855286D01*
X14625571Y-11807667D01*
X14635095Y-11769571D01*
X14644619Y-11750524D01*
X14654143Y-11741000D01*
X14673190Y-11731476D01*
X14806524Y-11731476D02*
X14930333Y-11731476D01*
X14863667Y-11807667D01*
X14892238Y-11807667D01*
X14911286Y-11817190D01*
X14920809Y-11826714D01*
X14930333Y-11845762D01*
X14930333Y-11893381D01*
X14920809Y-11912428D01*
X14911286Y-11921952D01*
X14892238Y-11931476D01*
X14835095Y-11931476D01*
X14816048Y-11921952D01*
X14806524Y-11912428D01*
X15025571Y-11931476D02*
X15063667Y-11931476D01*
X15082714Y-11921952D01*
X15092238Y-11912428D01*
X15111286Y-11883857D01*
X15120809Y-11845762D01*
X15120809Y-11769571D01*
X15111286Y-11750524D01*
X15101762Y-11741000D01*
X15082714Y-11731476D01*
X15044619Y-11731476D01*
X15025571Y-11741000D01*
X15016048Y-11750524D01*
X15006524Y-11769571D01*
X15006524Y-11817190D01*
X15016048Y-11836238D01*
X15025571Y-11845762D01*
X15044619Y-11855286D01*
X15082714Y-11855286D01*
X15101762Y-11845762D01*
X15111286Y-11836238D01*
X15120809Y-11817190D01*
X15292238Y-11798143D02*
X15292238Y-11931476D01*
X15244619Y-11721952D02*
X15197000Y-11864809D01*
X15320809Y-11864809D01*
X15387476Y-11731476D02*
X15387476Y-11769571D01*
X15463667Y-11731476D02*
X15463667Y-11769571D01*
X15758905Y-12007667D02*
X15749381Y-11998143D01*
X15730333Y-11969571D01*
X15720809Y-11950524D01*
X15711286Y-11921952D01*
X15701762Y-11874333D01*
X15701762Y-11836238D01*
X15711286Y-11788619D01*
X15720809Y-11760048D01*
X15730333Y-11741000D01*
X15749381Y-11712428D01*
X15758905Y-11702905D01*
X15844619Y-11931476D02*
X15882714Y-11931476D01*
X15901762Y-11921952D01*
X15911286Y-11912428D01*
X15930333Y-11883857D01*
X15939857Y-11845762D01*
X15939857Y-11769571D01*
X15930333Y-11750524D01*
X15920809Y-11741000D01*
X15901762Y-11731476D01*
X15863667Y-11731476D01*
X15844619Y-11741000D01*
X15835095Y-11750524D01*
X15825571Y-11769571D01*
X15825571Y-11817190D01*
X15835095Y-11836238D01*
X15844619Y-11845762D01*
X15863667Y-11855286D01*
X15901762Y-11855286D01*
X15920809Y-11845762D01*
X15930333Y-11836238D01*
X15939857Y-11817190D01*
X16177952Y-11931476D02*
X16177952Y-11731476D01*
X16263667Y-11931476D02*
X16263667Y-11826714D01*
X16254143Y-11807667D01*
X16235095Y-11798143D01*
X16206524Y-11798143D01*
X16187476Y-11807667D01*
X16177952Y-11817190D01*
X16387476Y-11931476D02*
X16368428Y-11921952D01*
X16358905Y-11912428D01*
X16349381Y-11893381D01*
X16349381Y-11836238D01*
X16358905Y-11817190D01*
X16368428Y-11807667D01*
X16387476Y-11798143D01*
X16416048Y-11798143D01*
X16435095Y-11807667D01*
X16444619Y-11817190D01*
X16454143Y-11836238D01*
X16454143Y-11893381D01*
X16444619Y-11912428D01*
X16435095Y-11921952D01*
X16416048Y-11931476D01*
X16387476Y-11931476D01*
X16568428Y-11931476D02*
X16549381Y-11921952D01*
X16539857Y-11902905D01*
X16539857Y-11731476D01*
X16720809Y-11921952D02*
X16701762Y-11931476D01*
X16663667Y-11931476D01*
X16644619Y-11921952D01*
X16635095Y-11902905D01*
X16635095Y-11826714D01*
X16644619Y-11807667D01*
X16663667Y-11798143D01*
X16701762Y-11798143D01*
X16720809Y-11807667D01*
X16730333Y-11826714D01*
X16730333Y-11845762D01*
X16635095Y-11864809D01*
X16806524Y-11921952D02*
X16825571Y-11931476D01*
X16863667Y-11931476D01*
X16882714Y-11921952D01*
X16892238Y-11902905D01*
X16892238Y-11893381D01*
X16882714Y-11874333D01*
X16863667Y-11864809D01*
X16835095Y-11864809D01*
X16816048Y-11855286D01*
X16806524Y-11836238D01*
X16806524Y-11826714D01*
X16816048Y-11807667D01*
X16835095Y-11798143D01*
X16863667Y-11798143D01*
X16882714Y-11807667D01*
X16958905Y-12007667D02*
X16968429Y-11998143D01*
X16987476Y-11969571D01*
X16997000Y-11950524D01*
X17006524Y-11921952D01*
X17016048Y-11874333D01*
X17016048Y-11836238D01*
X17006524Y-11788619D01*
X16997000Y-11760048D01*
X16987476Y-11741000D01*
X16968429Y-11712428D01*
X16958905Y-11702905D01*
D14*
X12170891Y-12143891D02*
X12170891Y-12066109D01*
X12093109Y-12066109D01*
X12093109Y-12143891D01*
X12170891Y-12143891D01*
D11*
X12549381Y-12195476D02*
X12435095Y-12195476D01*
X12492238Y-12195476D02*
X12492238Y-11995476D01*
X12473190Y-12024048D01*
X12454143Y-12043095D01*
X12435095Y-12052619D01*
X12635095Y-12176428D02*
X12644619Y-12185952D01*
X12635095Y-12195476D01*
X12625571Y-12185952D01*
X12635095Y-12176428D01*
X12635095Y-12195476D01*
X12835095Y-12195476D02*
X12720809Y-12195476D01*
X12777952Y-12195476D02*
X12777952Y-11995476D01*
X12758905Y-12024048D01*
X12739857Y-12043095D01*
X12720809Y-12052619D01*
X12958905Y-11995476D02*
X12977952Y-11995476D01*
X12997000Y-12005000D01*
X13006524Y-12014524D01*
X13016048Y-12033571D01*
X13025571Y-12071667D01*
X13025571Y-12119286D01*
X13016048Y-12157381D01*
X13006524Y-12176428D01*
X12997000Y-12185952D01*
X12977952Y-12195476D01*
X12958905Y-12195476D01*
X12939857Y-12185952D01*
X12930333Y-12176428D01*
X12920809Y-12157381D01*
X12911286Y-12119286D01*
X12911286Y-12071667D01*
X12920809Y-12033571D01*
X12930333Y-12014524D01*
X12939857Y-12005000D01*
X12958905Y-11995476D01*
X13149381Y-11995476D02*
X13168428Y-11995476D01*
X13187476Y-12005000D01*
X13197000Y-12014524D01*
X13206524Y-12033571D01*
X13216048Y-12071667D01*
X13216048Y-12119286D01*
X13206524Y-12157381D01*
X13197000Y-12176428D01*
X13187476Y-12185952D01*
X13168428Y-12195476D01*
X13149381Y-12195476D01*
X13130333Y-12185952D01*
X13120809Y-12176428D01*
X13111286Y-12157381D01*
X13101762Y-12119286D01*
X13101762Y-12071667D01*
X13111286Y-12033571D01*
X13120809Y-12014524D01*
X13130333Y-12005000D01*
X13149381Y-11995476D01*
X13301762Y-12195476D02*
X13301762Y-12062143D01*
X13301762Y-12081190D02*
X13311286Y-12071667D01*
X13330333Y-12062143D01*
X13358905Y-12062143D01*
X13377952Y-12071667D01*
X13387476Y-12090714D01*
X13387476Y-12195476D01*
X13387476Y-12090714D02*
X13397000Y-12071667D01*
X13416048Y-12062143D01*
X13444619Y-12062143D01*
X13463667Y-12071667D01*
X13473190Y-12090714D01*
X13473190Y-12195476D01*
X13568428Y-12195476D02*
X13568428Y-12062143D01*
X13568428Y-12081190D02*
X13577952Y-12071667D01*
X13597000Y-12062143D01*
X13625571Y-12062143D01*
X13644619Y-12071667D01*
X13654143Y-12090714D01*
X13654143Y-12195476D01*
X13654143Y-12090714D02*
X13663667Y-12071667D01*
X13682714Y-12062143D01*
X13711286Y-12062143D01*
X13730333Y-12071667D01*
X13739857Y-12090714D01*
X13739857Y-12195476D01*
X14130333Y-11985952D02*
X13958905Y-12243095D01*
X14387476Y-11995476D02*
X14406524Y-11995476D01*
X14425571Y-12005000D01*
X14435095Y-12014524D01*
X14444619Y-12033571D01*
X14454143Y-12071667D01*
X14454143Y-12119286D01*
X14444619Y-12157381D01*
X14435095Y-12176428D01*
X14425571Y-12185952D01*
X14406524Y-12195476D01*
X14387476Y-12195476D01*
X14368428Y-12185952D01*
X14358905Y-12176428D01*
X14349381Y-12157381D01*
X14339857Y-12119286D01*
X14339857Y-12071667D01*
X14349381Y-12033571D01*
X14358905Y-12014524D01*
X14368428Y-12005000D01*
X14387476Y-11995476D01*
X14539857Y-12176428D02*
X14549381Y-12185952D01*
X14539857Y-12195476D01*
X14530333Y-12185952D01*
X14539857Y-12176428D01*
X14539857Y-12195476D01*
X14673190Y-11995476D02*
X14692238Y-11995476D01*
X14711286Y-12005000D01*
X14720809Y-12014524D01*
X14730333Y-12033571D01*
X14739857Y-12071667D01*
X14739857Y-12119286D01*
X14730333Y-12157381D01*
X14720809Y-12176428D01*
X14711286Y-12185952D01*
X14692238Y-12195476D01*
X14673190Y-12195476D01*
X14654143Y-12185952D01*
X14644619Y-12176428D01*
X14635095Y-12157381D01*
X14625571Y-12119286D01*
X14625571Y-12071667D01*
X14635095Y-12033571D01*
X14644619Y-12014524D01*
X14654143Y-12005000D01*
X14673190Y-11995476D01*
X14911286Y-12062143D02*
X14911286Y-12195476D01*
X14863667Y-11985952D02*
X14816048Y-12128809D01*
X14939857Y-12128809D01*
X14997000Y-11995476D02*
X15120809Y-11995476D01*
X15054143Y-12071667D01*
X15082714Y-12071667D01*
X15101762Y-12081190D01*
X15111286Y-12090714D01*
X15120809Y-12109762D01*
X15120809Y-12157381D01*
X15111286Y-12176428D01*
X15101762Y-12185952D01*
X15082714Y-12195476D01*
X15025571Y-12195476D01*
X15006524Y-12185952D01*
X14997000Y-12176428D01*
X15187476Y-11995476D02*
X15311286Y-11995476D01*
X15244619Y-12071667D01*
X15273190Y-12071667D01*
X15292238Y-12081190D01*
X15301762Y-12090714D01*
X15311286Y-12109762D01*
X15311286Y-12157381D01*
X15301762Y-12176428D01*
X15292238Y-12185952D01*
X15273190Y-12195476D01*
X15216048Y-12195476D01*
X15197000Y-12185952D01*
X15187476Y-12176428D01*
X15387476Y-11995476D02*
X15387476Y-12033571D01*
X15463667Y-11995476D02*
X15463667Y-12033571D01*
X15758905Y-12271667D02*
X15749381Y-12262143D01*
X15730333Y-12233571D01*
X15720809Y-12214524D01*
X15711286Y-12185952D01*
X15701762Y-12138333D01*
X15701762Y-12100238D01*
X15711286Y-12052619D01*
X15720809Y-12024048D01*
X15730333Y-12005000D01*
X15749381Y-11976428D01*
X15758905Y-11966905D01*
X15920809Y-12062143D02*
X15920809Y-12195476D01*
X15873190Y-11985952D02*
X15825571Y-12128809D01*
X15949381Y-12128809D01*
X16177952Y-12195476D02*
X16177952Y-11995476D01*
X16263667Y-12195476D02*
X16263667Y-12090714D01*
X16254143Y-12071667D01*
X16235095Y-12062143D01*
X16206524Y-12062143D01*
X16187476Y-12071667D01*
X16177952Y-12081190D01*
X16387476Y-12195476D02*
X16368428Y-12185952D01*
X16358905Y-12176428D01*
X16349381Y-12157381D01*
X16349381Y-12100238D01*
X16358905Y-12081190D01*
X16368428Y-12071667D01*
X16387476Y-12062143D01*
X16416048Y-12062143D01*
X16435095Y-12071667D01*
X16444619Y-12081190D01*
X16454143Y-12100238D01*
X16454143Y-12157381D01*
X16444619Y-12176428D01*
X16435095Y-12185952D01*
X16416048Y-12195476D01*
X16387476Y-12195476D01*
X16568428Y-12195476D02*
X16549381Y-12185952D01*
X16539857Y-12166905D01*
X16539857Y-11995476D01*
X16720809Y-12185952D02*
X16701762Y-12195476D01*
X16663667Y-12195476D01*
X16644619Y-12185952D01*
X16635095Y-12166905D01*
X16635095Y-12090714D01*
X16644619Y-12071667D01*
X16663667Y-12062143D01*
X16701762Y-12062143D01*
X16720809Y-12071667D01*
X16730333Y-12090714D01*
X16730333Y-12109762D01*
X16635095Y-12128809D01*
X16806524Y-12185952D02*
X16825571Y-12195476D01*
X16863667Y-12195476D01*
X16882714Y-12185952D01*
X16892238Y-12166905D01*
X16892238Y-12157381D01*
X16882714Y-12138333D01*
X16863667Y-12128809D01*
X16835095Y-12128809D01*
X16816048Y-12119286D01*
X16806524Y-12100238D01*
X16806524Y-12090714D01*
X16816048Y-12071667D01*
X16835095Y-12062143D01*
X16863667Y-12062143D01*
X16882714Y-12071667D01*
X16958905Y-12271667D02*
X16968429Y-12262143D01*
X16987476Y-12233571D01*
X16997000Y-12214524D01*
X17006524Y-12185952D01*
X17016048Y-12138333D01*
X17016048Y-12100238D01*
X17006524Y-12052619D01*
X16997000Y-12024048D01*
X16987476Y-12005000D01*
X16968429Y-11976428D01*
X16958905Y-11966905D01*
X12087000Y-12469000D02*
X12187000Y-12369000D01*
X12087000Y-12269000D01*
X11987000Y-12369000D01*
X12087000Y-12469000D01*
X12425571Y-12259476D02*
X12549381Y-12259476D01*
X12482714Y-12335667D01*
X12511286Y-12335667D01*
X12530333Y-12345190D01*
X12539857Y-12354714D01*
X12549381Y-12373762D01*
X12549381Y-12421381D01*
X12539857Y-12440428D01*
X12530333Y-12449952D01*
X12511286Y-12459476D01*
X12454143Y-12459476D01*
X12435095Y-12449952D01*
X12425571Y-12440428D01*
X12635095Y-12440428D02*
X12644619Y-12449952D01*
X12635095Y-12459476D01*
X12625571Y-12449952D01*
X12635095Y-12440428D01*
X12635095Y-12459476D01*
X12720809Y-12278524D02*
X12730333Y-12269000D01*
X12749381Y-12259476D01*
X12797000Y-12259476D01*
X12816048Y-12269000D01*
X12825571Y-12278524D01*
X12835095Y-12297571D01*
X12835095Y-12316619D01*
X12825571Y-12345190D01*
X12711286Y-12459476D01*
X12835095Y-12459476D01*
X12958905Y-12259476D02*
X12977952Y-12259476D01*
X12997000Y-12269000D01*
X13006524Y-12278524D01*
X13016048Y-12297571D01*
X13025571Y-12335667D01*
X13025571Y-12383286D01*
X13016048Y-12421381D01*
X13006524Y-12440428D01*
X12997000Y-12449952D01*
X12977952Y-12459476D01*
X12958905Y-12459476D01*
X12939857Y-12449952D01*
X12930333Y-12440428D01*
X12920809Y-12421381D01*
X12911286Y-12383286D01*
X12911286Y-12335667D01*
X12920809Y-12297571D01*
X12930333Y-12278524D01*
X12939857Y-12269000D01*
X12958905Y-12259476D01*
X13149381Y-12259476D02*
X13168428Y-12259476D01*
X13187476Y-12269000D01*
X13197000Y-12278524D01*
X13206524Y-12297571D01*
X13216048Y-12335667D01*
X13216048Y-12383286D01*
X13206524Y-12421381D01*
X13197000Y-12440428D01*
X13187476Y-12449952D01*
X13168428Y-12459476D01*
X13149381Y-12459476D01*
X13130333Y-12449952D01*
X13120809Y-12440428D01*
X13111286Y-12421381D01*
X13101762Y-12383286D01*
X13101762Y-12335667D01*
X13111286Y-12297571D01*
X13120809Y-12278524D01*
X13130333Y-12269000D01*
X13149381Y-12259476D01*
X13301762Y-12459476D02*
X13301762Y-12326143D01*
X13301762Y-12345190D02*
X13311286Y-12335667D01*
X13330333Y-12326143D01*
X13358905Y-12326143D01*
X13377952Y-12335667D01*
X13387476Y-12354714D01*
X13387476Y-12459476D01*
X13387476Y-12354714D02*
X13397000Y-12335667D01*
X13416048Y-12326143D01*
X13444619Y-12326143D01*
X13463667Y-12335667D01*
X13473190Y-12354714D01*
X13473190Y-12459476D01*
X13568428Y-12459476D02*
X13568428Y-12326143D01*
X13568428Y-12345190D02*
X13577952Y-12335667D01*
X13597000Y-12326143D01*
X13625571Y-12326143D01*
X13644619Y-12335667D01*
X13654143Y-12354714D01*
X13654143Y-12459476D01*
X13654143Y-12354714D02*
X13663667Y-12335667D01*
X13682714Y-12326143D01*
X13711286Y-12326143D01*
X13730333Y-12335667D01*
X13739857Y-12354714D01*
X13739857Y-12459476D01*
X14130333Y-12249952D02*
X13958905Y-12507095D01*
X14387476Y-12259476D02*
X14406524Y-12259476D01*
X14425571Y-12269000D01*
X14435095Y-12278524D01*
X14444619Y-12297571D01*
X14454143Y-12335667D01*
X14454143Y-12383286D01*
X14444619Y-12421381D01*
X14435095Y-12440428D01*
X14425571Y-12449952D01*
X14406524Y-12459476D01*
X14387476Y-12459476D01*
X14368428Y-12449952D01*
X14358905Y-12440428D01*
X14349381Y-12421381D01*
X14339857Y-12383286D01*
X14339857Y-12335667D01*
X14349381Y-12297571D01*
X14358905Y-12278524D01*
X14368428Y-12269000D01*
X14387476Y-12259476D01*
X14539857Y-12440428D02*
X14549381Y-12449952D01*
X14539857Y-12459476D01*
X14530333Y-12449952D01*
X14539857Y-12440428D01*
X14539857Y-12459476D01*
X14739857Y-12459476D02*
X14625571Y-12459476D01*
X14682714Y-12459476D02*
X14682714Y-12259476D01*
X14663667Y-12288048D01*
X14644619Y-12307095D01*
X14625571Y-12316619D01*
X14816048Y-12278524D02*
X14825571Y-12269000D01*
X14844619Y-12259476D01*
X14892238Y-12259476D01*
X14911286Y-12269000D01*
X14920809Y-12278524D01*
X14930333Y-12297571D01*
X14930333Y-12316619D01*
X14920809Y-12345190D01*
X14806524Y-12459476D01*
X14930333Y-12459476D01*
X15101762Y-12259476D02*
X15063667Y-12259476D01*
X15044619Y-12269000D01*
X15035095Y-12278524D01*
X15016048Y-12307095D01*
X15006524Y-12345190D01*
X15006524Y-12421381D01*
X15016048Y-12440428D01*
X15025571Y-12449952D01*
X15044619Y-12459476D01*
X15082714Y-12459476D01*
X15101762Y-12449952D01*
X15111286Y-12440428D01*
X15120809Y-12421381D01*
X15120809Y-12373762D01*
X15111286Y-12354714D01*
X15101762Y-12345190D01*
X15082714Y-12335667D01*
X15044619Y-12335667D01*
X15025571Y-12345190D01*
X15016048Y-12354714D01*
X15006524Y-12373762D01*
X15244619Y-12259476D02*
X15263667Y-12259476D01*
X15282714Y-12269000D01*
X15292238Y-12278524D01*
X15301762Y-12297571D01*
X15311286Y-12335667D01*
X15311286Y-12383286D01*
X15301762Y-12421381D01*
X15292238Y-12440428D01*
X15282714Y-12449952D01*
X15263667Y-12459476D01*
X15244619Y-12459476D01*
X15225571Y-12449952D01*
X15216048Y-12440428D01*
X15206524Y-12421381D01*
X15197000Y-12383286D01*
X15197000Y-12335667D01*
X15206524Y-12297571D01*
X15216048Y-12278524D01*
X15225571Y-12269000D01*
X15244619Y-12259476D01*
X15387476Y-12259476D02*
X15387476Y-12297571D01*
X15463667Y-12259476D02*
X15463667Y-12297571D01*
X15758905Y-12535667D02*
X15749381Y-12526143D01*
X15730333Y-12497571D01*
X15720809Y-12478524D01*
X15711286Y-12449952D01*
X15701762Y-12402333D01*
X15701762Y-12364238D01*
X15711286Y-12316619D01*
X15720809Y-12288048D01*
X15730333Y-12269000D01*
X15749381Y-12240428D01*
X15758905Y-12230905D01*
X15920809Y-12326143D02*
X15920809Y-12459476D01*
X15873190Y-12249952D02*
X15825571Y-12392809D01*
X15949381Y-12392809D01*
X16177952Y-12459476D02*
X16177952Y-12259476D01*
X16263667Y-12459476D02*
X16263667Y-12354714D01*
X16254143Y-12335667D01*
X16235095Y-12326143D01*
X16206524Y-12326143D01*
X16187476Y-12335667D01*
X16177952Y-12345190D01*
X16387476Y-12459476D02*
X16368428Y-12449952D01*
X16358905Y-12440428D01*
X16349381Y-12421381D01*
X16349381Y-12364238D01*
X16358905Y-12345190D01*
X16368428Y-12335667D01*
X16387476Y-12326143D01*
X16416048Y-12326143D01*
X16435095Y-12335667D01*
X16444619Y-12345190D01*
X16454143Y-12364238D01*
X16454143Y-12421381D01*
X16444619Y-12440428D01*
X16435095Y-12449952D01*
X16416048Y-12459476D01*
X16387476Y-12459476D01*
X16568428Y-12459476D02*
X16549381Y-12449952D01*
X16539857Y-12430905D01*
X16539857Y-12259476D01*
X16720809Y-12449952D02*
X16701762Y-12459476D01*
X16663667Y-12459476D01*
X16644619Y-12449952D01*
X16635095Y-12430905D01*
X16635095Y-12354714D01*
X16644619Y-12335667D01*
X16663667Y-12326143D01*
X16701762Y-12326143D01*
X16720809Y-12335667D01*
X16730333Y-12354714D01*
X16730333Y-12373762D01*
X16635095Y-12392809D01*
X16806524Y-12449952D02*
X16825571Y-12459476D01*
X16863667Y-12459476D01*
X16882714Y-12449952D01*
X16892238Y-12430905D01*
X16892238Y-12421381D01*
X16882714Y-12402333D01*
X16863667Y-12392809D01*
X16835095Y-12392809D01*
X16816048Y-12383286D01*
X16806524Y-12364238D01*
X16806524Y-12354714D01*
X16816048Y-12335667D01*
X16835095Y-12326143D01*
X16863667Y-12326143D01*
X16882714Y-12335667D01*
X16958905Y-12535667D02*
X16968429Y-12526143D01*
X16987476Y-12497571D01*
X16997000Y-12478524D01*
X17006524Y-12449952D01*
X17016048Y-12402333D01*
X17016048Y-12364238D01*
X17006524Y-12316619D01*
X16997000Y-12288048D01*
X16987476Y-12269000D01*
X16968429Y-12240428D01*
X16958905Y-12230905D01*
M02*
