%TF.GenerationSoftware,KiCad,Pcbnew,(6.0.8)*%
%TF.CreationDate,2022-12-23T18:43:03+01:00*%
%TF.ProjectId,Neopixel_LED_Star,4e656f70-6978-4656-9c5f-4c45445f5374,rev?*%
%TF.SameCoordinates,Original*%
%TF.FileFunction,Copper,L2,Bot*%
%TF.FilePolarity,Positive*%
%FSLAX46Y46*%
G04 Gerber Fmt 4.6, Leading zero omitted, Abs format (unit mm)*
G04 Created by KiCad (PCBNEW (6.0.8)) date 2022-12-23 18:43:03*
%MOMM*%
%LPD*%
G01*
G04 APERTURE LIST*
G04 Aperture macros list*
%AMRoundRect*
0 Rectangle with rounded corners*
0 $1 Rounding radius*
0 $2 $3 $4 $5 $6 $7 $8 $9 X,Y pos of 4 corners*
0 Add a 4 corners polygon primitive as box body*
4,1,4,$2,$3,$4,$5,$6,$7,$8,$9,$2,$3,0*
0 Add four circle primitives for the rounded corners*
1,1,$1+$1,$2,$3*
1,1,$1+$1,$4,$5*
1,1,$1+$1,$6,$7*
1,1,$1+$1,$8,$9*
0 Add four rect primitives between the rounded corners*
20,1,$1+$1,$2,$3,$4,$5,0*
20,1,$1+$1,$4,$5,$6,$7,0*
20,1,$1+$1,$6,$7,$8,$9,0*
20,1,$1+$1,$8,$9,$2,$3,0*%
G04 Aperture macros list end*
%TA.AperFunction,ComponentPad*%
%ADD10C,6.400000*%
%TD*%
%TA.AperFunction,ComponentPad*%
%ADD11C,2.000000*%
%TD*%
%TA.AperFunction,ComponentPad*%
%ADD12R,1.700000X1.700000*%
%TD*%
%TA.AperFunction,ComponentPad*%
%ADD13O,1.700000X1.700000*%
%TD*%
%TA.AperFunction,ComponentPad*%
%ADD14R,1.600000X1.600000*%
%TD*%
%TA.AperFunction,ComponentPad*%
%ADD15RoundRect,0.400000X-0.400000X-0.400000X0.400000X-0.400000X0.400000X0.400000X-0.400000X0.400000X0*%
%TD*%
%TA.AperFunction,ComponentPad*%
%ADD16R,2.000000X2.000000*%
%TD*%
%TA.AperFunction,ViaPad*%
%ADD17C,0.800000*%
%TD*%
G04 APERTURE END LIST*
D10*
%TO.P,REF\u002A\u002A,1*%
%TO.N,N/C*%
X127000000Y-101600000D03*
%TD*%
D11*
%TO.P,SW1,1,1*%
%TO.N,Net-(C6-Pad1)*%
X141680000Y-99350000D03*
X135180000Y-99350000D03*
%TO.P,SW1,2,2*%
%TO.N,GNDD*%
X141680000Y-103850000D03*
X135180000Y-103850000D03*
%TD*%
D10*
%TO.P,REF\u002A\u002A,1*%
%TO.N,N/C*%
X165100000Y-101600000D03*
%TD*%
%TO.P,REF\u002A\u002A,1*%
%TO.N,N/C*%
X165100000Y-73660000D03*
%TD*%
D12*
%TO.P,J2,1,Pin_1*%
%TO.N,+5V*%
X163265000Y-85170000D03*
D13*
%TO.P,J2,2,Pin_2*%
%TO.N,Net-(J2-Pad2)*%
X163265000Y-87710000D03*
%TO.P,J2,3,Pin_3*%
%TO.N,GNDD*%
X163265000Y-90250000D03*
%TD*%
D14*
%TO.P,J1,1,Pin_1*%
%TO.N,+5V*%
X132797000Y-92710000D03*
D15*
%TO.P,J1,2,Pin_2*%
%TO.N,GNDD*%
X127797000Y-92710000D03*
%TO.P,J1,3*%
%TO.N,N/C*%
X130197000Y-95410000D03*
%TD*%
D12*
%TO.P,J3,1,Pin_1*%
%TO.N,SWCLK*%
X147320000Y-76200000D03*
D13*
%TO.P,J3,2,Pin_2*%
%TO.N,SWDIO*%
X149860000Y-76200000D03*
%TO.P,J3,3,Pin_3*%
%TO.N,GNDD*%
X152400000Y-76200000D03*
%TO.P,J3,4,Pin_4*%
%TO.N,+3V3*%
X154940000Y-76200000D03*
%TD*%
D10*
%TO.P,REF\u002A\u002A,1*%
%TO.N,N/C*%
X127000000Y-73660000D03*
%TD*%
D16*
%TO.P,C1,1*%
%TO.N,+5V*%
X134620000Y-82550000D03*
D11*
%TO.P,C1,2*%
%TO.N,GNDD*%
X129620000Y-82550000D03*
%TD*%
D17*
%TO.N,GNDD*%
X168910000Y-105410000D03*
X146050000Y-105410000D03*
X123190000Y-105410000D03*
X145415000Y-83185000D03*
X149860000Y-95250000D03*
X139700000Y-76200000D03*
X160655000Y-84455000D03*
X123190000Y-87630000D03*
X151130000Y-83820000D03*
X168910000Y-69850000D03*
X144780000Y-95250000D03*
X156718000Y-98298000D03*
X139700000Y-95250000D03*
X168910000Y-87630000D03*
X146050000Y-69850000D03*
X155956000Y-87376000D03*
X123190000Y-69850000D03*
X155956000Y-80264000D03*
X138430000Y-83820000D03*
%TD*%
%TA.AperFunction,Conductor*%
%TO.N,GNDD*%
G36*
X169613621Y-69108502D02*
G01*
X169660114Y-69162158D01*
X169671500Y-69214500D01*
X169671500Y-106045500D01*
X169651498Y-106113621D01*
X169597842Y-106160114D01*
X169545500Y-106171500D01*
X122554500Y-106171500D01*
X122486379Y-106151498D01*
X122439886Y-106097842D01*
X122428500Y-106045500D01*
X122428500Y-101600000D01*
X123286411Y-101600000D01*
X123306754Y-101988176D01*
X123367562Y-102372099D01*
X123468167Y-102747562D01*
X123607468Y-103110453D01*
X123783938Y-103456794D01*
X123785734Y-103459560D01*
X123785736Y-103459563D01*
X123888821Y-103618301D01*
X123995643Y-103782793D01*
X124240266Y-104084876D01*
X124515124Y-104359734D01*
X124817207Y-104604357D01*
X125143205Y-104816062D01*
X125146139Y-104817557D01*
X125146146Y-104817561D01*
X125486607Y-104991034D01*
X125489547Y-104992532D01*
X125852438Y-105131833D01*
X126227901Y-105232438D01*
X126431793Y-105264732D01*
X126608576Y-105292732D01*
X126608584Y-105292733D01*
X126611824Y-105293246D01*
X127000000Y-105313589D01*
X127388176Y-105293246D01*
X127391416Y-105292733D01*
X127391424Y-105292732D01*
X127568207Y-105264732D01*
X127772099Y-105232438D01*
X128147562Y-105131833D01*
X128275636Y-105082670D01*
X134312160Y-105082670D01*
X134317887Y-105090320D01*
X134489042Y-105195205D01*
X134497837Y-105199687D01*
X134707988Y-105286734D01*
X134717373Y-105289783D01*
X134938554Y-105342885D01*
X134948301Y-105344428D01*
X135175070Y-105362275D01*
X135184930Y-105362275D01*
X135411699Y-105344428D01*
X135421446Y-105342885D01*
X135642627Y-105289783D01*
X135652012Y-105286734D01*
X135862163Y-105199687D01*
X135870958Y-105195205D01*
X136038445Y-105092568D01*
X136047400Y-105082670D01*
X140812160Y-105082670D01*
X140817887Y-105090320D01*
X140989042Y-105195205D01*
X140997837Y-105199687D01*
X141207988Y-105286734D01*
X141217373Y-105289783D01*
X141438554Y-105342885D01*
X141448301Y-105344428D01*
X141675070Y-105362275D01*
X141684930Y-105362275D01*
X141911699Y-105344428D01*
X141921446Y-105342885D01*
X142142627Y-105289783D01*
X142152012Y-105286734D01*
X142362163Y-105199687D01*
X142370958Y-105195205D01*
X142538445Y-105092568D01*
X142547907Y-105082110D01*
X142544124Y-105073334D01*
X141692812Y-104222022D01*
X141678868Y-104214408D01*
X141677035Y-104214539D01*
X141670420Y-104218790D01*
X140818920Y-105070290D01*
X140812160Y-105082670D01*
X136047400Y-105082670D01*
X136047907Y-105082110D01*
X136044124Y-105073334D01*
X135192812Y-104222022D01*
X135178868Y-104214408D01*
X135177035Y-104214539D01*
X135170420Y-104218790D01*
X134318920Y-105070290D01*
X134312160Y-105082670D01*
X128275636Y-105082670D01*
X128510453Y-104992532D01*
X128513393Y-104991034D01*
X128853854Y-104817561D01*
X128853861Y-104817557D01*
X128856795Y-104816062D01*
X129182793Y-104604357D01*
X129484876Y-104359734D01*
X129759734Y-104084876D01*
X129945941Y-103854930D01*
X133667725Y-103854930D01*
X133685572Y-104081699D01*
X133687115Y-104091446D01*
X133740217Y-104312627D01*
X133743266Y-104322012D01*
X133830313Y-104532163D01*
X133834795Y-104540958D01*
X133937432Y-104708445D01*
X133947890Y-104717907D01*
X133956666Y-104714124D01*
X134807978Y-103862812D01*
X134814356Y-103851132D01*
X135544408Y-103851132D01*
X135544539Y-103852965D01*
X135548790Y-103859580D01*
X136400290Y-104711080D01*
X136412670Y-104717840D01*
X136420320Y-104712113D01*
X136525205Y-104540958D01*
X136529687Y-104532163D01*
X136616734Y-104322012D01*
X136619783Y-104312627D01*
X136672885Y-104091446D01*
X136674428Y-104081699D01*
X136692275Y-103854930D01*
X140167725Y-103854930D01*
X140185572Y-104081699D01*
X140187115Y-104091446D01*
X140240217Y-104312627D01*
X140243266Y-104322012D01*
X140330313Y-104532163D01*
X140334795Y-104540958D01*
X140437432Y-104708445D01*
X140447890Y-104717907D01*
X140456666Y-104714124D01*
X141307978Y-103862812D01*
X141314356Y-103851132D01*
X142044408Y-103851132D01*
X142044539Y-103852965D01*
X142048790Y-103859580D01*
X142900290Y-104711080D01*
X142912670Y-104717840D01*
X142920320Y-104712113D01*
X143025205Y-104540958D01*
X143029687Y-104532163D01*
X143116734Y-104322012D01*
X143119783Y-104312627D01*
X143172885Y-104091446D01*
X143174428Y-104081699D01*
X143192275Y-103854930D01*
X143192275Y-103845070D01*
X143174428Y-103618301D01*
X143172885Y-103608554D01*
X143119783Y-103387373D01*
X143116734Y-103377988D01*
X143029687Y-103167837D01*
X143025205Y-103159042D01*
X142922568Y-102991555D01*
X142912110Y-102982093D01*
X142903334Y-102985876D01*
X142052022Y-103837188D01*
X142044408Y-103851132D01*
X141314356Y-103851132D01*
X141315592Y-103848868D01*
X141315461Y-103847035D01*
X141311210Y-103840420D01*
X140459710Y-102988920D01*
X140447330Y-102982160D01*
X140439680Y-102987887D01*
X140334795Y-103159042D01*
X140330313Y-103167837D01*
X140243266Y-103377988D01*
X140240217Y-103387373D01*
X140187115Y-103608554D01*
X140185572Y-103618301D01*
X140167725Y-103845070D01*
X140167725Y-103854930D01*
X136692275Y-103854930D01*
X136692275Y-103845070D01*
X136674428Y-103618301D01*
X136672885Y-103608554D01*
X136619783Y-103387373D01*
X136616734Y-103377988D01*
X136529687Y-103167837D01*
X136525205Y-103159042D01*
X136422568Y-102991555D01*
X136412110Y-102982093D01*
X136403334Y-102985876D01*
X135552022Y-103837188D01*
X135544408Y-103851132D01*
X134814356Y-103851132D01*
X134815592Y-103848868D01*
X134815461Y-103847035D01*
X134811210Y-103840420D01*
X133959710Y-102988920D01*
X133947330Y-102982160D01*
X133939680Y-102987887D01*
X133834795Y-103159042D01*
X133830313Y-103167837D01*
X133743266Y-103377988D01*
X133740217Y-103387373D01*
X133687115Y-103608554D01*
X133685572Y-103618301D01*
X133667725Y-103845070D01*
X133667725Y-103854930D01*
X129945941Y-103854930D01*
X130004357Y-103782793D01*
X130111179Y-103618301D01*
X130214264Y-103459563D01*
X130214266Y-103459560D01*
X130216062Y-103456794D01*
X130392532Y-103110453D01*
X130531833Y-102747562D01*
X130566579Y-102617890D01*
X134312093Y-102617890D01*
X134315876Y-102626666D01*
X135167188Y-103477978D01*
X135181132Y-103485592D01*
X135182965Y-103485461D01*
X135189580Y-103481210D01*
X136041080Y-102629710D01*
X136047534Y-102617890D01*
X140812093Y-102617890D01*
X140815876Y-102626666D01*
X141667188Y-103477978D01*
X141681132Y-103485592D01*
X141682965Y-103485461D01*
X141689580Y-103481210D01*
X142541080Y-102629710D01*
X142547840Y-102617330D01*
X142542113Y-102609680D01*
X142370958Y-102504795D01*
X142362163Y-102500313D01*
X142152012Y-102413266D01*
X142142627Y-102410217D01*
X141921446Y-102357115D01*
X141911699Y-102355572D01*
X141684930Y-102337725D01*
X141675070Y-102337725D01*
X141448301Y-102355572D01*
X141438554Y-102357115D01*
X141217373Y-102410217D01*
X141207988Y-102413266D01*
X140997837Y-102500313D01*
X140989042Y-102504795D01*
X140821555Y-102607432D01*
X140812093Y-102617890D01*
X136047534Y-102617890D01*
X136047840Y-102617330D01*
X136042113Y-102609680D01*
X135870958Y-102504795D01*
X135862163Y-102500313D01*
X135652012Y-102413266D01*
X135642627Y-102410217D01*
X135421446Y-102357115D01*
X135411699Y-102355572D01*
X135184930Y-102337725D01*
X135175070Y-102337725D01*
X134948301Y-102355572D01*
X134938554Y-102357115D01*
X134717373Y-102410217D01*
X134707988Y-102413266D01*
X134497837Y-102500313D01*
X134489042Y-102504795D01*
X134321555Y-102607432D01*
X134312093Y-102617890D01*
X130566579Y-102617890D01*
X130632438Y-102372099D01*
X130693246Y-101988176D01*
X130713589Y-101600000D01*
X161386411Y-101600000D01*
X161406754Y-101988176D01*
X161467562Y-102372099D01*
X161568167Y-102747562D01*
X161707468Y-103110453D01*
X161883938Y-103456794D01*
X161885734Y-103459560D01*
X161885736Y-103459563D01*
X161988821Y-103618301D01*
X162095643Y-103782793D01*
X162340266Y-104084876D01*
X162615124Y-104359734D01*
X162917207Y-104604357D01*
X163243205Y-104816062D01*
X163246139Y-104817557D01*
X163246146Y-104817561D01*
X163586607Y-104991034D01*
X163589547Y-104992532D01*
X163952438Y-105131833D01*
X164327901Y-105232438D01*
X164531793Y-105264732D01*
X164708576Y-105292732D01*
X164708584Y-105292733D01*
X164711824Y-105293246D01*
X165100000Y-105313589D01*
X165488176Y-105293246D01*
X165491416Y-105292733D01*
X165491424Y-105292732D01*
X165668207Y-105264732D01*
X165872099Y-105232438D01*
X166247562Y-105131833D01*
X166610453Y-104992532D01*
X166613393Y-104991034D01*
X166953854Y-104817561D01*
X166953861Y-104817557D01*
X166956795Y-104816062D01*
X167282793Y-104604357D01*
X167584876Y-104359734D01*
X167859734Y-104084876D01*
X168104357Y-103782793D01*
X168211179Y-103618301D01*
X168314264Y-103459563D01*
X168314266Y-103459560D01*
X168316062Y-103456794D01*
X168492532Y-103110453D01*
X168631833Y-102747562D01*
X168732438Y-102372099D01*
X168793246Y-101988176D01*
X168813589Y-101600000D01*
X168793246Y-101211824D01*
X168732438Y-100827901D01*
X168631833Y-100452438D01*
X168492532Y-100089547D01*
X168465739Y-100036963D01*
X168317561Y-99746147D01*
X168317557Y-99746140D01*
X168316062Y-99743206D01*
X168211230Y-99581777D01*
X168106152Y-99419971D01*
X168106152Y-99419970D01*
X168104357Y-99417207D01*
X167859734Y-99115124D01*
X167584876Y-98840266D01*
X167282793Y-98595643D01*
X167074820Y-98460584D01*
X166959564Y-98385736D01*
X166959561Y-98385734D01*
X166956795Y-98383938D01*
X166953861Y-98382443D01*
X166953854Y-98382439D01*
X166613393Y-98208966D01*
X166610453Y-98207468D01*
X166247562Y-98068167D01*
X165872099Y-97967562D01*
X165668207Y-97935268D01*
X165491424Y-97907268D01*
X165491416Y-97907267D01*
X165488176Y-97906754D01*
X165100000Y-97886411D01*
X164711824Y-97906754D01*
X164708584Y-97907267D01*
X164708576Y-97907268D01*
X164531793Y-97935268D01*
X164327901Y-97967562D01*
X163952438Y-98068167D01*
X163589547Y-98207468D01*
X163586607Y-98208966D01*
X163246147Y-98382439D01*
X163246140Y-98382443D01*
X163243206Y-98383938D01*
X162917207Y-98595643D01*
X162615124Y-98840266D01*
X162340266Y-99115124D01*
X162095643Y-99417207D01*
X162093848Y-99419970D01*
X162093848Y-99419971D01*
X161988771Y-99581777D01*
X161883938Y-99743206D01*
X161882443Y-99746140D01*
X161882439Y-99746147D01*
X161734261Y-100036963D01*
X161707468Y-100089547D01*
X161568167Y-100452438D01*
X161467562Y-100827901D01*
X161406754Y-101211824D01*
X161386411Y-101600000D01*
X130713589Y-101600000D01*
X130693246Y-101211824D01*
X130632438Y-100827901D01*
X130531833Y-100452438D01*
X130392532Y-100089547D01*
X130365739Y-100036963D01*
X130217561Y-99746147D01*
X130217557Y-99746140D01*
X130216062Y-99743206D01*
X130111230Y-99581777D01*
X130006152Y-99419971D01*
X130006152Y-99419970D01*
X130004357Y-99417207D01*
X129949934Y-99350000D01*
X133666835Y-99350000D01*
X133685465Y-99586711D01*
X133740895Y-99817594D01*
X133831760Y-100036963D01*
X133834346Y-100041183D01*
X133953241Y-100235202D01*
X133953245Y-100235208D01*
X133955824Y-100239416D01*
X134110031Y-100419969D01*
X134290584Y-100574176D01*
X134294792Y-100576755D01*
X134294798Y-100576759D01*
X134488817Y-100695654D01*
X134493037Y-100698240D01*
X134497607Y-100700133D01*
X134497611Y-100700135D01*
X134707833Y-100787211D01*
X134712406Y-100789105D01*
X134792609Y-100808360D01*
X134938476Y-100843380D01*
X134938482Y-100843381D01*
X134943289Y-100844535D01*
X135180000Y-100863165D01*
X135416711Y-100844535D01*
X135421518Y-100843381D01*
X135421524Y-100843380D01*
X135567391Y-100808360D01*
X135647594Y-100789105D01*
X135652167Y-100787211D01*
X135862389Y-100700135D01*
X135862393Y-100700133D01*
X135866963Y-100698240D01*
X135871183Y-100695654D01*
X136065202Y-100576759D01*
X136065208Y-100576755D01*
X136069416Y-100574176D01*
X136249969Y-100419969D01*
X136404176Y-100239416D01*
X136406755Y-100235208D01*
X136406759Y-100235202D01*
X136525654Y-100041183D01*
X136528240Y-100036963D01*
X136619105Y-99817594D01*
X136674535Y-99586711D01*
X136693165Y-99350000D01*
X140166835Y-99350000D01*
X140185465Y-99586711D01*
X140240895Y-99817594D01*
X140331760Y-100036963D01*
X140334346Y-100041183D01*
X140453241Y-100235202D01*
X140453245Y-100235208D01*
X140455824Y-100239416D01*
X140610031Y-100419969D01*
X140790584Y-100574176D01*
X140794792Y-100576755D01*
X140794798Y-100576759D01*
X140988817Y-100695654D01*
X140993037Y-100698240D01*
X140997607Y-100700133D01*
X140997611Y-100700135D01*
X141207833Y-100787211D01*
X141212406Y-100789105D01*
X141292609Y-100808360D01*
X141438476Y-100843380D01*
X141438482Y-100843381D01*
X141443289Y-100844535D01*
X141680000Y-100863165D01*
X141916711Y-100844535D01*
X141921518Y-100843381D01*
X141921524Y-100843380D01*
X142067391Y-100808360D01*
X142147594Y-100789105D01*
X142152167Y-100787211D01*
X142362389Y-100700135D01*
X142362393Y-100700133D01*
X142366963Y-100698240D01*
X142371183Y-100695654D01*
X142565202Y-100576759D01*
X142565208Y-100576755D01*
X142569416Y-100574176D01*
X142749969Y-100419969D01*
X142904176Y-100239416D01*
X142906755Y-100235208D01*
X142906759Y-100235202D01*
X143025654Y-100041183D01*
X143028240Y-100036963D01*
X143119105Y-99817594D01*
X143174535Y-99586711D01*
X143193165Y-99350000D01*
X143174535Y-99113289D01*
X143119105Y-98882406D01*
X143028240Y-98663037D01*
X142985841Y-98593848D01*
X142906759Y-98464798D01*
X142906755Y-98464792D01*
X142904176Y-98460584D01*
X142749969Y-98280031D01*
X142569416Y-98125824D01*
X142565208Y-98123245D01*
X142565202Y-98123241D01*
X142371183Y-98004346D01*
X142366963Y-98001760D01*
X142362393Y-97999867D01*
X142362389Y-97999865D01*
X142152167Y-97912789D01*
X142152165Y-97912788D01*
X142147594Y-97910895D01*
X142067391Y-97891640D01*
X141921524Y-97856620D01*
X141921518Y-97856619D01*
X141916711Y-97855465D01*
X141680000Y-97836835D01*
X141443289Y-97855465D01*
X141438482Y-97856619D01*
X141438476Y-97856620D01*
X141292609Y-97891640D01*
X141212406Y-97910895D01*
X141207835Y-97912788D01*
X141207833Y-97912789D01*
X140997611Y-97999865D01*
X140997607Y-97999867D01*
X140993037Y-98001760D01*
X140988817Y-98004346D01*
X140794798Y-98123241D01*
X140794792Y-98123245D01*
X140790584Y-98125824D01*
X140610031Y-98280031D01*
X140455824Y-98460584D01*
X140453245Y-98464792D01*
X140453241Y-98464798D01*
X140374159Y-98593848D01*
X140331760Y-98663037D01*
X140240895Y-98882406D01*
X140185465Y-99113289D01*
X140166835Y-99350000D01*
X136693165Y-99350000D01*
X136674535Y-99113289D01*
X136619105Y-98882406D01*
X136528240Y-98663037D01*
X136485841Y-98593848D01*
X136406759Y-98464798D01*
X136406755Y-98464792D01*
X136404176Y-98460584D01*
X136249969Y-98280031D01*
X136069416Y-98125824D01*
X136065208Y-98123245D01*
X136065202Y-98123241D01*
X135871183Y-98004346D01*
X135866963Y-98001760D01*
X135862393Y-97999867D01*
X135862389Y-97999865D01*
X135652167Y-97912789D01*
X135652165Y-97912788D01*
X135647594Y-97910895D01*
X135567391Y-97891640D01*
X135421524Y-97856620D01*
X135421518Y-97856619D01*
X135416711Y-97855465D01*
X135180000Y-97836835D01*
X134943289Y-97855465D01*
X134938482Y-97856619D01*
X134938476Y-97856620D01*
X134792609Y-97891640D01*
X134712406Y-97910895D01*
X134707835Y-97912788D01*
X134707833Y-97912789D01*
X134497611Y-97999865D01*
X134497607Y-97999867D01*
X134493037Y-98001760D01*
X134488817Y-98004346D01*
X134294798Y-98123241D01*
X134294792Y-98123245D01*
X134290584Y-98125824D01*
X134110031Y-98280031D01*
X133955824Y-98460584D01*
X133953245Y-98464792D01*
X133953241Y-98464798D01*
X133874159Y-98593848D01*
X133831760Y-98663037D01*
X133740895Y-98882406D01*
X133685465Y-99113289D01*
X133666835Y-99350000D01*
X129949934Y-99350000D01*
X129759734Y-99115124D01*
X129484876Y-98840266D01*
X129182793Y-98595643D01*
X128974820Y-98460584D01*
X128859564Y-98385736D01*
X128859561Y-98385734D01*
X128856795Y-98383938D01*
X128853861Y-98382443D01*
X128853854Y-98382439D01*
X128513393Y-98208966D01*
X128510453Y-98207468D01*
X128147562Y-98068167D01*
X127772099Y-97967562D01*
X127568207Y-97935268D01*
X127391424Y-97907268D01*
X127391416Y-97907267D01*
X127388176Y-97906754D01*
X127000000Y-97886411D01*
X126611824Y-97906754D01*
X126608584Y-97907267D01*
X126608576Y-97907268D01*
X126431793Y-97935268D01*
X126227901Y-97967562D01*
X125852438Y-98068167D01*
X125489547Y-98207468D01*
X125486607Y-98208966D01*
X125146147Y-98382439D01*
X125146140Y-98382443D01*
X125143206Y-98383938D01*
X124817207Y-98595643D01*
X124515124Y-98840266D01*
X124240266Y-99115124D01*
X123995643Y-99417207D01*
X123993848Y-99419970D01*
X123993848Y-99419971D01*
X123888771Y-99581777D01*
X123783938Y-99743206D01*
X123782443Y-99746140D01*
X123782439Y-99746147D01*
X123634261Y-100036963D01*
X123607468Y-100089547D01*
X123468167Y-100452438D01*
X123367562Y-100827901D01*
X123306754Y-101211824D01*
X123286411Y-101600000D01*
X122428500Y-101600000D01*
X122428500Y-94946419D01*
X128888500Y-94946419D01*
X128888501Y-95873580D01*
X128894743Y-95952904D01*
X128944171Y-96137371D01*
X129030871Y-96307530D01*
X129035024Y-96312659D01*
X129035027Y-96312663D01*
X129146900Y-96450814D01*
X129151055Y-96455945D01*
X129156186Y-96460100D01*
X129294337Y-96571973D01*
X129294341Y-96571976D01*
X129299470Y-96576129D01*
X129305347Y-96579124D01*
X129305351Y-96579126D01*
X129463064Y-96659484D01*
X129469629Y-96662829D01*
X129476002Y-96664537D01*
X129476003Y-96664537D01*
X129648519Y-96710763D01*
X129648523Y-96710764D01*
X129654096Y-96712257D01*
X129659852Y-96712710D01*
X129730963Y-96718307D01*
X129730970Y-96718307D01*
X129733419Y-96718500D01*
X130196812Y-96718500D01*
X130660580Y-96718499D01*
X130709947Y-96714614D01*
X130734150Y-96712710D01*
X130734152Y-96712710D01*
X130739904Y-96712257D01*
X130924371Y-96662829D01*
X130930936Y-96659484D01*
X131088649Y-96579126D01*
X131088653Y-96579124D01*
X131094530Y-96576129D01*
X131099659Y-96571976D01*
X131099663Y-96571973D01*
X131237814Y-96460100D01*
X131242945Y-96455945D01*
X131247100Y-96450814D01*
X131358973Y-96312663D01*
X131358976Y-96312659D01*
X131363129Y-96307530D01*
X131449829Y-96137371D01*
X131499257Y-95952904D01*
X131500023Y-95943175D01*
X131505307Y-95876037D01*
X131505307Y-95876030D01*
X131505500Y-95873581D01*
X131505499Y-94946420D01*
X131499257Y-94867096D01*
X131449829Y-94682629D01*
X131363129Y-94512470D01*
X131358976Y-94507341D01*
X131358973Y-94507337D01*
X131247100Y-94369186D01*
X131242945Y-94364055D01*
X131237814Y-94359900D01*
X131099663Y-94248027D01*
X131099659Y-94248024D01*
X131094530Y-94243871D01*
X131088653Y-94240876D01*
X131088649Y-94240874D01*
X130930251Y-94160167D01*
X130924371Y-94157171D01*
X130917997Y-94155463D01*
X130745481Y-94109237D01*
X130745477Y-94109236D01*
X130739904Y-94107743D01*
X130730175Y-94106977D01*
X130663037Y-94101693D01*
X130663030Y-94101693D01*
X130660581Y-94101500D01*
X130197188Y-94101500D01*
X129733420Y-94101501D01*
X129684053Y-94105386D01*
X129659850Y-94107290D01*
X129659848Y-94107290D01*
X129654096Y-94107743D01*
X129469629Y-94157171D01*
X129463749Y-94160167D01*
X129305351Y-94240874D01*
X129305347Y-94240876D01*
X129299470Y-94243871D01*
X129294341Y-94248024D01*
X129294337Y-94248027D01*
X129156186Y-94359900D01*
X129151055Y-94364055D01*
X129146900Y-94369186D01*
X129035027Y-94507337D01*
X129035024Y-94507341D01*
X129030871Y-94512470D01*
X128944171Y-94682629D01*
X128894743Y-94867096D01*
X128894290Y-94872850D01*
X128894290Y-94872852D01*
X128888694Y-94943960D01*
X128888500Y-94946419D01*
X122428500Y-94946419D01*
X122428500Y-93171085D01*
X126489000Y-93171085D01*
X126489193Y-93176010D01*
X126494786Y-93247069D01*
X126496733Y-93258403D01*
X126542931Y-93430817D01*
X126547635Y-93443070D01*
X126628295Y-93601375D01*
X126635448Y-93612390D01*
X126747255Y-93750459D01*
X126756541Y-93759745D01*
X126894610Y-93871552D01*
X126905625Y-93878705D01*
X127063930Y-93959365D01*
X127076183Y-93964069D01*
X127248597Y-94010267D01*
X127259931Y-94012214D01*
X127330990Y-94017807D01*
X127335915Y-94018000D01*
X127524885Y-94018000D01*
X127540124Y-94013525D01*
X127541329Y-94012135D01*
X127543000Y-94004452D01*
X127543000Y-93999885D01*
X128051000Y-93999885D01*
X128055475Y-94015124D01*
X128056865Y-94016329D01*
X128064548Y-94018000D01*
X128258085Y-94018000D01*
X128263010Y-94017807D01*
X128334069Y-94012214D01*
X128345403Y-94010267D01*
X128517817Y-93964069D01*
X128530070Y-93959365D01*
X128688375Y-93878705D01*
X128699390Y-93871552D01*
X128837459Y-93759745D01*
X128846745Y-93750459D01*
X128958552Y-93612390D01*
X128965705Y-93601375D01*
X128987737Y-93558134D01*
X131488500Y-93558134D01*
X131495255Y-93620316D01*
X131546385Y-93756705D01*
X131633739Y-93873261D01*
X131750295Y-93960615D01*
X131886684Y-94011745D01*
X131948866Y-94018500D01*
X133645134Y-94018500D01*
X133707316Y-94011745D01*
X133843705Y-93960615D01*
X133960261Y-93873261D01*
X134047615Y-93756705D01*
X134098745Y-93620316D01*
X134105500Y-93558134D01*
X134105500Y-91861866D01*
X134098745Y-91799684D01*
X134047615Y-91663295D01*
X133960261Y-91546739D01*
X133843705Y-91459385D01*
X133707316Y-91408255D01*
X133645134Y-91401500D01*
X131948866Y-91401500D01*
X131886684Y-91408255D01*
X131750295Y-91459385D01*
X131633739Y-91546739D01*
X131546385Y-91663295D01*
X131495255Y-91799684D01*
X131488500Y-91861866D01*
X131488500Y-93558134D01*
X128987737Y-93558134D01*
X129046365Y-93443070D01*
X129051069Y-93430817D01*
X129097267Y-93258403D01*
X129099214Y-93247069D01*
X129104807Y-93176010D01*
X129105000Y-93171085D01*
X129105000Y-92982115D01*
X129100525Y-92966876D01*
X129099135Y-92965671D01*
X129091452Y-92964000D01*
X128069115Y-92964000D01*
X128053876Y-92968475D01*
X128052671Y-92969865D01*
X128051000Y-92977548D01*
X128051000Y-93999885D01*
X127543000Y-93999885D01*
X127543000Y-92982115D01*
X127538525Y-92966876D01*
X127537135Y-92965671D01*
X127529452Y-92964000D01*
X126507115Y-92964000D01*
X126491876Y-92968475D01*
X126490671Y-92969865D01*
X126489000Y-92977548D01*
X126489000Y-93171085D01*
X122428500Y-93171085D01*
X122428500Y-92437885D01*
X126489000Y-92437885D01*
X126493475Y-92453124D01*
X126494865Y-92454329D01*
X126502548Y-92456000D01*
X127524885Y-92456000D01*
X127540124Y-92451525D01*
X127541329Y-92450135D01*
X127543000Y-92442452D01*
X127543000Y-92437885D01*
X128051000Y-92437885D01*
X128055475Y-92453124D01*
X128056865Y-92454329D01*
X128064548Y-92456000D01*
X129086885Y-92456000D01*
X129102124Y-92451525D01*
X129103329Y-92450135D01*
X129105000Y-92442452D01*
X129105000Y-92248916D01*
X129104807Y-92243990D01*
X129099214Y-92172931D01*
X129097267Y-92161597D01*
X129051069Y-91989183D01*
X129046365Y-91976930D01*
X128965705Y-91818625D01*
X128958552Y-91807610D01*
X128846745Y-91669541D01*
X128837459Y-91660255D01*
X128699390Y-91548448D01*
X128688375Y-91541295D01*
X128530070Y-91460635D01*
X128517817Y-91455931D01*
X128345403Y-91409733D01*
X128334069Y-91407786D01*
X128263010Y-91402193D01*
X128258084Y-91402000D01*
X128069115Y-91402000D01*
X128053876Y-91406475D01*
X128052671Y-91407865D01*
X128051000Y-91415548D01*
X128051000Y-92437885D01*
X127543000Y-92437885D01*
X127543000Y-91420115D01*
X127538525Y-91404876D01*
X127537135Y-91403671D01*
X127529452Y-91402000D01*
X127335916Y-91402000D01*
X127330990Y-91402193D01*
X127259931Y-91407786D01*
X127248597Y-91409733D01*
X127076183Y-91455931D01*
X127063930Y-91460635D01*
X126905625Y-91541295D01*
X126894610Y-91548448D01*
X126756541Y-91660255D01*
X126747255Y-91669541D01*
X126635448Y-91807610D01*
X126628295Y-91818625D01*
X126547635Y-91976930D01*
X126542931Y-91989183D01*
X126496733Y-92161597D01*
X126494786Y-92172931D01*
X126489193Y-92243990D01*
X126489000Y-92248916D01*
X126489000Y-92437885D01*
X122428500Y-92437885D01*
X122428500Y-90517966D01*
X161933257Y-90517966D01*
X161963565Y-90652446D01*
X161966645Y-90662275D01*
X162046770Y-90859603D01*
X162051413Y-90868794D01*
X162162694Y-91050388D01*
X162168777Y-91058699D01*
X162308213Y-91219667D01*
X162315580Y-91226883D01*
X162479434Y-91362916D01*
X162487881Y-91368831D01*
X162671756Y-91476279D01*
X162681042Y-91480729D01*
X162880001Y-91556703D01*
X162889899Y-91559579D01*
X162993250Y-91580606D01*
X163007299Y-91579410D01*
X163011000Y-91569065D01*
X163011000Y-91568517D01*
X163519000Y-91568517D01*
X163523064Y-91582359D01*
X163536478Y-91584393D01*
X163543184Y-91583534D01*
X163553262Y-91581392D01*
X163757255Y-91520191D01*
X163766842Y-91516433D01*
X163958095Y-91422739D01*
X163966945Y-91417464D01*
X164140328Y-91293792D01*
X164148200Y-91287139D01*
X164299052Y-91136812D01*
X164305730Y-91128965D01*
X164430003Y-90956020D01*
X164435313Y-90947183D01*
X164529670Y-90756267D01*
X164533469Y-90746672D01*
X164595377Y-90542910D01*
X164597555Y-90532837D01*
X164598986Y-90521962D01*
X164596775Y-90507778D01*
X164583617Y-90504000D01*
X163537115Y-90504000D01*
X163521876Y-90508475D01*
X163520671Y-90509865D01*
X163519000Y-90517548D01*
X163519000Y-91568517D01*
X163011000Y-91568517D01*
X163011000Y-90522115D01*
X163006525Y-90506876D01*
X163005135Y-90505671D01*
X162997452Y-90504000D01*
X161948225Y-90504000D01*
X161934694Y-90507973D01*
X161933257Y-90517966D01*
X122428500Y-90517966D01*
X122428500Y-87676695D01*
X161902251Y-87676695D01*
X161902548Y-87681848D01*
X161902548Y-87681851D01*
X161908011Y-87776590D01*
X161915110Y-87899715D01*
X161916247Y-87904761D01*
X161916248Y-87904767D01*
X161936119Y-87992939D01*
X161964222Y-88117639D01*
X162048266Y-88324616D01*
X162164987Y-88515088D01*
X162311250Y-88683938D01*
X162483126Y-88826632D01*
X162556955Y-88869774D01*
X162605679Y-88921412D01*
X162618750Y-88991195D01*
X162592019Y-89056967D01*
X162551562Y-89090327D01*
X162543457Y-89094546D01*
X162534738Y-89100036D01*
X162364433Y-89227905D01*
X162356726Y-89234748D01*
X162209590Y-89388717D01*
X162203104Y-89396727D01*
X162083098Y-89572649D01*
X162078000Y-89581623D01*
X161988338Y-89774783D01*
X161984775Y-89784470D01*
X161929389Y-89984183D01*
X161930912Y-89992607D01*
X161943292Y-89996000D01*
X164583344Y-89996000D01*
X164596875Y-89992027D01*
X164598180Y-89982947D01*
X164556214Y-89815875D01*
X164552894Y-89806124D01*
X164467972Y-89610814D01*
X164463105Y-89601739D01*
X164347426Y-89422926D01*
X164341136Y-89414757D01*
X164197806Y-89257240D01*
X164190273Y-89250215D01*
X164023139Y-89118222D01*
X164014556Y-89112520D01*
X163977602Y-89092120D01*
X163927631Y-89041687D01*
X163912859Y-88972245D01*
X163937975Y-88905839D01*
X163965327Y-88879232D01*
X163988797Y-88862491D01*
X164144860Y-88751173D01*
X164303096Y-88593489D01*
X164362594Y-88510689D01*
X164430435Y-88416277D01*
X164433453Y-88412077D01*
X164532430Y-88211811D01*
X164597370Y-87998069D01*
X164626529Y-87776590D01*
X164628156Y-87710000D01*
X164609852Y-87487361D01*
X164555431Y-87270702D01*
X164466354Y-87065840D01*
X164345014Y-86878277D01*
X164341532Y-86874450D01*
X164197798Y-86716488D01*
X164166746Y-86652642D01*
X164175141Y-86582143D01*
X164220317Y-86527375D01*
X164246761Y-86513706D01*
X164353297Y-86473767D01*
X164361705Y-86470615D01*
X164478261Y-86383261D01*
X164565615Y-86266705D01*
X164616745Y-86130316D01*
X164623500Y-86068134D01*
X164623500Y-84271866D01*
X164616745Y-84209684D01*
X164565615Y-84073295D01*
X164478261Y-83956739D01*
X164361705Y-83869385D01*
X164225316Y-83818255D01*
X164163134Y-83811500D01*
X162366866Y-83811500D01*
X162304684Y-83818255D01*
X162168295Y-83869385D01*
X162051739Y-83956739D01*
X161964385Y-84073295D01*
X161913255Y-84209684D01*
X161906500Y-84271866D01*
X161906500Y-86068134D01*
X161913255Y-86130316D01*
X161964385Y-86266705D01*
X162051739Y-86383261D01*
X162168295Y-86470615D01*
X162176704Y-86473767D01*
X162176705Y-86473768D01*
X162285451Y-86514535D01*
X162342216Y-86557176D01*
X162366916Y-86623738D01*
X162351709Y-86693087D01*
X162332316Y-86719568D01*
X162205629Y-86852138D01*
X162079743Y-87036680D01*
X161985688Y-87239305D01*
X161925989Y-87454570D01*
X161902251Y-87676695D01*
X122428500Y-87676695D01*
X122428500Y-83782670D01*
X128752160Y-83782670D01*
X128757887Y-83790320D01*
X128929042Y-83895205D01*
X128937837Y-83899687D01*
X129147988Y-83986734D01*
X129157373Y-83989783D01*
X129378554Y-84042885D01*
X129388301Y-84044428D01*
X129615070Y-84062275D01*
X129624930Y-84062275D01*
X129851699Y-84044428D01*
X129861446Y-84042885D01*
X130082627Y-83989783D01*
X130092012Y-83986734D01*
X130302163Y-83899687D01*
X130310958Y-83895205D01*
X130478445Y-83792568D01*
X130487907Y-83782110D01*
X130484124Y-83773334D01*
X130308924Y-83598134D01*
X133111500Y-83598134D01*
X133118255Y-83660316D01*
X133169385Y-83796705D01*
X133256739Y-83913261D01*
X133373295Y-84000615D01*
X133509684Y-84051745D01*
X133571866Y-84058500D01*
X135668134Y-84058500D01*
X135730316Y-84051745D01*
X135866705Y-84000615D01*
X135983261Y-83913261D01*
X136070615Y-83796705D01*
X136121745Y-83660316D01*
X136128500Y-83598134D01*
X136128500Y-81501866D01*
X136121745Y-81439684D01*
X136070615Y-81303295D01*
X135983261Y-81186739D01*
X135866705Y-81099385D01*
X135730316Y-81048255D01*
X135668134Y-81041500D01*
X133571866Y-81041500D01*
X133509684Y-81048255D01*
X133373295Y-81099385D01*
X133256739Y-81186739D01*
X133169385Y-81303295D01*
X133118255Y-81439684D01*
X133111500Y-81501866D01*
X133111500Y-83598134D01*
X130308924Y-83598134D01*
X129632812Y-82922022D01*
X129618868Y-82914408D01*
X129617035Y-82914539D01*
X129610420Y-82918790D01*
X128758920Y-83770290D01*
X128752160Y-83782670D01*
X122428500Y-83782670D01*
X122428500Y-82554930D01*
X128107725Y-82554930D01*
X128125572Y-82781699D01*
X128127115Y-82791446D01*
X128180217Y-83012627D01*
X128183266Y-83022012D01*
X128270313Y-83232163D01*
X128274795Y-83240958D01*
X128377432Y-83408445D01*
X128387890Y-83417907D01*
X128396666Y-83414124D01*
X129247978Y-82562812D01*
X129254356Y-82551132D01*
X129984408Y-82551132D01*
X129984539Y-82552965D01*
X129988790Y-82559580D01*
X130840290Y-83411080D01*
X130852670Y-83417840D01*
X130860320Y-83412113D01*
X130965205Y-83240958D01*
X130969687Y-83232163D01*
X131056734Y-83022012D01*
X131059783Y-83012627D01*
X131112885Y-82791446D01*
X131114428Y-82781699D01*
X131132275Y-82554930D01*
X131132275Y-82545070D01*
X131114428Y-82318301D01*
X131112885Y-82308554D01*
X131059783Y-82087373D01*
X131056734Y-82077988D01*
X130969687Y-81867837D01*
X130965205Y-81859042D01*
X130862568Y-81691555D01*
X130852110Y-81682093D01*
X130843334Y-81685876D01*
X129992022Y-82537188D01*
X129984408Y-82551132D01*
X129254356Y-82551132D01*
X129255592Y-82548868D01*
X129255461Y-82547035D01*
X129251210Y-82540420D01*
X128399710Y-81688920D01*
X128387330Y-81682160D01*
X128379680Y-81687887D01*
X128274795Y-81859042D01*
X128270313Y-81867837D01*
X128183266Y-82077988D01*
X128180217Y-82087373D01*
X128127115Y-82308554D01*
X128125572Y-82318301D01*
X128107725Y-82545070D01*
X128107725Y-82554930D01*
X122428500Y-82554930D01*
X122428500Y-81317890D01*
X128752093Y-81317890D01*
X128755876Y-81326666D01*
X129607188Y-82177978D01*
X129621132Y-82185592D01*
X129622965Y-82185461D01*
X129629580Y-82181210D01*
X130481080Y-81329710D01*
X130487840Y-81317330D01*
X130482113Y-81309680D01*
X130310958Y-81204795D01*
X130302163Y-81200313D01*
X130092012Y-81113266D01*
X130082627Y-81110217D01*
X129861446Y-81057115D01*
X129851699Y-81055572D01*
X129624930Y-81037725D01*
X129615070Y-81037725D01*
X129388301Y-81055572D01*
X129378554Y-81057115D01*
X129157373Y-81110217D01*
X129147988Y-81113266D01*
X128937837Y-81200313D01*
X128929042Y-81204795D01*
X128761555Y-81307432D01*
X128752093Y-81317890D01*
X122428500Y-81317890D01*
X122428500Y-73660000D01*
X123286411Y-73660000D01*
X123306754Y-74048176D01*
X123367562Y-74432099D01*
X123468167Y-74807562D01*
X123469352Y-74810650D01*
X123469353Y-74810652D01*
X123496419Y-74881161D01*
X123607468Y-75170453D01*
X123608966Y-75173393D01*
X123775419Y-75500074D01*
X123783938Y-75516794D01*
X123785734Y-75519560D01*
X123785736Y-75519563D01*
X123812379Y-75560590D01*
X123995643Y-75842793D01*
X124240266Y-76144876D01*
X124515124Y-76419734D01*
X124817207Y-76664357D01*
X124819970Y-76666152D01*
X124819971Y-76666152D01*
X125098677Y-76847145D01*
X125143205Y-76876062D01*
X125146139Y-76877557D01*
X125146146Y-76877561D01*
X125387797Y-77000688D01*
X125489547Y-77052532D01*
X125608344Y-77098134D01*
X125795645Y-77170032D01*
X125852438Y-77191833D01*
X126227901Y-77292438D01*
X126431793Y-77324732D01*
X126608576Y-77352732D01*
X126608584Y-77352733D01*
X126611824Y-77353246D01*
X127000000Y-77373589D01*
X127388176Y-77353246D01*
X127391416Y-77352733D01*
X127391424Y-77352732D01*
X127568207Y-77324732D01*
X127772099Y-77292438D01*
X128147562Y-77191833D01*
X128204356Y-77170032D01*
X128391656Y-77098134D01*
X145961500Y-77098134D01*
X145968255Y-77160316D01*
X146019385Y-77296705D01*
X146106739Y-77413261D01*
X146223295Y-77500615D01*
X146359684Y-77551745D01*
X146421866Y-77558500D01*
X148218134Y-77558500D01*
X148280316Y-77551745D01*
X148416705Y-77500615D01*
X148533261Y-77413261D01*
X148620615Y-77296705D01*
X148642799Y-77237529D01*
X148664598Y-77179382D01*
X148707240Y-77122618D01*
X148773802Y-77097918D01*
X148843150Y-77113126D01*
X148877817Y-77141114D01*
X148906250Y-77173938D01*
X149078126Y-77316632D01*
X149271000Y-77429338D01*
X149479692Y-77509030D01*
X149484760Y-77510061D01*
X149484763Y-77510062D01*
X149579862Y-77529410D01*
X149698597Y-77553567D01*
X149703772Y-77553757D01*
X149703774Y-77553757D01*
X149916673Y-77561564D01*
X149916677Y-77561564D01*
X149921837Y-77561753D01*
X149926957Y-77561097D01*
X149926959Y-77561097D01*
X150138288Y-77534025D01*
X150138289Y-77534025D01*
X150143416Y-77533368D01*
X150148366Y-77531883D01*
X150352429Y-77470661D01*
X150352434Y-77470659D01*
X150357384Y-77469174D01*
X150557994Y-77370896D01*
X150739860Y-77241173D01*
X150898096Y-77083489D01*
X151028453Y-76902077D01*
X151029640Y-76902930D01*
X151076960Y-76859362D01*
X151146897Y-76847145D01*
X151212338Y-76874678D01*
X151240166Y-76906511D01*
X151297694Y-77000388D01*
X151303777Y-77008699D01*
X151443213Y-77169667D01*
X151450580Y-77176883D01*
X151614434Y-77312916D01*
X151622881Y-77318831D01*
X151806756Y-77426279D01*
X151816042Y-77430729D01*
X152015001Y-77506703D01*
X152024899Y-77509579D01*
X152128250Y-77530606D01*
X152142299Y-77529410D01*
X152146000Y-77519065D01*
X152146000Y-77518517D01*
X152654000Y-77518517D01*
X152658064Y-77532359D01*
X152671478Y-77534393D01*
X152678184Y-77533534D01*
X152688262Y-77531392D01*
X152892255Y-77470191D01*
X152901842Y-77466433D01*
X153093095Y-77372739D01*
X153101945Y-77367464D01*
X153275328Y-77243792D01*
X153283200Y-77237139D01*
X153434052Y-77086812D01*
X153440730Y-77078965D01*
X153568022Y-76901819D01*
X153569279Y-76902722D01*
X153616373Y-76859362D01*
X153686311Y-76847145D01*
X153751751Y-76874678D01*
X153779579Y-76906511D01*
X153839987Y-77005088D01*
X153986250Y-77173938D01*
X154158126Y-77316632D01*
X154351000Y-77429338D01*
X154559692Y-77509030D01*
X154564760Y-77510061D01*
X154564763Y-77510062D01*
X154659862Y-77529410D01*
X154778597Y-77553567D01*
X154783772Y-77553757D01*
X154783774Y-77553757D01*
X154996673Y-77561564D01*
X154996677Y-77561564D01*
X155001837Y-77561753D01*
X155006957Y-77561097D01*
X155006959Y-77561097D01*
X155218288Y-77534025D01*
X155218289Y-77534025D01*
X155223416Y-77533368D01*
X155228366Y-77531883D01*
X155432429Y-77470661D01*
X155432434Y-77470659D01*
X155437384Y-77469174D01*
X155637994Y-77370896D01*
X155819860Y-77241173D01*
X155978096Y-77083489D01*
X156108453Y-76902077D01*
X156120570Y-76877561D01*
X156205136Y-76706453D01*
X156205137Y-76706451D01*
X156207430Y-76701811D01*
X156272370Y-76488069D01*
X156301529Y-76266590D01*
X156303156Y-76200000D01*
X156284852Y-75977361D01*
X156230431Y-75760702D01*
X156141354Y-75555840D01*
X156020014Y-75368277D01*
X155869670Y-75203051D01*
X155865619Y-75199852D01*
X155865615Y-75199848D01*
X155698414Y-75067800D01*
X155698410Y-75067798D01*
X155694359Y-75064598D01*
X155658028Y-75044542D01*
X155642136Y-75035769D01*
X155498789Y-74956638D01*
X155493920Y-74954914D01*
X155493916Y-74954912D01*
X155293087Y-74883795D01*
X155293083Y-74883794D01*
X155288212Y-74882069D01*
X155283119Y-74881162D01*
X155283116Y-74881161D01*
X155073373Y-74843800D01*
X155073367Y-74843799D01*
X155068284Y-74842894D01*
X154994452Y-74841992D01*
X154850081Y-74840228D01*
X154850079Y-74840228D01*
X154844911Y-74840165D01*
X154624091Y-74873955D01*
X154411756Y-74943357D01*
X154213607Y-75046507D01*
X154209474Y-75049610D01*
X154209471Y-75049612D01*
X154052635Y-75167368D01*
X154034965Y-75180635D01*
X154031393Y-75184373D01*
X153923729Y-75297037D01*
X153880629Y-75342138D01*
X153877715Y-75346410D01*
X153877714Y-75346411D01*
X153772898Y-75500066D01*
X153717987Y-75545069D01*
X153647462Y-75553240D01*
X153583715Y-75521986D01*
X153563018Y-75497502D01*
X153482426Y-75372926D01*
X153476136Y-75364757D01*
X153332806Y-75207240D01*
X153325273Y-75200215D01*
X153158139Y-75068222D01*
X153149552Y-75062517D01*
X152963117Y-74959599D01*
X152953705Y-74955369D01*
X152752959Y-74884280D01*
X152742988Y-74881646D01*
X152671837Y-74868972D01*
X152658540Y-74870432D01*
X152654000Y-74884989D01*
X152654000Y-77518517D01*
X152146000Y-77518517D01*
X152146000Y-74883102D01*
X152142082Y-74869758D01*
X152127806Y-74867771D01*
X152089324Y-74873660D01*
X152079288Y-74876051D01*
X151876868Y-74942212D01*
X151867359Y-74946209D01*
X151678463Y-75044542D01*
X151669738Y-75050036D01*
X151499433Y-75177905D01*
X151491726Y-75184748D01*
X151344590Y-75338717D01*
X151338109Y-75346722D01*
X151233498Y-75500074D01*
X151178587Y-75545076D01*
X151108062Y-75553247D01*
X151044315Y-75521993D01*
X151023618Y-75497509D01*
X150942822Y-75372617D01*
X150942820Y-75372614D01*
X150940014Y-75368277D01*
X150789670Y-75203051D01*
X150785619Y-75199852D01*
X150785615Y-75199848D01*
X150618414Y-75067800D01*
X150618410Y-75067798D01*
X150614359Y-75064598D01*
X150578028Y-75044542D01*
X150562136Y-75035769D01*
X150418789Y-74956638D01*
X150413920Y-74954914D01*
X150413916Y-74954912D01*
X150213087Y-74883795D01*
X150213083Y-74883794D01*
X150208212Y-74882069D01*
X150203119Y-74881162D01*
X150203116Y-74881161D01*
X149993373Y-74843800D01*
X149993367Y-74843799D01*
X149988284Y-74842894D01*
X149914452Y-74841992D01*
X149770081Y-74840228D01*
X149770079Y-74840228D01*
X149764911Y-74840165D01*
X149544091Y-74873955D01*
X149331756Y-74943357D01*
X149133607Y-75046507D01*
X149129474Y-75049610D01*
X149129471Y-75049612D01*
X148972635Y-75167368D01*
X148954965Y-75180635D01*
X148898537Y-75239684D01*
X148874283Y-75265064D01*
X148812759Y-75300494D01*
X148741846Y-75297037D01*
X148684060Y-75255791D01*
X148665207Y-75222243D01*
X148623767Y-75111703D01*
X148620615Y-75103295D01*
X148533261Y-74986739D01*
X148416705Y-74899385D01*
X148280316Y-74848255D01*
X148218134Y-74841500D01*
X146421866Y-74841500D01*
X146359684Y-74848255D01*
X146223295Y-74899385D01*
X146106739Y-74986739D01*
X146019385Y-75103295D01*
X145968255Y-75239684D01*
X145961500Y-75301866D01*
X145961500Y-77098134D01*
X128391656Y-77098134D01*
X128510453Y-77052532D01*
X128612203Y-77000688D01*
X128853854Y-76877561D01*
X128853861Y-76877557D01*
X128856795Y-76876062D01*
X128901324Y-76847145D01*
X129180029Y-76666152D01*
X129180030Y-76666152D01*
X129182793Y-76664357D01*
X129484876Y-76419734D01*
X129759734Y-76144876D01*
X130004357Y-75842793D01*
X130187621Y-75560590D01*
X130214264Y-75519563D01*
X130214266Y-75519560D01*
X130216062Y-75516794D01*
X130224582Y-75500074D01*
X130391034Y-75173393D01*
X130392532Y-75170453D01*
X130503581Y-74881161D01*
X130530647Y-74810652D01*
X130530648Y-74810650D01*
X130531833Y-74807562D01*
X130632438Y-74432099D01*
X130693246Y-74048176D01*
X130713589Y-73660000D01*
X161386411Y-73660000D01*
X161406754Y-74048176D01*
X161467562Y-74432099D01*
X161568167Y-74807562D01*
X161569352Y-74810650D01*
X161569353Y-74810652D01*
X161596419Y-74881161D01*
X161707468Y-75170453D01*
X161708966Y-75173393D01*
X161875419Y-75500074D01*
X161883938Y-75516794D01*
X161885734Y-75519560D01*
X161885736Y-75519563D01*
X161912379Y-75560590D01*
X162095643Y-75842793D01*
X162340266Y-76144876D01*
X162615124Y-76419734D01*
X162917207Y-76664357D01*
X162919970Y-76666152D01*
X162919971Y-76666152D01*
X163198677Y-76847145D01*
X163243205Y-76876062D01*
X163246139Y-76877557D01*
X163246146Y-76877561D01*
X163487797Y-77000688D01*
X163589547Y-77052532D01*
X163708344Y-77098134D01*
X163895645Y-77170032D01*
X163952438Y-77191833D01*
X164327901Y-77292438D01*
X164531793Y-77324732D01*
X164708576Y-77352732D01*
X164708584Y-77352733D01*
X164711824Y-77353246D01*
X165100000Y-77373589D01*
X165488176Y-77353246D01*
X165491416Y-77352733D01*
X165491424Y-77352732D01*
X165668207Y-77324732D01*
X165872099Y-77292438D01*
X166247562Y-77191833D01*
X166304356Y-77170032D01*
X166491656Y-77098134D01*
X166610453Y-77052532D01*
X166712203Y-77000688D01*
X166953854Y-76877561D01*
X166953861Y-76877557D01*
X166956795Y-76876062D01*
X167001324Y-76847145D01*
X167280029Y-76666152D01*
X167280030Y-76666152D01*
X167282793Y-76664357D01*
X167584876Y-76419734D01*
X167859734Y-76144876D01*
X168104357Y-75842793D01*
X168287621Y-75560590D01*
X168314264Y-75519563D01*
X168314266Y-75519560D01*
X168316062Y-75516794D01*
X168324582Y-75500074D01*
X168491034Y-75173393D01*
X168492532Y-75170453D01*
X168603581Y-74881161D01*
X168630647Y-74810652D01*
X168630648Y-74810650D01*
X168631833Y-74807562D01*
X168732438Y-74432099D01*
X168793246Y-74048176D01*
X168813589Y-73660000D01*
X168793246Y-73271824D01*
X168732438Y-72887901D01*
X168631833Y-72512438D01*
X168492532Y-72149547D01*
X168316062Y-71803206D01*
X168104357Y-71477207D01*
X167859734Y-71175124D01*
X167584876Y-70900266D01*
X167282793Y-70655643D01*
X166956795Y-70443938D01*
X166953861Y-70442443D01*
X166953854Y-70442439D01*
X166613393Y-70268966D01*
X166610453Y-70267468D01*
X166247562Y-70128167D01*
X165872099Y-70027562D01*
X165668207Y-69995268D01*
X165491424Y-69967268D01*
X165491416Y-69967267D01*
X165488176Y-69966754D01*
X165100000Y-69946411D01*
X164711824Y-69966754D01*
X164708584Y-69967267D01*
X164708576Y-69967268D01*
X164531793Y-69995268D01*
X164327901Y-70027562D01*
X163952438Y-70128167D01*
X163589547Y-70267468D01*
X163586607Y-70268966D01*
X163246147Y-70442439D01*
X163246140Y-70442443D01*
X163243206Y-70443938D01*
X162917207Y-70655643D01*
X162615124Y-70900266D01*
X162340266Y-71175124D01*
X162095643Y-71477207D01*
X161883938Y-71803206D01*
X161707468Y-72149547D01*
X161568167Y-72512438D01*
X161467562Y-72887901D01*
X161406754Y-73271824D01*
X161386411Y-73660000D01*
X130713589Y-73660000D01*
X130693246Y-73271824D01*
X130632438Y-72887901D01*
X130531833Y-72512438D01*
X130392532Y-72149547D01*
X130216062Y-71803206D01*
X130004357Y-71477207D01*
X129759734Y-71175124D01*
X129484876Y-70900266D01*
X129182793Y-70655643D01*
X128856795Y-70443938D01*
X128853861Y-70442443D01*
X128853854Y-70442439D01*
X128513393Y-70268966D01*
X128510453Y-70267468D01*
X128147562Y-70128167D01*
X127772099Y-70027562D01*
X127568207Y-69995268D01*
X127391424Y-69967268D01*
X127391416Y-69967267D01*
X127388176Y-69966754D01*
X127000000Y-69946411D01*
X126611824Y-69966754D01*
X126608584Y-69967267D01*
X126608576Y-69967268D01*
X126431793Y-69995268D01*
X126227901Y-70027562D01*
X125852438Y-70128167D01*
X125489547Y-70267468D01*
X125486607Y-70268966D01*
X125146147Y-70442439D01*
X125146140Y-70442443D01*
X125143206Y-70443938D01*
X124817207Y-70655643D01*
X124515124Y-70900266D01*
X124240266Y-71175124D01*
X123995643Y-71477207D01*
X123783938Y-71803206D01*
X123607468Y-72149547D01*
X123468167Y-72512438D01*
X123367562Y-72887901D01*
X123306754Y-73271824D01*
X123286411Y-73660000D01*
X122428500Y-73660000D01*
X122428500Y-69214500D01*
X122448502Y-69146379D01*
X122502158Y-69099886D01*
X122554500Y-69088500D01*
X169545500Y-69088500D01*
X169613621Y-69108502D01*
G37*
%TD.AperFunction*%
%TD*%
M02*
